<svg width="59" height="65" viewBox="0 0 59 65" xmlns="http://www.w3.org/2000/svg"><title>Group</title><path d="M13.318 23.906c-5.348 3.228-8.924 9.096-8.924 15.798 0 1.702.23 3.35.66 4.913-1.43 1.77-2.287 4.023-2.287 6.476 0 2.707-.915 7.32 1.515 9.75 2.43 2.43 5.805.554 8.79.554 3.022 0 5.742-1.302 7.627-3.376.7.082 1.41.123 2.133.123 7.767 0 14.412-4.802 17.13-11.6 6.902-1.18 12.156-7.192 12.156-14.432 0-.972-.096-1.924-.277-2.845C55.008 26.435 57 22.32 57 17.74c0-8.537-6.92-15.457-15.456-15.457-4.585 0-8.704 1.996-11.534 5.167-.917-.187-1.866-.286-2.838-.286-7.788 0-14.1 6.313-14.1 14.1 0 .904.084 1.787.246 2.642z" stroke="#A2A2A2" stroke-width="4" fill="#FFF" fill-rule="evenodd"/></svg>