<svg width="59" height="65" viewBox="0 0 59 65" xmlns="http://www.w3.org/2000/svg"><title>Group</title><path d="M13.318 23.906c-5.348 3.228-8.924 9.096-8.924 15.798 0 1.702.23 3.35.661 4.913a10.261 10.261 0 0 0-2.288 6.476c0 2.707-.915 7.319 1.515 9.749 2.43 2.43 5.805.555 8.789.555a10.28 10.28 0 0 0 7.628-3.376c.7.081 1.412.122 2.134.122 7.767 0 14.412-4.802 17.129-11.599 6.903-1.18 12.157-7.193 12.157-14.433 0-.973-.095-1.925-.276-2.846A15.418 15.418 0 0 0 57 17.74c0-8.537-6.92-15.457-15.456-15.457A15.418 15.418 0 0 0 30.01 7.45a14.164 14.164 0 0 0-2.838-.286c-7.788 0-14.101 6.313-14.101 14.1 0 .904.085 1.787.247 2.642z" stroke="#A2A2A2" stroke-width="4" fill="#FFF" fill-rule="evenodd"/></svg>