<svg width="84" height="65" viewBox="0 0 84 65" xmlns="http://www.w3.org/2000/svg"><title>Group Copy</title><g transform="translate(0 1)" fill="none" fill-rule="evenodd"><path d="M42.5 63.168c21.263 0 38.5-15.894 38.5-35.5s-77-19.606-77 0 17.237 35.5 38.5 35.5z" fill="#B99F73"/><path d="M79.394 36.288C75 37.2 76.838 31.971 76.838 27c0-4.97-3.463-7.026-.882-8.01 1.903-.725 7.248 2.438 7.831 8.01.41 3.662 0 8.377-4.393 9.288zm-74.877.608c4.393.911 2.555-4.318 2.555-9.288 0-4.97 3.463-7.026.882-8.01-1.903-.726-7.248 2.438-7.831 8.01-.41 3.662 0 8.376 4.394 9.288z" fill="#B99F73"/><path d="M43 40.577c17.673 0 32-10.263 32-13.577s-14.327-7.69-32-7.69c-17.673 0-32 4.376-32 7.69s14.327 13.577 32 13.577z" fill="#907C59"/><path d="M35.291 27.186c-4.437-14.511-1.114-28.23-7.988-26.128-6.874 2.102-8.895 15.422-4.458 29.934 4.436 14.512 16.883 10.706 12.446-3.806z" stroke="#2A5721" stroke-width="2" fill="#418932"/><path d="M26.445 31.722c-5.19-14.26-2.59-28.132-9.344-25.674-6.755 2.459-8.076 15.866-2.886 30.126 5.19 14.26 17.42 9.808 12.23-4.452z" stroke="#2A5720" stroke-width="2" fill="#418932"/><rect stroke="#C3C2C2" stroke-width="2" fill="#FFF" transform="rotate(88 51.5 18)" x="42" y="9" width="19" height="18" rx="8"/><rect stroke="#C3C2C2" stroke-width="2" fill="#FFF" transform="rotate(-15 57.5 22)" x="48" y="13" width="19" height="18" rx="8"/><rect stroke="#C3C2C2" stroke-width="2" fill="#FFF" transform="rotate(12 46.5 24)" x="37" y="15" width="19" height="18" rx="8"/><circle stroke="#7C1515" stroke-width="2" fill="#C41F1F" cx="65" cy="28" r="10"/><circle stroke="#7C1515" stroke-width="2" fill="#C41F1F" cx="52" cy="33" r="10"/><circle stroke="#7C1515" stroke-width="2" fill="#C41F1F" cx="42" cy="37" r="10"/><path d="M17.767 50.495c8.144 7.133 20.73 10.427 26.16 10.427.24 0 15.025-4.015 23.996-11.84 7.02-6.124 14.271-24.016 7.515-20.569-16.557 8.448-28.286 8.448-32.12 8.448-3.835 0-11.626 0-32.118-10.16-10.723-5.318-3.815 14.6 6.567 23.694z" fill="#B99F73"/><path d="M45.942 56.562c-1.583-.335-9.088-4.93-9.088-5.657 0-.768 7.505-6.908 9.088-7.253 1.705 0-7.781 7.253-7.781 7.253s9.486 5.657 7.781 5.657z" stroke="#000" stroke-width="3" stroke-linecap="square"/></g></svg>