<svg xmlns="http://www.w3.org/2000/svg" viewBox="0 0 158.32 191.96"><title>alien_2</title><g id="Layer_2" data-name="Layer 2"><g id="Layer_1-2" data-name="Layer 1"><ellipse cx="79.16" cy="88.09" rx="74.16" ry="83.09" fill="#fff" stroke="#000" stroke-linejoin="round" stroke-width="10"/><path d="M136.53,187H24.58a12,12,0,0,1-12-12v-7.58a12,12,0,0,1,12-12s26.44,1.18,29,0,8.27-8.71,10.81-11,29.21-2,31.44,0,9.92,9.66,12.19,11,28.56,0,28.56,0a12,12,0,0,1,12,12V175A12,12,0,0,1,136.53,187Z" fill="#fff" stroke="#000" stroke-linejoin="round" stroke-width="10"/><path d="M106.83,48.23c4.61,5.25,23.09,28.45,29,36,2.47-16.12-11-44.09-15.92-45.22S107.34,43.82,106.83,48.23Z" fill="#fff" stroke="#000" stroke-linejoin="round" stroke-width="7"/></g></g></svg>