<svg xmlns="http://www.w3.org/2000/svg" width="200" height="200" viewBox="0 0 200 200">
  <path fill="#F4C03B" d="M0,0 L200,0 L200,200 L0,200 L0,0 Z M58.1372,108.776 L74.7384,63.0884 L75.0128,63.0884 L91.3396,108.776 L58.1372,108.776 Z M67.8784,51.2892 L29.7368,149.25 L43.0452,149.25 L54.0212,119.752 L95.4556,119.752 L106.1572,149.25 L120.5632,149.25 L82.2844,51.2892 L67.8784,51.2892 Z M127.8348,78.3176 L127.8348,149.25 L139.4968,149.25 L139.4968,117.694 C139.4968,113.120644 139.954129,109.073284 140.8688,105.5518 C141.783471,102.030316 143.246923,99.0348123 145.2592,96.5652 C147.271477,94.0955877 149.923984,92.2205397 153.2168,90.94 C156.509616,89.6594603 160.488377,89.0192 165.1532,89.0192 L165.1532,76.6712 C158.841968,76.4882658 153.628421,77.7687863 149.5124,80.5128 C145.396379,83.2568137 141.920681,87.5099712 139.0852,93.2724 L138.8108,93.2724 L138.8108,78.3176 L127.8348,78.3176 Z"/>
</svg>
