<svg xmlns="http://www.w3.org/2000/svg" width="17" height="22" viewBox="0 0 17 22">
  <g fill="none" fill-rule="evenodd" transform="translate(-6 -3)">
    <path fill="#000" fill-rule="nonzero" d="M20.5714286,21.3333333 L20.5714286,5.44444444 L8.42857143,5.44444444 L8.42857143,21.3333333 L14.5,18.6688889 L20.5714286,21.3333333 Z M20.5714286,3 C21.9126915,3 23,4.09441506 23,5.44444444 L23,25 L14.5,21.3333333 L6,25 L6,5.44444444 C6,4.08777778 7.09285714,3 8.42857143,3 L20.5714286,3 Z M13.2857143,7.88888889 L15.7142857,7.88888889 L15.7142857,10.3333333 L18.1428571,10.3333333 L18.1428571,12.7777778 L15.7142857,12.7777778 L15.7142857,15.2222222 L13.2857143,15.2222222 L13.2857143,12.7777778 L10.8571429,12.7777778 L10.8571429,10.3333333 L13.2857143,10.3333333 L13.2857143,7.88888889 Z"/>
    <polygon points="0 0 29 0 29 29 0 29"/>
  </g>
</svg>
