<svg xmlns="http://www.w3.org/2000/svg" width="16" height="16" viewBox="0 0 16 16">
  <g fill="#FFF" fill-rule="evenodd" stroke="#000" stroke-width=".75">
    <path d="M5.16452048,5.34000015 L5.16452048,12.5743973 C5.16452048,13.2414945 5.50737068,13.5748278 6.19307107,13.5743973 C6.87877146,13.5739669 7.22162165,13.2406335 7.22162165,12.5743973 L7.22162165,11.3246749 C7.1996832,10.6580082 7.48939862,10.3246749 8.09076793,10.3246749 C8.69213723,10.3246749 8.98185265,10.6580082 8.9599142,11.3246749 L8.9599142,12.5743973 C8.9217281,13.241064 9.2315469,13.5743973 9.8893706,13.5743973 C10.5471943,13.5743973 10.8761062,13.241064 10.8761062,12.5743973 L10.6833612,5.34000015 L5.16452048,5.34000015 Z"/>
    <path d="M5.60947867,8.79668691 C5.82789859,7.72830653 5.82789859,6.7978378 5.60947867,6.0052807 C5.36442169,5.94601975 4.64476999,6.37762089 4.32495378,7.70138062 C4.14542689,8.36981494 3.97958932,9.16665482 3.82744109,10.0919003 C3.63798899,10.9357113 3.75596335,11.4219012 4.1813642,11.5504699 C4.60676504,11.6790386 4.94499809,11.518649 5.19606336,11.0693011 L5.60947867,8.79668691 Z" transform="rotate(-5 4.757 8.797)"/>
    <path d="M12.1094787,8.79668691 C12.3278986,7.72830653 12.3278986,6.7978378 12.1094787,6.0052807 C11.8644217,5.94601975 11.14477,6.37762089 10.8249538,7.70138062 C10.6454269,8.36981494 10.4795893,9.16665482 10.3274411,10.0919003 C10.137989,10.9357113 10.2559634,11.4219012 10.6813642,11.5504699 C11.106765,11.6790386 11.4449981,11.518649 11.6960634,11.0693011 L12.1094787,8.79668691 Z" transform="scale(-1 1) rotate(-5 0 266.615)"/>
    <circle cx="8" cy="6" r="3"/>
  </g>
</svg>
