<svg xmlns="http://www.w3.org/2000/svg" width="427" height="153" viewBox="0 0 427 153">
  <g fill="none">
    <path fill="#D22F2F" d="M289.450295,110.637341 C271.224145,123.524749 249.693253,137.011571 226.560063,151.197709 L225.658769,151.697221 C225.358338,151.897026 225.258195,152.296635 225.458482,152.696245 C225.658769,152.995952 226.059344,153.095855 226.459919,152.89605 L227.261068,152.49644 C246.88923,142.306397 269.521702,130.118306 292.154175,117.630508 C292.254318,117.530606 292.354462,117.530606 292.554749,117.430703 C291.252882,115.332753 290.151301,113.034998 289.450295,110.637341 L289.450295,110.637341 Z M408.821565,14.2315398 C380.180472,-17.3376138 195.815952,11.0346635 117.403448,28.1179713 L115.600862,28.5175808 C115.200287,28.6174832 115,28.9171903 115,29.3167999 C115.100144,29.7164094 115.400575,29.9162142 115.801149,29.9162142 L117.603736,29.5166047 C182.496842,18.0278304 317.59067,2.04344887 346.732482,30.8153357 C355.64527,39.6067455 353.442109,50.895715 343.227453,64.1827321 C348.735355,67.779218 352.741103,73.3737515 354.543689,80.3669185 C394.601162,53.6929817 421.539813,28.317776 408.821565,14.2315398 Z"/>
    <g fill="#004879" transform="translate(0 63)">
      <path d="M300.9,39.4 C301.3,50.5 308.3,59.6 317.5,59.6 C335.3,59.6 342.8,37.8 342.3,23.2 C341.9,12.1 334.7,3 325.6,3 C310.2,3 300.4,24.7 300.9,39.4 L300.9,39.4 Z M291.5,38.8 C290.8,19.8 305.7,0.5 327.3,0.5 C341.7,0.5 351.2,10.1 351.7,24.8 C352.4,44.8 338.5,63.1 315.9,63.1 C301.5,63.1 292,53.5 291.5,38.8 Z M87.2,33.8 C86.4,34.1 85.4,34.4 84.2,34.6 C83,34.9 80.7,35.3 77.5,35.8 C75.3,36.2 73.7,36.6 72.8,37.3 C71.9,37.9 71.4,38.7 71.3,39.6 C71.1,40.6 71.4,41.4 72.3,42 C73.2,42.6 74.6,42.9 76.6,42.9 C78.1,42.9 79.6,42.7 81.1,42.2 C82.6,41.7 83.8,41.1 84.8,40.3 C85.5,39.7 86,38.9 86.4,38 C86.5,37.3 86.8,35.9 87.2,33.8 L87.2,33.8 Z M106,22.1 C105.9,23.8 105.6,25.4 105.2,28 L102,45.8 C101.7,47.4 102.3,48.6 103.8,49.5 L103.7,50.2 L85.5,50.2 L85.3,45.7 C82.7,47.3 79.5,48.6 76.6,49.4 C73.7,50.1 71.4,50.5 67.9,50.5 C62,50.5 58.7,49.9 56.4,47.9 C54,45.8 52.9,44.4 53,41.5 C53.1,39.8 53.9,37.7 55.2,36.2 C56.5,34.7 58.2,33.7 60,32.8 C61.9,31.9 64.1,31.3 67.3,30.8 C70.5,30.3 75,29.8 81,29.3 C84.1,29 86.1,28.3 87,28 C88.3,27.5 88.7,27 88.9,26 C89.2,24.2 88.7,23.1 86.2,22.6 C79.7,21.3 67.4,23.4 61.1,25 L64.5,15.7 C72.8,14.5 80.7,13.7 88.9,13.7 C101.9,13.6 106.1,17.3 106,22.1 L106,22.1 Z M158.6,50.2 L164.9,14.6 L182.3,14.6 L176,50.2 L158.6,50.2 L158.6,50.2 Z M165.9,6.4 C166.4,3.5 171,1.1 176.2,1.1 C181.4,1.1 185.1,3.5 184.6,6.4 C184.1,9.3 179.4,11.7 174.3,11.7 C169.1,11.7 165.3,9.3 165.9,6.4 Z M244.1,33.9 C243.3,34.2 242.3,34.5 241.1,34.7 C239.9,35 237.6,35.4 234.3,35.9 C232.1,36.3 230.5,36.7 229.6,37.4 C228.8,38 228.3,38.8 228.1,39.7 C227.9,40.7 228.3,41.5 229.1,42.1 C230,42.7 231.4,43 233.5,43 C235,43 236.5,42.8 238,42.3 C239.5,41.8 240.7,41.2 241.7,40.4 C242.4,39.8 242.9,39 243.2,38.1 C243.4,37.4 243.7,36 244.1,33.9 Z M262.8,22.2 C262.7,23.9 262.4,25.5 261.9,28.1 L258.8,45.9 C258.5,47.5 259.1,48.7 260.6,49.6 L260.5,50.2 L242.3,50.2 L242.2,45.7 C239.5,47.3 236.3,48.6 233.5,49.4 C230.6,50.2 228.3,50.5 224.8,50.5 C218.9,50.5 215.6,49.9 213.3,47.9 C210.9,45.8 209.8,44.4 209.9,41.5 C210,39.8 210.8,37.7 212.1,36.2 C213.4,34.7 215.1,33.7 216.9,32.8 C218.8,31.9 221,31.3 224.2,30.7 C227.4,30.2 231.9,29.7 237.9,29.2 C241,28.9 242.9,28.2 243.8,27.9 C245.1,27.4 245.6,26.9 245.8,25.8 C246.1,24 245.5,22.9 243.1,22.4 C236.5,21.1 224.3,23.2 218,24.8 L221.4,15.5 C229.8,14.3 237.5,13.5 245.8,13.5 C258.7,13.7 262.9,17.4 262.8,22.2 L262.8,22.2 Z M50.6,37.4 C44.9,38.5 41.8,39 36.2,39 C27.9,39 21.3,34.9 21.6,27.3 C21.9,22.3 27.8,11.6 43,11.6 C47.8,11.6 51.5,12.4 56.5,15.3 L58.7,3 C51.9,0.4 47.4,8.8817842e-16 41.5,0.1 C21.6,0.3 2.5,9.3 0.2,27.7 C-2.2,46.4 20.6,51.1 30.7,51 C36.5,51 42.6,50.7 48.3,50.2 L50.6,37.4 Z M191.9,14.4 L193.1,7.2 L211.3,3.2 L209.4,14.4 L218.3,14.4 L216.6,21.6 L208,21.6 L202.8,50.2 C202.8,50.2 185.3,50.1 185.2,50.2 L190.4,21.7 L183.8,21.7 L185.1,14.5 L191.9,14.5 L191.9,14.4 L191.9,14.4 Z M280.5,50.2 L262.7,50.2 L271.6,0.6 L288.9,1.1 L280.5,50.2 L280.5,50.2 Z M135.6,23 C133.3,23 131.3,23.7 129.4,25.1 C127.6,26.5 126.4,28.5 126,31.2 C125.5,34.3 125.8,36.5 127,37.9 C128.2,39.3 130,40 132.4,40 C134,40 135.6,39.7 136.8,39.1 C138.3,38.3 139.3,37.5 140.2,36.2 C141.2,34.8 141.8,33.3 142.1,31.5 C142.6,28.7 142.2,26.6 140.9,25.2 C139.6,23.7 137.9,23 135.6,23 L135.6,23 Z M103.9,62.5 L112.4,14.8 L127.7,14.8 L126.5,20.9 C127.8,19.1 129.9,17.6 132.9,16.4 C135.8,15.2 139.2,14.3 142.8,14.3 C146.8,14.3 149.2,14.5 152.2,16.1 C155.2,17.7 157.2,19.9 158.4,22.9 C159.5,25.8 159.8,29 159.2,32.6 C158.2,38.5 155.3,43.1 150.6,46.5 C145.9,49.9 141.7,50.8 135.8,50.8 C133.7,50.8 131.9,50.6 130.4,50.2 C129,49.8 127.8,49.4 126.9,48.8 C126.1,48.2 125.2,47.5 124,46.2 L121.2,62.5 L103.9,62.5 L103.9,62.5 Z M419.7,27.4 C419.6,24.5 418.2,22.6 415.2,22.6 C408.1,22.6 400.5,36.6 399.2,42.2 C410.8,42.2 419.9,35.2 419.7,27.4 L419.7,27.4 Z M421.2,49.3 L422.6,50.2 C419.1,57.3 412,63 403.7,63 C396.9,63 391.3,58.5 391,50 C390.5,34.8 404.7,20.6 416.4,20.6 C421.4,20.6 426.1,22.8 426.3,28.2 C426.7,40.3 409.7,44 398.5,44.3 C398.1,45.6 398,46.8 398.1,48.8 C398.3,53.8 401.3,58.1 407.6,58.1 C413,57.9 418.4,53.6 421.2,49.3 Z"/>
      <path d="M351.4,27 C352.6,26.8 354.6,26.6 355.4,26.6 C356.7,26.6 357.9,26.8 357.9,28.1 C357.9,28.9 356.6,34.3 356.3,35.5 L353.6,47.5 C352.5,52.4 351.3,57.5 350.3,61.6 L357.3,61.6 L361.2,42.7 C373.2,30.3 377.8,26.2 380.6,26.2 C381.9,26.2 382.7,26.9 382.8,28.4 C382.9,30.6 381.5,35.6 381,37 L377,50.8 C376.1,53.9 375.4,56.7 375.5,58.7 C375.6,61.7 377.5,63.1 380.2,63.1 C385.3,63.1 389,57.8 392.2,52.6 L391.3,50.9 C390,53 387,57.6 384.6,57.6 C383.8,57.6 383.1,57.1 383.1,55.8 C383,54.2 383.7,51.8 384.2,50.2 L388.6,34 C389.8,29.5 390.4,26.7 390.3,25.1 C390.2,22.1 388.4,20.7 385.7,20.7 C381.1,20.7 375,24 362.1,38.9 L361.9,38.9 L363.5,31.7 C364.4,27.7 365.2,23.6 366.1,20.8 C361.6,22.4 355.3,24.2 351.3,25 L351.4,27 L351.4,27 Z"/>
    </g>
  </g>
</svg>
