<svg xmlns="http://www.w3.org/2000/svg" xmlns:xlink="http://www.w3.org/1999/xlink" viewBox="0 0 151.35 141.94"><defs><style>.cls-1{fill:none;clip-rule:evenodd;}.cls-2{fill:#1f1f1f;}.cls-3{clip-path:url(#clip-path);}.cls-4{fill:#181918;}</style><clipPath id="clip-path"><path class="cls-1" d="M63,106.51a19.27,19.27,0,0,0-7.61-3.72,23.92,23.92,0,0,0-4.84-.61c-1.21,0-2.43,0-3.64,0H29.66c-1.21,0-2.43,0-3.64,0a23.86,23.86,0,0,0-4.84.61,19.11,19.11,0,0,0,0,37.21,23.84,23.84,0,0,0,4.84.61c1.21,0,2.43,0,3.64,0H46.93c1.21,0,2.43,0,3.64,0a23.84,23.84,0,0,0,4.84-.61A19.1,19.1,0,0,0,63,106.51ZM54.6,126.58a6.81,6.81,0,0,1-2.81,1.1,18.76,18.76,0,0,1-3,.13H27.85a18.72,18.72,0,0,1-3-.13A6.8,6.8,0,0,1,22,126.57a6.27,6.27,0,0,1,0-10.36,6.8,6.8,0,0,1,2.81-1.1,18.75,18.75,0,0,1,3-.13H48.75a18.75,18.75,0,0,1,3,.13,6.81,6.81,0,0,1,2.81,1.11,6.28,6.28,0,0,1,0,10.36Z"/></clipPath></defs><title>Asset 1</title><g id="Layer_2" data-name="Layer 2"><g id="Layer_1-2" data-name="Layer 1"><path d="M115.87,47a4,4,0,0,0-3.43,2L89.61,88.53a4,4,0,0,0,0,4l4.13,7.07a4,4,0,0,0,3.42,2h46.1a4,4,0,0,0,3.42-2l4.13-7.07a4,4,0,0,0,0-4L128,49a4,4,0,0,0-3.43-2Zm4.35,14.32c7.54,0,20.07,19.39,15.6,27-2.23,3.82-8.92,5.19-15.6,5.2s-13.37-1.33-15.6-5.2C100.15,80.64,112.68,61.33,120.22,61.33Z"/><path id="path-1" class="cls-2" d="M82,48.85c-1.62,2-5.57,3.49-5.57,3.49L47,62.92v-7.8L68.62,47.4c2.46-.88,2.84-2.13.84-2.78a14.62,14.62,0,0,0-8.07.42L47,50.12V42l.83-.28a49.53,49.53,0,0,1,10-2.13,42.83,42.83,0,0,1,18.69,2.23C82.86,43.86,83.58,46.82,82,48.85ZM49.75,35.57V15.63c0-2.34-.43-4.5-2.63-5.11-1.68-.54-2.73,1-2.73,3.36V63.83L30.92,59.56V0A162,162,0,0,1,49.48,5.09C60.89,9,64.76,13.88,64.76,24.86,64.76,35.57,58.15,39.63,49.75,35.57ZM6.21,54.31c-6.52-1.84-7.61-5.67-4.64-7.87A32,32,0,0,1,9,42.87L28.31,36v7.83l-13.9,5c-2.46.88-2.83,2.13-.84,2.78a14.65,14.65,0,0,0,8.07-.42l6.67-2.42v7L27,56A43.7,43.7,0,0,1,6.21,54.31Z"/><g class="cls-3"><rect class="cls-4" x="5.13" y="100.85" width="66.35" height="41.09"/></g></g></g></svg>