<svg xmlns="http://www.w3.org/2000/svg" width="273" height="313" viewBox="0 0 273 313">
  <g fill="none" fill-rule="evenodd">
    <path fill="#78DDF6" d="M0,227.87234 L122.425532,227.87234 C131.957494,227.87234 140.595706,225.861722 148.340426,221.840426 C156.085145,217.819129 162.787206,212.606415 168.446809,206.202128 C174.106411,199.79784 178.425517,192.351106 181.404255,183.861702 C184.382994,175.372298 185.87234,166.659619 185.87234,157.723404 C185.87234,148.787189 184.382994,140.074511 181.404255,131.585106 C178.425517,123.095702 174.106411,115.500034 168.446809,108.797872 C162.787206,102.095711 156.085145,96.8829973 148.340426,93.1595745 C140.595706,89.4361516 131.957494,87.2765987 122.425532,86.6808511 L90.7021277,86.6808511 L90.7021277,178.723404 L0,178.723404 L0,6.70212766 L8.93617021,0 L127.340426,0 C149.978837,0 170.382888,5.13824649 188.553191,15.4148936 C206.723495,25.6915407 222.287169,38.5743906 235.244681,54.0638298 C248.202192,69.5532689 257.734012,85.7871491 263.840426,102.765957 C269.946839,119.744766 273,137.467993 273,155.93617 C273,180.659698 268.606427,201.88289 259.819149,219.606383 C251.031871,237.329876 239.712835,253.265887 225.861702,267.414894 C212.010569,281.563901 196.372428,292.659534 178.946809,300.702128 C161.521189,308.744721 144.021364,312.765957 126.446809,312.765957 L8.93617021,312.765957 L0,306.06383 L0,227.87234 Z M15.6382979,163.085106 L75.0638298,163.085106 L75.0638298,72.3829787 L127.340426,72.3829787 C139.255379,72.9787264 149.680806,76.1063547 158.617021,81.7659574 C167.553236,87.4255602 175.223372,94.5744249 181.62766,103.212766 C188.031947,111.851107 192.648922,121.01059 195.478723,130.691489 C198.308525,140.372389 199.723404,149.085068 199.723404,156.829787 C200.021278,170.829857 197.638323,183.787174 192.574468,195.702128 C190.489351,200.765983 187.73406,205.755295 184.308511,210.670213 C180.882962,215.585131 176.563856,220.202106 171.351064,224.521277 C166.138272,228.840447 160.03195,232.489347 153.031915,235.468085 C146.03188,238.446823 137.766005,240.531909 128.234043,241.723404 L15.6382979,241.723404 L15.6382979,297.12766 L124.212766,297.12766 C140.8937,296.234038 155.563766,293.10641 168.223404,287.744681 C180.883042,282.382952 191.978676,276.053228 201.510638,268.755319 C211.042601,261.45741 219.010606,253.63834 225.414894,245.297872 C231.819181,236.957405 237.106362,228.617063 241.276596,220.276596 C251.106432,200.616923 256.468081,179.170329 257.361702,155.93617 C257.659576,132.404138 253.117068,111.776684 243.734043,94.0531915 C234.351017,76.3296986 222.957514,61.5851652 209.553191,49.8191489 C196.148869,38.0531327 182.149009,29.4149212 167.553191,23.9042553 C152.957374,18.3935895 140.297926,15.6382979 129.574468,15.6382979 L15.6382979,15.6382979 L15.6382979,163.085106 Z"/>
    <path fill="#000" d="M15.6382979,163.085106 L75.0638298,163.085106 L75.0638298,72.3829787 L127.340426,72.3829787 C139.255379,72.9787264 149.680806,76.1063547 158.617021,81.7659574 C167.553236,87.4255602 175.223372,94.5744249 181.62766,103.212766 C188.031947,111.851107 192.648922,121.01059 195.478723,130.691489 C198.308525,140.372389 199.723404,149.085068 199.723404,156.829787 C200.021278,170.829857 197.638323,183.787174 192.574468,195.702128 C190.489351,200.765983 187.73406,205.755295 184.308511,210.670213 C180.882962,215.585131 176.563856,220.202106 171.351064,224.521277 C166.138272,228.840447 160.03195,232.489347 153.031915,235.468085 C146.03188,238.446823 137.766005,240.531909 128.234043,241.723404 L15.6382979,241.723404 L15.6382979,297.12766 L124.212766,297.12766 C140.8937,296.234038 155.563766,293.10641 168.223404,287.744681 C180.883042,282.382952 191.978676,276.053228 201.510638,268.755319 C211.042601,261.45741 219.010606,253.63834 225.414894,245.297872 C231.819181,236.957405 237.106362,228.617063 241.276596,220.276596 C251.106432,200.616923 256.468081,179.170329 257.361702,155.93617 C257.659576,132.404138 253.117068,111.776684 243.734043,94.0531915 C234.351017,76.3296986 222.957514,61.5851652 209.553191,49.8191489 C196.148869,38.0531327 182.149009,29.4149212 167.553191,23.9042553 C152.957374,18.3935895 140.297926,15.6382979 129.574468,15.6382979 L15.6382979,15.6382979 L15.6382979,163.085106 Z"/>
  </g>
</svg>
