<svg xmlns="http://www.w3.org/2000/svg" width="200" height="200" viewBox="0 0 200 200">
  <g fill="#252323" fill-rule="evenodd">
    <path d="M0 0L40 0 40 200 0 200 0 0zM40 0L80 0 80 40 40 40 40 0zM80 0L120 0 120 40 80 40 80 0zM160 0L200 0 200 40 160 40 160 0zM160 40L200 40 200 80 160 80 160 40zM160 120L200 120 200 160 160 160 160 120zM160 160L200 160 200 200 160 200 160 160zM120 160L160 160 160 200 120 200 120 160zM80 160L120 160 120 200 80 200 80 160zM160 80L200 80 200 120 160 120 160 80z"/>
  </g>
</svg>
