<svg id="Layer_1" data-name="Layer 1" xmlns="http://www.w3.org/2000/svg" viewBox="0 0 16 16"><title>empty-state</title><rect x="4.08" y="1.66" width="7.84" height="12.68" fill="#fff" stroke="#000" stroke-linejoin="round"/><path d="M8.2,9.07H7.6a1.63,1.63,0,0,1,0-.24,1.22,1.22,0,0,1,.57-1.07l.3-.2a.81.81,0,0,0,.15-1.22A.78.78,0,0,0,8,6.12a.8.8,0,0,0-.64.25A1,1,0,0,0,7.15,7a1,1,0,0,0,0,.33l-.66-.08a1.11,1.11,0,0,1,0-.33,1.46,1.46,0,0,1,.15-.64,1.39,1.39,0,0,1,.5-.53A1.57,1.57,0,0,1,8,5.52a1.46,1.46,0,0,1,1.08.4,1.36,1.36,0,0,1,.41,1,1.38,1.38,0,0,1-.7,1.18l-.31.21a.75.75,0,0,0-.3.66A.62.62,0,0,0,8.2,9.07Zm-.62,1.28A.4.4,0,0,1,7.45,10a.44.44,0,0,1,.44-.45.48.48,0,0,1,.32.13.44.44,0,0,1,.13.32.4.4,0,0,1-.13.31.44.44,0,0,1-.32.13A.4.4,0,0,1,7.58,10.35Z" stroke="#000" stroke-linejoin="round" stroke-width="0.25"/></svg>