<svg xmlns="http://www.w3.org/2000/svg" viewBox="0 0 56.07 77.88"><title>Asset 1</title><g id="Layer_2" data-name="Layer 2"><g id="Layer_1-2" data-name="Layer 1"><path d="M0,55.36l11-3.29a16.23,16.23,0,0,0,5.22,11.38,17,17,0,0,0,11.9,4.34,16.74,16.74,0,0,0,11.62-4.22,14.29,14.29,0,0,0,4.69-11.14q0-7.5-4.69-11.61A17.2,17.2,0,0,0,28,36.71q-8.56,0-13.84,5.51-1.65-.59-5.39-2.11c-2.51-1-4.46-1.8-5.87-2.35L12.78,0H52.9V10.56H20.41L14.78,32.37q5-5.63,15.48-5.63,11.38,0,18.59,6.8T56.07,52a24.63,24.63,0,0,1-7.74,18.47q-7.75,7.45-20.18,7.45-11.73,0-19.53-6.57A22.87,22.87,0,0,1,0,55.36Z"/></g></g></svg>