<svg xmlns="http://www.w3.org/2000/svg" width="16" height="16" viewBox="0 0 16 16">
  <path fill="#FFF" fill-rule="evenodd" stroke="#000" stroke-width=".75" d="M13.3259046,4.66562363 C13.9071876,5.40299835 14.4526164,6.1047469 14.9621909,6.77086927 C15.158207,7.01036266 15.4545984,7.56498755 15.0771151,8.05031773 C14.8637298,8.32466711 14.5499819,8.07535394 14.337224,7.82026383 C13.8891151,7.23260687 13.2103456,6.45816589 13.2873737,7.00624947 C13.3573954,7.50447969 13.5564576,8.92088074 13.8845603,11.2554526 C13.8893379,11.75755 13.7181002,12.0330004 13.3708471,12.0818036 C13.023594,12.1306069 12.7830654,11.9130265 12.6492611,11.4290626 C12.2831681,8.99857197 12.1150716,7.89833938 12.1449716,8.12836481 C12.1748716,8.35839023 12.3726274,9.66965968 12.738239,12.0621731 C12.7388675,12.5795198 12.5604328,12.8682503 12.2029348,12.9283646 C11.8454369,12.988479 11.5943295,12.7601167 11.4496127,12.2432778 C11.1040264,9.80324776 10.9194786,8.49012205 10.8959694,8.30390062 C10.8724601,8.1176792 11.0265905,9.21437414 11.3583606,11.5939854 C11.398592,12.0423976 11.2463278,12.2901177 10.9015682,12.3371455 C10.5568086,12.3841734 10.3413724,12.1824006 10.2552595,11.7318273 C9.90254451,9.29499535 9.73200027,8.08151003 9.74362679,8.09137131 C9.75443755,8.08168814 9.78759023,8.29248236 9.84308483,8.72375396 C9.85818222,8.84108204 9.88454883,9.0537896 9.92218467,9.36187664 C9.93786704,9.81877477 9.78336686,10.0725387 9.45868414,10.1231684 C9.13400142,10.1737981 8.91632915,9.97806925 8.80566734,9.53598183 L8.63908254,8.35066939 L8.32723352,6.13174832 C8.32723352,6.13174832 7.92721518,4.426202 10.9919829,4.05485221 C11.8948789,3.94545069 12.596827,3.93336244 13.3259046,4.66562363 Z M2.58798307,4.68449576 C3.31835574,3.94301992 4.02043817,3.95415258 4.92336129,4.063361 C5.29131112,4.10786447 5.60928208,4.17188755 5.88397126,4.25010198 C7.8973218,4.82337921 7.58546948,6.15905001 7.58546948,6.15905001 L7.27010993,8.40294985 L7.10164985,9.60160556 C6.99027804,10.0487449 6.77225465,10.2469722 6.44757968,10.1962873 C6.12290471,10.1456024 5.96876455,9.88927683 5.98515919,9.42731061 C6.02328122,9.11576417 6.04998358,8.9006676 6.06526629,8.7820209 C6.12144208,8.34590233 6.15492903,8.1327297 6.16572712,8.14250299 C6.17737148,8.13251481 6.00490739,9.35966054 5.64833487,11.8239402 C5.56150421,12.2796211 5.34570797,12.4839555 5.00094614,12.4369433 C4.65618431,12.3899312 4.50427129,12.1397128 4.54520709,11.6862881 C4.88074139,9.27989324 5.03660689,8.17085262 5.01280358,8.35916624 C4.98900026,8.54747986 4.80237499,9.87538765 4.45292777,12.3428896 C4.30737759,12.8656585 4.05586117,13.0969313 3.6983785,13.036708 C3.34089584,12.9764847 3.16287016,12.6848437 3.16430147,12.161785 C3.53370468,9.74229304 3.73353797,8.41624152 3.76380135,8.18363042 C3.79406473,7.95101933 3.62422461,9.06365832 3.25428099,11.5215474 C3.11969672,12.0110615 2.87877804,12.2314169 2.53152496,12.1826136 C2.18427187,12.1338104 2.01342416,11.855585 2.01898181,11.3479374 C2.350778,8.98708489 2.55208106,7.55473918 2.622891,7.05090029 C2.70078624,6.49664684 2.02066725,7.28069005 1.57154896,7.87552944 C1.35834888,8.13376562 1.04414575,8.38631775 0.831139609,8.10927085 C0.454326985,7.61916869 0.751643422,7.05796139 0.948073834,6.81552009 C1.4587929,6.14125373 2.00542931,5.43091229 2.58798307,4.68449576 Z"/>
</svg>
