<svg xmlns="http://www.w3.org/2000/svg" viewBox="0 0 12.34 12.34"><title>globe_1</title><g id="Layer_2" data-name="Layer 2"><g id="Layer_1-2" data-name="Layer 1"><circle cx="6.17" cy="6.17" r="5.67" fill="#fff" stroke="#000" stroke-miterlimit="10"/><path d="M3.2,5.12a1.57,1.57,0,0,0-.08,2.13A3.46,3.46,0,0,0,4.71,8.43c.39.12.44-.21,1.64-.12A2.47,2.47,0,0,1,8.61,10c.31.91-.19,1.18-.19,1.18l-4.95-.36A10.79,10.79,0,0,1,2.25,7.55C2.21,6.41,2,4.82.69,4.73.23,4.7,2,2.94,2,2.94L4.71.85l2.74,0A21.09,21.09,0,0,1,7,3.23a3.19,3.19,0,0,0-.31,1.45c0,.72.64,1.15.1,1.05C5.26,4.84,3.8,4.59,3.2,5.12Z" stroke="#000" stroke-linejoin="round" stroke-width="0.75"/><path d="M11.16,4.1a6,6,0,0,1-1.29.34c-.41,0-1,0-1,.63A2,2,0,0,0,10,6.84a4.58,4.58,0,0,1,1.4,1.46Z" stroke="#000" stroke-linejoin="round" stroke-width="0.75"/></g></g></svg>