<svg xmlns="http://www.w3.org/2000/svg" width="16" height="16" viewBox="0 0 16 16">
  <path fill="#FFF" fill-rule="evenodd" stroke="#000" stroke-width=".75" d="M11.1477183,10.7444179 C11.3478402,10.4148777 11.7110559,7.4791148 9.98562097,7.4791148 C9.98562097,7.89917076 9.97364669,9.29638458 9.97364669,8.60666796 C9.97364669,7.97968756 9.97763812,7.29646151 9.98562097,6.55698981 C9.90453119,5.93655257 9.64574702,5.62633395 9.20926846,5.62633395 C8.7727899,5.62633395 8.52486257,5.85153794 8.46548648,6.3019459 C8.46847921,7.1522328 8.46847921,7.43285307 8.46548648,7.1438067 C8.46249375,6.85476034 8.46249375,6.38064905 8.46548648,5.72147284 C8.37664088,5.25296633 8.10668515,5.01262229 7.65561929,5.00044072 C7.20455344,4.98825915 6.90675017,5.22860319 6.7622095,5.72147284 C6.75892777,6.44995454 6.75892777,6.93113643 6.7622095,7.16501852 C6.76437452,7.31931512 6.76437452,7.03162425 6.7622095,6.3019459 C6.73115682,5.67977669 6.4990817,5.36957131 6.06598414,5.37132975 C5.63288657,5.3730882 5.40229299,5.65944773 5.3742034,6.23040835 C5.39970177,7.23861342 5.41418257,7.78920616 5.41764582,7.88218656 C5.42284069,8.02165717 5.41268706,7.63611577 5.40638024,7.0942845 C5.40567236,7.03346875 5.40567236,7.14206139 5.40638024,7.42006242 C5.34656155,6.85351174 5.11216485,6.56715221 4.70319012,6.56098382 C4.2942154,6.55481544 4.05981869,6.83410436 4,7.39885061 L4.01126557,7.75376673 L4.01126557,10.5460904 C4.01126557,10.5460904 3.81365575,12.7201802 7.65561929,12.6469088 C8.78748108,12.6253226 10.2154896,12.3930878 11.1477183,10.7444179 Z"/>
</svg>
