<svg xmlns="http://www.w3.org/2000/svg" width="149" height="156" viewBox="0 0 149 156">
  <g fill="none" fill-rule="evenodd">
    <path fill="#3FDED3" d="M115.66,125.468 C115.139997,125.259999 114.906,125.052001 114.958,124.844 C115.01,124.635999 115.295997,124.687998 115.816,125 L115.816,125.312 C115.816,125.416001 115.764001,125.468 115.66,125.468 Z M136.564,107.216 C136.355999,107.320001 136.122001,107.164002 135.862,106.748 C135.601999,106.331998 135.835996,106.279998 136.564,106.592 C136.772001,106.592 136.772001,106.799998 136.564,107.216 Z M142.96,87.56 C142.751999,87.6640005 142.674,87.5340018 142.726,87.17 C142.778,86.8059982 142.907999,86.5720005 143.116,86.468 C143.220001,86.676001 143.323999,86.8579992 143.428,87.014 C143.532001,87.1700008 143.376002,87.351999 142.96,87.56 Z M107.08,101.132 C106.975999,101.340001 106.924,101.495999 106.924,101.6 C106.924,101.704001 106.872001,101.807999 106.768,101.912 C106.768,101.807999 106.871999,101.548002 107.08,101.132 Z M115.504,127.652 C115.608001,127.860001 115.556001,128.067999 115.348,128.276 C114.827997,128.171999 114.516001,127.964002 114.412,127.652 C114.307999,127.339998 114.307999,127.080001 114.412,126.872 C115.140004,126.559998 115.504,126.767996 115.504,127.496 L115.504,127.652 Z M119.872,138.884 C119.455998,138.779999 119.274,138.702 119.326,138.65 C119.378,138.598 119.559998,138.675999 119.872,138.884 Z M107.86,136.544 C107.86,136.752001 107.756001,136.959999 107.548,137.168 C107.235998,137.168 107.106,137.116001 107.158,137.012 C107.21,136.907999 107.184001,136.752001 107.08,136.544 C106.663998,135.607995 106.871996,134.724004 107.704,133.892 C107.912001,133.787999 108.145999,133.813999 108.406,133.97 C108.666001,134.126001 108.692001,134.255999 108.484,134.36 C108.275999,134.568001 108.301999,134.775999 108.562,134.984 C108.822001,135.192001 109.003999,135.399999 109.108,135.608 L109.108,135.764 C109.316001,136.180002 109.186002,136.336001 108.718,136.232 C108.249998,136.127999 107.964001,136.231998 107.86,136.544 Z M105.988,103.784 C106.196001,103.575999 106.274,103.342001 106.222,103.082 C106.17,102.821999 106.247999,102.588001 106.456,102.38 C106.560001,102.275999 106.612,102.198 106.612,102.146 C106.612,102.094 106.663999,102.016001 106.768,101.912 L106.768,102.38 C106.768,102.692002 106.690001,102.951999 106.534,103.16 C106.377999,103.368001 106.3,103.575999 106.3,103.784 C106.3,103.992001 106.248001,104.251998 106.144,104.564 C106.039999,104.876002 105.884001,105.032 105.676,105.032 L105.676,104.486 C105.676,104.225999 105.779999,103.992001 105.988,103.784 Z M117.064,128.432 C117.272001,128.744002 117.246001,128.874 116.986,128.822 C116.725999,128.77 116.751998,128.640001 117.064,128.432 Z M124.708,127.34 C124.916001,127.756002 125.123999,127.886001 125.332,127.73 C125.540001,127.573999 125.644,127.392001 125.644,127.184 C125.644,126.975999 125.488002,126.872 125.176,126.872 C124.863998,126.872 124.708,127.027998 124.708,127.34 Z M123.928,130.148 C124.344002,130.148 124.603999,130.199999 124.708,130.304 C124.708,130.720002 124.448003,130.668003 123.928,130.148 Z M123.616,126.404 C123.928002,125.987998 124.084,125.520003 124.084,125 L123.928,124.844 C123.303997,124.323997 122.914001,124.349997 122.758,124.922 C122.601999,125.494003 122.472001,125.987998 122.368,126.404 C122.368,126.716002 122.575998,126.872 122.992,126.872 C123.304002,126.663999 123.511999,126.508001 123.616,126.404 Z M118.936,122.504 C119.040001,122.608001 119.195999,122.608001 119.404,122.504 C119.612001,122.399999 119.612001,122.244001 119.404,122.036 C119.299999,121.723998 118.988003,121.671999 118.468,121.88 C118.363999,121.984001 118.260001,122.062 118.156,122.114 C118.051999,122.166 117.948001,122.243999 117.844,122.348 C117.948001,122.348 118.311997,122.399999 118.936,122.504 Z M118.468,124.376 C118.676001,124.480001 118.883999,124.480001 119.092,124.376 C119.508002,124.376 119.560002,124.116003 119.248,123.596 C119.143999,123.596 118.936002,123.622 118.624,123.674 C118.311998,123.726 118.259999,123.959998 118.468,124.376 Z M110.824,130.928 C110.615999,131.136001 110.693998,131.317999 111.058,131.474 C111.422002,131.630001 111.500001,131.500002 111.292,131.084 C111.187999,130.979999 111.032001,130.928 110.824,130.928 Z M101.308,126.404 C102.660007,125.883997 103.855995,125.312003 104.896,124.688 C105.936005,124.063997 107.027994,123.388004 108.172,122.66 C108.796003,122.243998 109.315998,121.932001 109.732,121.724 L109.732,121.256 C109.940001,121.047999 110.018,120.814001 109.966,120.554 C109.914,120.293999 109.939999,120.060001 110.044,119.852 C110.148001,119.539998 110.096001,119.384 109.888,119.384 C109.679999,119.384 109.472001,119.539998 109.264,119.852 C109.055999,120.060001 108.874001,120.034001 108.718,119.774 C108.561999,119.513999 108.484,119.228002 108.484,118.916 C108.484,118.291997 108.535999,117.824002 108.64,117.512 C108.64,117.303999 108.666,117.044002 108.718,116.732 C108.77,116.419998 108.796,116.212001 108.796,116.108 C108.796,115.899999 108.847999,115.588002 108.952,115.172 C109.056001,114.755998 109.108,114.340002 109.108,113.924 C108.587997,114.236002 108.120002,114.547998 107.704,114.86 C107.287998,115.172002 107.028001,115.379999 106.924,115.484 L106.768,115.64 L106.768,117.668 C106.768,117.980002 106.716001,118.187999 106.612,118.292 C106.507999,118.500001 106.404001,118.448002 106.3,118.136 C106.195999,117.823998 106.195999,117.512002 106.3,117.2 C106.3,116.991999 106.351999,116.784001 106.456,116.576 L106.768,115.952 L106.768,115.64 C106.143997,116.264003 105.208006,116.809998 103.96,117.278 C102.711994,117.746002 101.516006,118.343996 100.372,119.072 C99.2279943,119.592003 98.1620049,120.189997 97.174,120.866 C96.1859951,121.542003 95.1200057,122.295996 93.976,123.128 C93.3519969,123.544002 92.7280031,123.855999 92.104,124.064 L90.232,124.688 C89.9199984,124.792001 89.4780029,124.999998 88.906,125.312 C88.3339971,125.624002 87.944001,126.039997 87.736,126.56 C87.4239984,127.080003 87.1120016,127.288001 86.8,127.184 C86.4879984,127.079999 85.9680036,127.028 85.24,127.028 C84.7199974,127.340002 84.2260023,127.677998 83.758,128.042 C83.2899977,128.406002 82.7960026,128.691999 82.276,128.9 C81.7559974,129.108001 81.2880021,129.471997 80.872,129.992 C80.4559979,130.512003 80.4559979,130.823999 80.872,130.928 C81.3920026,130.719999 82.0679958,130.512001 82.9,130.304 C83.7320042,130.095999 84.044001,130.095999 83.836,130.304 C81.6519891,131.760007 79.364012,132.799997 76.972,133.424 C76.2439964,133.736002 75.7500013,133.969999 75.49,134.126 C75.2299987,134.282001 74.7360036,134.411999 74.008,134.516 C73.4879974,134.411999 73.2020003,134.282001 73.15,134.126 C73.0979997,133.969999 73.1239995,133.684002 73.228,133.268 C73.228,133.163999 73.0200021,133.086 72.604,133.034 C72.1879979,132.982 71.7200026,133.111998 71.2,133.424 C70.991999,133.632001 70.991999,133.813999 71.2,133.97 C71.408001,134.126001 71.6679984,134.255999 71.98,134.36 C72.5000026,134.568001 72.3960036,134.905998 71.668,135.374 C70.9399964,135.842002 70.472001,136.127999 70.264,136.232 C69.6399969,136.440001 69.0160031,136.595999 68.392,136.7 C67.7679969,136.804001 67.0920036,136.959999 66.364,137.168 C65.8439974,137.376001 65.2200036,137.557999 64.492,137.714 C63.7639964,137.870001 63.296001,137.999999 63.088,138.104 C62.4639969,138.312001 61.7880036,138.442 61.06,138.494 C60.3319964,138.546 59.864001,138.831997 59.656,139.352 C59.5519995,139.560001 59.8379966,139.638 60.514,139.586 C61.1900034,139.534 62.0479948,139.352002 63.088,139.04 C64.2320057,138.831999 65.401994,138.546002 66.598,138.182 C67.794006,137.817998 68.9639943,137.532001 70.108,137.324 C70.9400042,137.532001 71.6159974,137.480002 72.136,137.168 C72.6560026,136.855998 73.3319958,136.7 74.164,136.7 C74.6840026,136.179997 75.2299971,135.816001 75.802,135.608 C76.3740029,135.399999 76.8159984,135.140002 77.128,134.828 C77.336001,134.619999 77.7779966,134.412001 78.454,134.204 C79.1300034,133.995999 79.7799969,133.995999 80.404,134.204 C80.7160016,134.204 80.768001,134.385998 80.56,134.75 C80.351999,135.114002 80.5599969,135.399999 81.184,135.608 C81.7040026,135.608 82.2759969,135.452002 82.9,135.14 C83.3160021,134.931999 83.5499997,134.802 83.602,134.75 C83.6540003,134.698 83.8879979,134.568001 84.304,134.36 C85.0320036,134.151999 85.6819971,133.918001 86.254,133.658 C86.8260029,133.397999 87.4239969,133.060002 88.048,132.644 C88.6720031,132.123997 89.1399984,131.838 89.452,131.786 C89.7640016,131.734 90.2839964,131.604001 91.012,131.396 C91.8440042,131.083998 92.3899987,130.798001 92.65,130.538 C92.9100013,130.277999 93.4559958,129.992002 94.288,129.68 C94.8080026,129.471999 95.4579961,129.186002 96.238,128.822 C97.0180039,128.457998 97.4599995,128.224001 97.564,128.12 C98.1880031,127.911999 98.8119969,127.626002 99.436,127.262 C100.060003,126.897998 100.683997,126.612001 101.308,126.404 Z M102.556,127.652 C103.492005,127.443999 103.882001,127.132002 103.726,126.716 C103.569999,126.299998 103.076004,126.455996 102.244,127.184 C102.139999,127.496002 102.243998,127.652 102.556,127.652 Z M77.44,137.012 C78.2720042,136.595998 78.5580013,136.284001 78.298,136.076 C78.0379987,135.867999 77.5440036,135.971998 76.816,136.388 L76.27,136.934 C76.1139992,137.090001 75.8280021,137.271999 75.412,137.48 C74.4759953,137.167998 73.9560005,137.141999 73.852,137.402 C73.7479995,137.662001 73.2800042,137.947998 72.448,138.26 C71.9279974,138.155999 71.6160005,138.000001 71.512,137.792 C71.4079995,137.583999 71.1480021,137.583999 70.732,137.792 L70.264,138.26 C69.7439974,139.092004 69.6919979,139.508 70.108,139.508 C71.5640073,139.299999 72.8379945,138.962002 73.93,138.494 C75.0220055,138.025998 76.1919938,137.532003 77.44,137.012 Z M69.484,146.84 C70.5240052,146.527998 70.8880016,146.268001 70.576,146.06 C70.2639984,145.851999 69.6400047,145.851999 68.704,146.06 C68.3919984,146.268001 68.2100003,146.475999 68.158,146.684 C68.1059997,146.892001 68.5479953,146.944001 69.484,146.84 Z M65.584,140.912 C66.4160042,140.807999 67.0659977,140.626001 67.534,140.366 C68.0020023,140.105999 68.4439979,139.872001 68.86,139.664 C68.4439979,139.768001 67.8460039,139.871999 67.066,139.976 C66.2859961,140.080001 65.5840031,140.235999 64.96,140.444 C64.96,140.548001 65.0119995,140.651999 65.116,140.756 C65.2200005,140.860001 65.375999,140.912 65.584,140.912 Z M59.812,141.692 C60.8520052,141.692 61.1380023,141.666 60.67,141.614 C60.2019977,141.562 59.5520042,141.536 58.72,141.536 C58.4079984,141.640001 58.4079984,141.718 58.72,141.77 C59.0320016,141.822 59.3959979,141.796001 59.812,141.692 Z M66.52,134.828 C66.4159995,135.036001 66.4159995,135.191999 66.52,135.296 C66.6240005,135.400001 67.1439953,135.452 68.08,135.452 C68.8080036,135.452 69.3539982,135.218002 69.718,134.75 C70.0820018,134.281998 70.367999,133.996001 70.576,133.892 C70.2639984,133.996001 69.7180039,134.099999 68.938,134.204 C68.1579961,134.308001 67.5080026,134.463999 66.988,134.672 C66.8839995,134.672 66.728001,134.723999 66.52,134.828 Z M69.952,128.588 C69.743999,128.692001 69.6140003,128.821999 69.562,128.978 C69.5099997,129.134001 69.5359995,129.212 69.64,129.212 C70.4720042,129.107999 70.9139997,128.874002 70.966,128.51 C71.0180003,128.145998 70.6800036,128.171998 69.952,128.588 Z M77.908,131.708 C78.0120005,131.708 77.7520031,131.552002 77.128,131.24 C76.5039969,130.927998 75.9320026,131.135996 75.412,131.864 C75.3079995,132.072001 75.5419971,132.253999 76.114,132.41 C76.6860029,132.566001 77.2839969,132.332003 77.908,131.708 Z M72.76,126.872 C72.4479984,127.392003 72.4739982,127.703999 72.838,127.808 C73.2020018,127.912001 73.6959969,127.886001 74.32,127.73 C74.9440031,127.573999 75.6199964,127.366001 76.348,127.106 C77.0760036,126.845999 77.6999974,126.612001 78.22,126.404 C78.5320016,126.195999 78.688,125.962001 78.688,125.702 C78.688,125.441999 78.584001,125.312 78.376,125.312 C77.8559974,125.312 77.5700003,125.286 77.518,125.234 C77.4659997,125.182 77.2320021,125.207999 76.816,125.312 C75.6719943,125.520001 74.4760062,125.883997 73.228,126.404 L72.76,126.872 Z M75.88,122.816 C75.4639979,123.128002 75.4379982,123.387999 75.802,123.596 C76.1660018,123.804001 76.7639958,123.700002 77.596,123.284 C78.2200031,122.763997 78.2200031,122.504 77.596,122.504 C76.9719969,122.504 76.4000026,122.607999 75.88,122.816 Z M82.12,122.348 C81.5999974,122.348 81.1580018,122.529998 80.794,122.894 C80.4299982,123.258002 80.2999995,123.699997 80.404,124.22 C80.612001,124.636002 81.0279969,124.792001 81.652,124.688 C82.2760031,124.583999 82.8479974,124.272003 83.368,123.752 C84.4080052,123.127997 85.3439958,122.582002 86.176,122.114 C87.0080042,121.645998 87.527999,121.308001 87.736,121.1 C87.944001,120.891999 88.1259992,120.839999 88.282,120.944 C88.4380008,121.048001 88.619999,121.151999 88.828,121.256 C89.7640047,120.839998 90.9079932,120.268004 92.26,119.54 C93.4040057,119.019997 94.573994,118.552002 95.77,118.136 C96.966006,117.719998 98.2399932,117.096004 99.592,116.264 C100.112003,116.055999 100.735996,115.770002 101.464,115.406 L102.868,114.704 C103.388003,114.495999 104.141995,114.002004 105.13,113.222 C106.118005,112.441996 107.183994,111.792003 108.328,111.272 C108.223999,111.167999 108.120001,111.116 108.016,111.116 C107.807999,110.907999 107.755999,110.778 107.86,110.726 C107.964001,110.674 107.964001,110.544001 107.86,110.336 C107.755999,110.231999 107.704,110.128001 107.704,110.024 C107.599999,109.919999 107.548,109.816001 107.548,109.712 C107.235998,109.295998 107.287998,108.984001 107.704,108.776 C107.808001,108.567999 107.808001,108.412001 107.704,108.308 C107.599999,108.203999 107.548,108.048001 107.548,107.84 C107.652001,107.735999 107.807999,107.632001 108.016,107.528 C108.224001,107.215998 108.328,106.800003 108.328,106.28 C107.807997,106.592002 107.314002,106.877999 106.846,107.138 C106.377998,107.398001 105.884003,107.683998 105.364,107.996 C105.364,108.204001 105.260001,108.411999 105.052,108.62 C105.052,108.515999 105.026,108.438 104.974,108.386 C104.922,108.334 104.896,108.256001 104.896,108.152 C104.583998,108.464002 104.220002,108.671999 103.804,108.776 C103.283997,109.192002 102.738003,109.529999 102.166,109.79 C101.593997,110.050001 101.048003,110.439997 100.528,110.96 C100.007997,111.480003 99.5660018,111.843999 99.202,112.052 C98.8379982,112.260001 98.2920036,112.467999 97.564,112.676 C97.0439974,112.884001 96.5500023,113.247997 96.082,113.768 C95.6139977,114.288003 95.3280005,114.599999 95.224,114.704 L94.054,115.874 C93.6899982,116.238002 93.1960031,116.471999 92.572,116.576 C92.363999,116.576 91.8960036,116.783998 91.168,117.2 C90.4399964,117.616002 89.9200016,117.875999 89.608,117.98 C88.7759958,118.084001 87.762006,118.447997 86.566,119.072 C85.369994,119.696003 84.7200005,120.579994 84.616,121.724 C84.616,122.244003 84.3040031,122.504 83.68,122.504 C83.0559969,122.504 82.5360021,122.452001 82.12,122.348 Z M83.836,119.696 C84.5640036,119.383998 84.824001,119.643996 84.616,120.476 C83.9919969,120.267999 83.7319995,120.008002 83.836,119.696 Z M110.512,89.432 C110.720001,89.223999 110.927999,89.0680005 111.136,88.964 C111.344001,88.8599995 111.396001,88.6520016 111.292,88.34 L111.292,88.184 C110.979998,87.8719984 110.772001,87.5080021 110.668,87.092 C110.563999,87.1960005 110.460001,87.351999 110.356,87.56 C110.147999,87.9760021 110.044,88.2359995 110.044,88.34 C110.148001,88.548001 110.2,88.755999 110.2,88.964 C110.2,89.3800021 110.303999,89.5360005 110.512,89.432 Z M119.716,49.184 C119.507999,49.2880005 119.43,49.4179992 119.482,49.574 C119.534,49.7300008 119.663999,49.808 119.872,49.808 C119.976001,49.599999 120.054,49.496 120.106,49.496 C120.158,49.496 120.235999,49.4440005 120.34,49.34 L120.34,49.34 C120.235999,49.4440005 120.028002,49.392001 119.716,49.184 Z M119.716,120.632 C119.611999,120.944002 119.404002,121.151999 119.092,121.256 C119.196001,121.360001 119.248,121.438 119.248,121.49 C119.248,121.542 119.299999,121.619999 119.404,121.724 C119.404,121.619999 119.455999,121.464001 119.56,121.256 C119.664001,121.047999 119.716,120.840001 119.716,120.632 Z M117.22,118.604 C117.22,119.332004 117.116001,119.851998 116.908,120.164 C117.324002,120.164 117.635999,120.215999 117.844,120.32 C117.844,120.111999 117.87,119.956001 117.922,119.852 C117.974,119.747999 118,119.592001 118,119.384 C118,119.175999 118.026,118.942001 118.078,118.682 C118.13,118.421999 118.156,118.240001 118.156,118.136 L118.156,117.98 C117.843998,118.084001 117.532002,118.291998 117.22,118.604 Z M115.66,120.632 L116.128,120.164 L115.972,120.164 C115.972,119.955999 115.868001,119.852 115.66,119.852 C115.451999,119.852 115.244001,119.955999 115.036,120.164 C114.827999,120.580002 114.724,121.307995 114.724,122.348 C114.932001,122.139999 115.036,121.906001 115.036,121.646 C115.036,121.385999 115.139999,121.152001 115.348,120.944 L115.504,120.788 L115.504,120.632 L115.66,120.632 Z M109.732,117.044 C109.627999,117.356002 109.705999,117.512 109.966,117.512 C110.226001,117.512 110.356,117.356002 110.356,117.044 C110.356,116.939999 110.304001,116.862 110.2,116.81 C110.095999,116.758 109.940001,116.835999 109.732,117.044 Z M108.796,110.336 C108.796,110.544001 108.718001,110.622 108.562,110.57 C108.405999,110.518 108.483998,110.440001 108.796,110.336 Z M117.844,116.576 C117.531998,116.471999 117.376,116.783996 117.376,117.512 L117.688,117.2 C117.792001,117.2 117.87,117.174 117.922,117.122 C117.974,117.07 118.051999,117.044 118.156,117.044 C118.051999,116.939999 118,116.862 118,116.81 C118,116.758 117.948001,116.680001 117.844,116.576 Z M116.128,115.64 C116.128,115.535999 116.076001,115.51 115.972,115.562 C115.867999,115.614 115.816,115.743999 115.816,115.952 C115.607999,116.264002 115.555999,116.368001 115.66,116.264 C115.764001,116.159999 115.919999,115.952002 116.128,115.64 Z M108.796,107.996 C108.900001,108.724004 109.211997,109.010001 109.732,108.854 C110.252003,108.697999 110.408001,108.256004 110.2,107.528 L109.888,107.06 C109.471998,106.851999 109.212001,106.903998 109.108,107.216 C109.003999,107.528002 108.900001,107.787999 108.796,107.996 Z M115.192,118.604 L115.816,118.292 L115.816,117.98 C115.816,117.875999 115.738001,117.824 115.582,117.824 C115.425999,117.824 115.348,117.875999 115.348,117.98 C115.243999,118.084001 115.192,118.291998 115.192,118.604 Z M123.616,123.284 L123.304,123.128 C123.199999,123.128 123.148,123.076001 123.148,122.972 C122.939999,123.284002 122.965999,123.517999 123.226,123.674 C123.486001,123.830001 123.616,123.700002 123.616,123.284 Z M49.984,151.676 C50.6080031,151.884001 50.92,151.910001 50.92,151.754 C50.92,151.597999 50.6080031,151.52 49.984,151.52 L49.984,151.676 Z M39.688,150.428 C41.6640099,150.844002 42.8859977,150.974001 43.354,150.818 C43.8220023,150.661999 43.7960026,150.428002 43.276,150.116 C42.5479964,149.699998 41.6640052,149.336002 40.624,149.024 C40.3119984,148.919999 39.9740018,148.816001 39.61,148.712 C39.2459982,148.607999 38.8560021,148.504001 38.44,148.4 C38.1279984,148.191999 37.7640021,148.062 37.348,148.01 C36.9319979,147.958 36.5160021,147.828001 36.1,147.62 C35.7879984,147.62 35.4240021,147.568001 35.008,147.464 L33.76,147.152 C33.551999,147.360001 33.6299982,147.619998 33.994,147.932 C34.3580018,148.244002 34.8519969,148.555998 35.476,148.868 C36.9320073,149.492003 38.3359932,150.011998 39.688,150.428 Z M59.656,69.308 C59.7600005,69.099999 59.8899992,68.892001 60.046,68.684 C60.2020008,68.475999 60.28,68.2160016 60.28,67.904 L59.89,67.514 C59.7339992,67.3579992 59.552001,67.383999 59.344,67.592 C59.135999,67.800001 59.0579997,68.007999 59.11,68.216 C59.1620003,68.424001 59.084001,68.631999 58.876,68.84 C58.667999,69.048001 58.564,69.3079984 58.564,69.62 L58.564,70.244 C58.6680005,70.244 58.823999,70.140001 59.032,69.932 L59.656,69.308 Z M60.28,62.912 C60.1759995,63.120001 60.020001,63.224 59.812,63.224 C59.9160005,63.224 60.071999,63.120001 60.28,62.912 Z M57.004,67.592 C57.1080005,67.0719974 57.3679979,66.6300018 57.784,66.266 C58.2000021,65.9019982 58.511999,65.4600026 58.72,64.94 C58.928001,64.5239979 58.8760016,64.2640005 58.564,64.16 L57.316,65.408 L57.316,65.72 C57.107999,65.928001 56.9260008,66.1619987 56.77,66.422 C56.6139992,66.6820013 56.432001,66.812 56.224,66.812 C55.8079979,66.812 55.5480005,66.9679984 55.444,67.28 C55.5480005,67.488001 55.6,67.7479984 55.6,68.06 C55.4959995,68.268001 55.2880016,68.3460003 54.976,68.294 C54.6639984,68.2419997 54.404001,68.319999 54.196,68.528 C53.987999,69.0480026 53.7540013,69.411999 53.494,69.62 C53.2339987,69.828001 53.104,70.1919974 53.104,70.712 C53.5200021,71.9600062 53.4160031,72.5320005 52.792,72.428 C52.3759979,72.1159984 51.9860018,72.063999 51.622,72.272 C51.2579982,72.480001 51.6479943,72.8439974 52.792,73.364 C53.2080021,73.8840026 53.6239979,73.7540039 54.04,72.974 C54.4560021,72.1939961 54.9239974,71.3360047 55.444,70.4 C55.652001,69.9839979 55.9119984,69.5680021 56.224,69.152 C56.5360016,68.7359979 56.795999,68.2680026 57.004,67.748 L57.004,67.592 Z M51.544,74.924 C51.752001,74.8199995 52.0119984,74.7939997 52.324,74.846 C52.6360016,74.8980003 52.8439995,74.820001 52.948,74.612 C52.8439995,74.612 52.792,74.5600005 52.792,74.456 C52.6879995,74.3519995 52.636,74.2740003 52.636,74.222 C52.636,74.1699997 52.5840005,74.0920005 52.48,73.988 C51.9599974,73.779999 51.6740003,73.8319984 51.622,74.144 C51.5699997,74.4560016 51.544,74.715999 51.544,74.924 Z M17.692,57.296 C17.900001,56.7759974 18.0819992,56.2560026 18.238,55.736 C18.3940008,55.2159974 18.8879958,54.3320062 19.72,53.084 L19.564,53.24 C19.564,53.3440005 19.460001,53.499999 19.252,53.708 C18.7319974,54.0200016 18.2640021,54.4879969 17.848,55.112 C17.3279974,55.6320026 16.8340023,56.1779971 16.366,56.75 C15.8979977,57.3220029 15.5080016,57.8679974 15.196,58.388 C14.7799979,59.2200042 14.572,59.6879995 14.572,59.792 C14.572,59.8960005 14.3120026,60.3119964 13.792,61.04 C13.3759979,61.6640031 13.0120016,62.2879969 12.7,62.912 C12.3879984,63.5360031 12.4919974,63.5880026 13.012,63.068 C14.0520052,61.9239943 14.8579971,61.0920026 15.43,60.572 C16.0020029,60.0519974 16.7039958,59.0640073 17.536,57.608 L17.692,57.296 Z M108.484,75.704 C108.692001,75.495999 108.744001,75.2360016 108.64,74.924 C108.535999,74.6119984 108.380001,74.559999 108.172,74.768 C108.067999,74.976001 107.756003,75.0540003 107.236,75.002 C106.715997,74.9499997 106.300002,75.027999 105.988,75.236 C105.779999,75.3400005 105.624001,75.5219987 105.52,75.782 C105.415999,76.0420013 105.312001,76.2239995 105.208,76.328 C105.208,76.6400016 105.156001,76.796 105.052,76.796 L105.832,76.796 C106.560004,76.6919995 107.339996,76.3800026 108.172,75.86 L108.484,75.704 Z M108.172,80.852 C107.963999,80.9560005 107.911999,80.9560005 108.016,80.852 C108.120001,80.7479995 108.172,80.7479995 108.172,80.852 Z M104.74,67.748 C104.948001,67.956001 105.078,67.9820008 105.13,67.826 C105.182,67.6699992 105.311999,67.695999 105.52,67.904 C105.728001,68.0080005 105.909999,67.9300013 106.066,67.67 C106.222001,67.4099987 106.351999,67.2280005 106.456,67.124 C106.456,66.915999 106.507999,66.7860003 106.612,66.734 C106.716001,66.6819997 106.664001,66.656 106.456,66.656 C106.351999,66.5519995 106.144002,66.5519995 105.832,66.656 C105.623999,66.864001 105.442001,66.8120016 105.286,66.5 C105.129999,66.1879984 104.948001,66.135999 104.74,66.344 C104.531999,66.552001 104.428,66.7079995 104.428,66.812 C104.428,66.9160005 104.324001,66.864001 104.116,66.656 C104.011999,66.5519995 103.830001,66.5259997 103.57,66.578 C103.309999,66.6300003 103.283999,66.9159974 103.492,67.436 C103.492,67.644001 103.388001,67.6180013 103.18,67.358 C102.971999,67.0979987 102.764001,67.071999 102.556,67.28 C102.347999,67.488001 102.036002,67.695999 101.62,67.904 C101.411999,67.904 101.334,68.1119979 101.386,68.528 C101.438,68.9440021 101.567999,69.2039995 101.776,69.308 C101.984001,69.099999 102.191999,68.996 102.4,68.996 C102.608001,68.996 102.815999,68.9440005 103.024,68.84 C103.024,68.7359995 103.075999,68.684 103.18,68.684 C103.388001,68.3719984 103.907996,68.0600016 104.74,67.748 Z M100.84,68.528 C100.631999,68.6320005 100.554,68.8399984 100.606,69.152 C100.658,69.4640016 100.787999,69.516001 100.996,69.308 C100.891999,69.308 100.84,69.2560005 100.84,69.152 L100.84,68.528 Z M104.116,61.508 C103.907999,61.508 103.881999,61.4820003 104.038,61.43 C104.194001,61.3779997 104.220001,61.4039995 104.116,61.508 Z M105.52,60.416 C105.311999,60.624001 105.311999,60.9099982 105.52,61.274 C105.728001,61.6380018 105.935999,61.716001 106.144,61.508 C106.039999,61.299999 105.962,61.0660013 105.91,60.806 C105.858,60.5459987 105.728001,60.416 105.52,60.416 Z M106.924,66.5 C106.715999,66.708001 106.715999,66.7860003 106.924,66.734 C107.132001,66.6819997 107.339999,66.6040005 107.548,66.5 C107.652001,66.3959995 107.444003,66.3959995 106.924,66.5 Z M95.224,77.108 L95.38,76.952 C95.4840005,76.8479995 95.536,76.7440005 95.536,76.64 C95.327999,76.64 95.1720005,76.7179992 95.068,76.874 C94.9639995,77.0300008 95.015999,77.108 95.224,77.108 Z M93.976,78.512 C93.767999,78.4079995 93.6380003,78.5119984 93.586,78.824 C93.5339997,79.1360016 93.6639984,79.188001 93.976,78.98 L93.976,78.512 Z M99.124,59.168 C99.0199995,59.0639995 98.9939997,58.9860003 99.046,58.934 C99.0980003,58.8819997 99.124,58.959999 99.124,59.168 Z M98.032,64.472 C98.240001,64.472 98.344,64.3160016 98.344,64.004 C98.135999,63.6919984 97.9800005,63.7179982 97.876,64.082 C97.7719995,64.4460018 97.823999,64.5760005 98.032,64.472 Z M91.324,68.216 C91.532001,68.007999 91.636,67.6960021 91.636,67.28 C91.636,66.6559969 91.532001,66.3959995 91.324,66.5 C91.115999,66.6040005 90.9600005,66.7079995 90.856,66.812 C90.7519995,67.2280021 90.7519995,67.539999 90.856,67.748 C90.9600005,67.956001 91.0639995,68.1119995 91.168,68.216 L91.324,68.216 Z M91.012,68.996 C90.803999,68.4759974 90.7,68.4759974 90.7,68.996 C90.7,69.5160026 90.803999,69.6200016 91.012,69.308 L91.012,68.996 Z M89.14,67.592 C89.0359995,67.6960005 89.0359995,67.9819977 89.14,68.45 C89.2440005,68.9180023 89.399999,68.8920026 89.608,68.372 C89.608,68.163999 89.5820003,67.9300013 89.53,67.67 C89.4779997,67.4099987 89.348001,67.383999 89.14,67.592 Z M148.108,68.216 C148.628003,69.3600057 148.862,69.932 148.81,69.932 C148.758,69.932 148.628001,70.035999 148.42,70.244 C148.211999,70.3480005 148.134,70.4 148.186,70.4 C148.238,70.4 148.160001,70.503999 147.952,70.712 L147.796,70.868 C147.796,70.9720005 147.744001,71.1019992 147.64,71.258 C147.535999,71.4140008 147.432001,71.595999 147.328,71.804 C147.328,72.012001 147.431999,72.219999 147.64,72.428 C147.848001,72.636001 147.900001,72.843999 147.796,73.052 C147.379998,73.4680021 147.223999,73.8579982 147.328,74.222 C147.432001,74.5860018 147.484,75.0279974 147.484,75.548 C147.484,75.756001 147.432001,75.9899987 147.328,76.25 C147.223999,76.5100013 147.223999,76.743999 147.328,76.952 C147.223999,76.952 147.172,77.0039995 147.172,77.108 C147.172,77.2120005 147.146,77.2899997 147.094,77.342 C147.042,77.3940003 147.016,77.523999 147.016,77.732 C147.120001,78.2520026 147.042001,78.7199979 146.782,79.136 C146.521999,79.5520021 146.340001,79.863999 146.236,80.072 L146.002,80.774 C145.95,80.9300008 145.872001,81.111999 145.768,81.32 C145.559999,82.0480036 145.196003,82.308001 144.676,82.1 C144.051997,81.9959995 143.714,82.0739987 143.662,82.334 C143.61,82.5940013 143.532001,82.827999 143.428,83.036 C143.219999,83.4520021 143.116,83.8159984 143.116,84.128 C143.116,84.4400016 143.038001,84.6479995 142.882,84.752 C142.725999,84.8560005 142.596001,85.011999 142.492,85.22 C142.387999,85.428001 142.336,85.6619987 142.336,85.922 C142.336,86.1820013 142.232001,86.415999 142.024,86.624 C141.919999,86.7280005 141.868,86.9359984 141.868,87.248 L141.868,87.716 C141.659999,87.924001 141.607999,88.1579987 141.712,88.418 C141.816001,88.6780013 141.764001,88.911999 141.556,89.12 C141.035997,89.328001 140.75,89.6919974 140.698,90.212 C140.646,90.7320026 140.516001,91.1999979 140.308,91.616 C140.308,91.9280016 140.334,92.1359995 140.386,92.24 C140.438,92.3440005 140.360001,92.499999 140.152,92.708 C139.943999,93.1240021 139.84,93.3839995 139.84,93.488 L139.84,93.956 C139.944001,94.4760026 139.866001,94.9699977 139.606,95.438 C139.345999,95.9060023 139.216,96.3999974 139.216,96.92 C139.111999,97.8560047 138.956001,98.7659956 138.748,99.65 C138.539999,100.534004 138.332001,101.391996 138.124,102.224 C138.019999,103.056004 137.708003,103.887996 137.188,104.72 C136.667997,104.824001 136.434,104.746001 136.486,104.486 C136.538,104.225999 136.667999,103.992001 136.876,103.784 C136.876,103.263997 136.824001,102.796002 136.72,102.38 C136.72,102.067998 136.590001,101.938 136.33,101.99 C136.069999,102.042 135.888001,102.223998 135.784,102.536 C135.784,102.848002 135.680001,103.315997 135.472,103.94 L134.536,106.28 C135.056003,106.071999 135.160002,106.279997 134.848,106.904 C134.743999,107.008001 134.666,107.06 134.614,107.06 C134.562,107.06 134.484001,107.111999 134.38,107.216 C134.171999,108.152005 133.912002,109.009996 133.6,109.79 C133.287998,110.570004 132.976002,111.375996 132.664,112.208 L130.792,117.824 C130.687999,118.240002 130.506001,118.733997 130.246,119.306 C129.985999,119.878003 129.804001,120.215999 129.7,120.32 C129.179997,120.944003 128.764002,121.775995 128.452,122.816 C128.243999,123.232002 128.217999,123.673998 128.374,124.142 C128.530001,124.610002 128.504001,125.103997 128.296,125.624 C127.879998,126.040002 127.620001,126.403998 127.516,126.716 C127.516,127.028002 127.49,127.235999 127.438,127.34 C127.386,127.444001 127.308001,127.651998 127.204,127.964 C126.891998,129.004005 126.684001,129.965996 126.58,130.85 C126.475999,131.734004 126.268002,132.643995 125.956,133.58 C125.747999,134.100003 125.618,134.567998 125.566,134.984 C125.514,135.400002 125.384001,135.867997 125.176,136.388 C124.967999,136.908003 124.786001,137.297999 124.63,137.558 C124.473999,137.818001 124.344001,138.207997 124.24,138.728 C124.031999,139.248003 123.902,139.637999 123.85,139.898 C123.798,140.158001 123.668001,140.547997 123.46,141.068 C123.147998,142.004005 122.784002,142.887996 122.368,143.72 C122.159999,144.656005 121.926001,145.617995 121.666,146.606 C121.405999,147.594005 121.016003,148.503996 120.496,149.336 C120.183998,149.648002 119.950001,149.985998 119.794,150.35 C119.637999,150.714002 119.352002,150.740002 118.936,150.428 C118.831999,150.219999 118.883999,150.012001 119.092,149.804 C119.300001,149.283997 119.43,148.816002 119.482,148.4 C119.534,147.983998 119.663999,147.516003 119.872,146.996 C120.288002,145.331992 120.911996,143.46001 121.744,141.38 C121.952001,140.859997 122.133999,140.392002 122.29,139.976 C122.446001,139.559998 122.575999,139.144002 122.68,138.728 C122.784001,138.415998 122.887999,138.156001 122.992,137.948 C123.096001,137.739999 123.096001,137.480002 122.992,137.168 C122.887999,136.647997 122.991998,136.232002 123.304,135.92 C123.512001,135.711999 123.538001,135.478001 123.382,135.218 C123.225999,134.957999 123.148,134.776001 123.148,134.672 L122.836,134.048 C122.731999,133.839999 122.835998,133.632001 123.148,133.424 C123.252001,133.319999 123.304,133.138001 123.304,132.878 C123.304,132.617999 123.355999,132.436001 123.46,132.332 C123.772002,132.123999 123.979999,131.760003 124.084,131.24 C124.188001,130.719997 123.824004,130.200003 122.992,129.68 C122.575998,129.471999 122.523998,129.316001 122.836,129.212 C123.148002,129.107999 123.407999,129.004001 123.616,128.9 C123.824001,128.795999 123.876001,128.640001 123.772,128.432 C123.667999,128.223999 123.408002,128.016001 122.992,127.808 C122.159996,127.599999 121.847999,127.859996 122.056,128.588 L122.056,130.616 C122.056,130.720001 121.900002,130.772 121.588,130.772 C121.483999,130.980001 121.406,131.213999 121.354,131.474 C121.302,131.734001 121.224001,131.967999 121.12,132.176 C120.911999,132.696003 120.704001,133.137998 120.496,133.502 C120.287999,133.866002 120.080001,134.307997 119.872,134.828 C119.872,135.036001 119.794001,135.269999 119.638,135.53 C119.481999,135.790001 119.404,135.971999 119.404,136.076 C119.195999,136.284001 119.143999,136.673997 119.248,137.246 C119.352001,137.818003 119.196002,138.311998 118.78,138.728 C118.155997,138.936001 117.844,139.273998 117.844,139.742 C117.844,140.210002 117.740001,140.703997 117.532,141.224 C117.323999,141.744003 117.142001,142.211998 116.986,142.628 C116.829999,143.044002 116.648001,143.459998 116.44,143.876 C116.335999,143.980001 116.232001,143.876002 116.128,143.564 C116.023999,143.251998 115.972,142.992001 115.972,142.784 C115.555998,142.159997 115.451999,141.640002 115.66,141.224 C115.868001,140.807998 115.920001,140.340003 115.816,139.82 C115.711999,139.715999 115.763999,139.586001 115.972,139.43 C116.180001,139.273999 116.335999,139.092001 116.44,138.884 C116.231999,138.571998 116.179999,138.364001 116.284,138.26 L116.752,137.792 C116.752,137.583999 116.778,137.350001 116.83,137.09 C116.882,136.829999 116.908,136.648001 116.908,136.544 C116.699999,136.127998 116.777998,135.712002 117.142,135.296 C117.506002,134.879998 117.688,134.412003 117.688,133.892 C117.896001,132.851995 118,131.916004 118,131.084 C118,130.875999 118.051999,130.668001 118.156,130.46 L118.468,129.836 C118.884002,129.419998 118.832003,129.004002 118.312,128.588 C118.103999,128.275998 118.103999,128.12 118.312,128.12 C118.520001,128.12 118.727999,128.016001 118.936,127.808 C118.936,127.599999 118.91,127.366001 118.858,127.106 C118.806,126.845999 118.831999,126.612001 118.936,126.404 C118.936,126.195999 118.832001,125.936002 118.624,125.624 C118.415999,125.311998 118.208001,125.207999 118,125.312 C117.791999,125.520001 117.636001,125.779998 117.532,126.092 C117.427999,126.404002 117.324001,126.456001 117.22,126.248 C117.115999,125.415996 117.219998,124.480005 117.532,123.44 C117.636001,123.231999 117.636001,123.076001 117.532,122.972 C117.427999,122.867999 117.479999,122.712001 117.688,122.504 L116.44,123.128 C116.648001,123.544002 116.440003,123.855999 115.816,124.064 C115.711999,124.064 115.634,124.038 115.582,123.986 C115.53,123.934 115.400001,123.908 115.192,123.908 C114.983999,124.012001 114.802001,124.09 114.646,124.142 C114.489999,124.194 114.308001,124.271999 114.1,124.376 L114.1,124.844 C113.787998,125.260002 113.735999,125.727997 113.944,126.248 C113.944,126.560002 113.918,126.767999 113.866,126.872 C113.814,126.976001 113.684001,127.131999 113.476,127.34 C113.371999,127.652002 113.371999,127.885999 113.476,128.042 C113.580001,128.198001 113.528001,128.379999 113.32,128.588 C113.215999,128.796001 113.164,128.926 113.164,128.978 C113.164,129.03 113.112001,129.159999 113.008,129.368 C112.903999,129.576001 112.852,129.731999 112.852,129.836 C112.643999,130.460003 112.436001,130.927998 112.228,131.24 C111.811998,131.968004 111.604,132.851995 111.604,133.892 C111.604,134.308002 111.396002,134.723998 110.98,135.14 C110.563998,135.556002 110.459999,135.971998 110.668,136.388 C110.668,136.596001 110.616001,136.751999 110.512,136.856 L110.2,137.48 C110.095999,138.000003 109.966001,138.441998 109.81,138.806 C109.653999,139.170002 109.576,139.611997 109.576,140.132 C109.471999,140.652003 109.238002,141.093998 108.874,141.458 C108.509998,141.822002 108.431999,142.211998 108.64,142.628 C108.64,142.732001 108.536001,143.095997 108.328,143.72 C108.119999,144.344003 107.860002,144.396003 107.548,143.876 C107.443999,143.563998 107.469999,143.304001 107.626,143.096 C107.782001,142.887999 107.911999,142.680001 108.016,142.472 C108.328002,142.055998 108.458,141.614002 108.406,141.146 C108.354,140.677998 108.431999,140.184003 108.64,139.664 C108.848001,139.247998 108.900001,138.832002 108.796,138.416 C108.691999,137.999998 108.847998,137.636002 109.264,137.324 C109.576002,137.115999 109.680001,136.752003 109.576,136.232 C109.784001,136.023999 109.862,135.790001 109.81,135.53 C109.758,135.269999 109.783999,135.036001 109.888,134.828 C109.888,134.619999 109.914,134.386001 109.966,134.126 C110.018,133.865999 109.784003,133.684001 109.264,133.58 C108.535996,133.371999 108.223999,133.164001 108.328,132.956 L108.64,132.332 C108.744001,131.811997 108.744001,131.318002 108.64,130.85 C108.535999,130.381998 108.639998,129.940002 108.952,129.524 C109.264002,129.107998 109.316001,128.640003 109.108,128.12 C109.108,127.807998 109.211999,127.340003 109.42,126.716 C109.315999,126.611999 109.264,126.508001 109.264,126.404 C109.055999,126.404 108.848001,126.507999 108.64,126.716 C107.495994,127.444004 106.430005,128.223996 105.442,129.056 C104.453995,129.888004 103.232007,130.511998 101.776,130.928 L99.904,131.864 C99.2799969,132.176002 98.7080026,132.591997 98.188,133.112 C97.979999,133.216001 97.5120036,133.475998 96.784,133.892 C96.0559964,134.308002 95.4320026,134.671998 94.912,134.984 C93.7679943,135.920005 92.6760052,136.569998 91.636,136.934 C90.5959948,137.298002 89.5040057,137.895996 88.36,138.728 C87.0079932,139.352003 85.7600057,139.949997 84.616,140.522 C83.4719943,141.094003 82.2240068,141.587998 80.872,142.004 C80.1439964,142.212001 79.4420034,142.471998 78.766,142.784 C78.0899966,143.096002 77.3880036,143.355999 76.66,143.564 C75.8279958,143.876002 75.5419987,144.135999 75.802,144.344 C76.0620013,144.552001 76.6079958,144.552001 77.44,144.344 C78.3760047,144.239999 78.5580029,144.395998 77.986,144.812 C77.4139971,145.228002 76.8160031,145.591998 76.192,145.904 C75.3599958,146.112001 74.6320031,146.345999 74.008,146.606 C73.3839969,146.866001 72.6560042,147.099999 71.824,147.308 C71.1999969,147.516001 70.4460044,147.749999 69.562,148.01 C68.6779956,148.270001 68.0800016,148.451999 67.768,148.556 C67.559999,148.660001 67.0660039,148.763999 66.286,148.868 C65.5059961,148.972001 64.6480047,149.127999 63.712,149.336 L60.904,149.804 C60.4879979,149.908001 60.0980018,149.96 59.734,149.96 C59.3699982,149.96 59.084001,150.011999 58.876,150.116 C58.7719995,150.116 58.2260049,150.219999 57.238,150.428 C56.2499951,150.636001 55.5480021,150.791999 55.132,150.896 C53.7799932,150.791999 53.1559995,150.973998 53.26,151.442 C53.3640005,151.910002 53.3640005,152.195999 53.26,152.3 C52.7399974,152.612002 52.2980018,152.716001 51.934,152.612 C51.5699982,152.507999 51.2320016,152.559999 50.92,152.768 C50.8159995,152.768 50.6860008,152.794 50.53,152.846 C50.3739992,152.898 50.192001,152.924 49.984,152.924 C49.6719984,153.028001 49.412001,153.08 49.204,153.08 C48.2679953,153.288001 47.6440016,153.392 47.332,153.392 C47.0199984,153.392 46.3440052,153.132003 45.304,152.612 L43.588,152.612 C43.0679974,152.507999 42.3400047,152.456 41.404,152.456 C40.4679953,152.143998 39.9220008,151.936001 39.766,151.832 C39.6099992,151.727999 39.1160042,151.468002 38.284,151.052 C36.9319932,150.427997 35.5800068,149.856003 34.228,149.336 C32.8759932,148.815997 31.4720073,148.244003 30.016,147.62 C29.3919969,147.203998 28.7420034,146.814002 28.066,146.45 C27.3899966,146.085998 26.7920026,145.696002 26.272,145.28 L24.4,143.876 C24.0879984,143.667999 23.8020013,143.408002 23.542,143.096 C23.2819987,142.783998 22.9960016,142.524001 22.684,142.316 L19.564,139.196 C19.0439974,138.675997 18.5760021,138.130003 18.16,137.558 C17.7439979,136.985997 17.2760026,136.388003 16.756,135.764 C15.7159948,134.515994 14.9100029,133.580003 14.338,132.956 C13.7659971,132.331997 13.0640042,131.292007 12.232,129.836 C11.5039964,128.587994 10.8540029,127.340006 10.282,126.092 C9.70999714,124.843994 9.1640026,123.596006 8.644,122.348 C8.1239974,121.099994 7.65600208,119.852006 7.24,118.604 C6.82399792,117.355994 6.46000156,116.056007 6.148,114.704 C5.83599844,113.351993 5.5500013,112.052006 5.29,110.804 C5.0299987,109.555994 4.79600104,108.360006 4.588,107.216 C4.37999896,106.591997 4.25000026,105.968003 4.198,105.344 C4.14599974,104.719997 4.06800052,104.044004 3.964,103.316 C3.85999948,102.691997 3.78200026,102.042003 3.73,101.366 C3.67799974,100.689997 3.652,99.9880036 3.652,99.26 C3.75600052,97.8039927 3.808,96.4260065 3.808,95.126 C3.808,93.8259935 3.91199896,92.5520062 4.12,91.304 C4.22400052,90.1599943 4.35399922,88.9380065 4.51,87.638 C4.66600078,86.3379935 4.95199792,84.9600073 5.368,83.504 C5.47200052,83.0879979 5.57599948,82.7240016 5.68,82.412 C5.78400052,82.0999984 5.88799948,81.7360021 5.992,81.32 C6.09600052,81.0079984 6.19999948,80.6700018 6.304,80.306 C6.40800052,79.9419982 6.51199948,79.6040016 6.616,79.292 C7.1360026,77.9399932 7.55199844,76.6920057 7.864,75.548 L8.176,74.69 C8.38400104,74.1179971 8.64399844,73.4680036 8.956,72.74 C9.26800156,72.0119964 9.5539987,71.2840036 9.814,70.556 C10.0740013,69.8279964 10.307999,69.3080016 10.516,68.996 C10.516,68.787999 10.6459987,68.3980029 10.906,67.826 C11.1660013,67.2539971 11.3739992,66.7340023 11.53,66.266 C11.6860008,65.7979977 11.7120005,65.5120005 11.608,65.408 C11.5039995,65.3039995 11.1400031,65.6159964 10.516,66.344 C10.0999979,66.8640026 9.73600156,67.4359969 9.424,68.06 L8.488,69.932 C8.27999896,70.5560031 8.02000156,71.2059966 7.708,71.882 C7.39599844,72.5580034 7.13600104,73.2079969 6.928,73.832 C6.19999636,75.2880073 5.68000156,76.4839953 5.368,77.42 C5.15999896,77.9400026 4.97800078,78.4599974 4.822,78.98 C4.66599922,79.5000026 4.48400104,80.1759958 4.276,81.008 C3.85999792,82.4640073 3.5220013,83.8679932 3.262,85.22 C3.0019987,86.5720068 2.76800104,87.9759927 2.56,89.432 C2.24799844,92.240014 2.06600026,95.0739857 2.014,97.934 C1.96199974,100.794014 2.09199844,103.575986 2.404,106.28 C3.13200364,111.688027 4.48399012,116.991974 6.46,122.192 C6.66800104,122.504002 6.79799974,122.815998 6.85,123.128 C6.90200026,123.440002 7.03199896,123.751998 7.24,124.064 C7.34400052,124.688003 7.60399792,125.363996 8.02,126.092 L8.8,128.12 C8.90400052,128.432002 9.03399922,128.769998 9.19,129.134 C9.34600078,129.498002 9.52799896,129.835998 9.736,130.148 C9.736,130.356001 9.83999896,130.563999 10.048,130.772 C9.21599584,129.315993 8.43600364,127.912007 7.708,126.56 C6.97999636,125.207993 6.30400312,123.804007 5.68,122.348 C1.62397972,112.571951 0.16799428,101.912058 1.312,90.368 C1.41600052,89.9519979 1.468,89.5880016 1.468,89.276 C1.468,88.9639984 1.51999948,88.6000021 1.624,88.184 C1.72800052,87.7679979 1.80599974,87.4040016 1.858,87.092 C1.91000026,86.7799984 1.98799948,86.4160021 2.092,86 C2.30000104,85.2719964 2.48199922,84.5700034 2.638,83.894 C2.79400078,83.2179966 2.97599896,82.5160036 3.184,81.788 C4.01600416,78.8759854 4.87399558,76.1980122 5.758,73.754 C6.64200442,71.3099878 7.75999324,68.9440114 9.112,66.656 C9.94400416,65.1999927 10.4899987,64.1340034 10.75,63.458 C11.0100013,62.7819966 11.6079953,61.7160073 12.544,60.26 C12.9600021,59.6359969 13.3499982,59.0380029 13.714,58.466 C14.0780018,57.8939971 14.4679979,57.3480026 14.884,56.828 C15.3000021,56.3079974 15.6899982,55.7880026 16.054,55.268 C16.4180018,54.7479974 16.8599974,54.2280026 17.38,53.708 C18.5240057,52.5639943 19.2519984,51.6540034 19.564,50.978 C19.8760016,50.3019966 20.6039943,49.3920057 21.748,48.248 C25.1800172,44.6079818 28.6119828,41.2020159 32.044,38.03 C35.4760172,34.8579841 38.595986,31.8160146 41.404,28.904 C42.5480057,28.0719958 43.5099961,27.552001 44.29,27.344 C45.0700039,27.135999 46.0319943,26.6160042 47.176,25.784 C48.3200057,25.1599969 49.3599953,24.5360031 50.296,23.912 C51.2320047,23.2879969 52.2719943,22.6640031 53.416,22.04 C55.4960104,20.7919938 57.5239901,19.7000047 59.5,18.764 C61.4760099,17.8279953 63.3999906,16.8400052 65.272,15.8 L68.392,14.24 C69.4320052,13.7199974 70.5239943,13.2000026 71.668,12.68 L72.604,12.212 C73.4360042,11.5879969 74.3719948,11.0680021 75.412,10.652 C76.4520052,10.2359979 77.3879958,9.71600312 78.22,9.092 C78.7400026,8.77999844 79.3899961,8.4940013 80.17,8.234 C80.9500039,7.9739987 81.4959984,7.74000104 81.808,7.532 C82.3280026,7.32399896 82.8219977,7.0900013 83.29,6.83 C83.7580023,6.5699987 84.2519974,6.33600104 84.772,6.128 C85.3960031,5.91999896 85.811999,5.76400052 86.02,5.66 C86.228001,5.55599948 86.4879984,5.45200052 86.8,5.348 C87.1120016,5.24399948 87.371999,5.14000052 87.58,5.036 C88.5160047,4.61999792 89.5559943,4.25600156 90.7,3.944 C91.4280036,3.73599896 91.9219987,3.55400078 92.182,3.398 C92.4420013,3.24199922 92.8839969,3.06000104 93.508,2.852 C94.2360036,2.64399896 94.7559984,2.54 95.068,2.54 C95.3800016,2.54 95.8999964,2.43600104 96.628,2.228 C97.0440021,2.12399948 97.4859977,2.072 97.954,2.072 L98.968,2.072 C99.5920031,1.86399896 100.241997,1.73400026 100.918,1.682 C101.594003,1.62999974 102.139998,1.55200052 102.556,1.448 L103.102,1.448 C103.362001,1.448 103.647998,1.39600052 103.96,1.292 C104.168001,1.18799948 104.531997,1.136 105.052,1.136 C105.156001,1.03199948 105.363998,0.98 105.676,0.98 C106.092002,0.87599948 106.533998,0.77200052 107.002,0.668 C107.470002,0.56399948 107.755999,0.512 107.86,0.512 C108.900005,0.30399896 109.861996,0.2 110.746,0.2 C111.630004,0.2 112.539995,0.30399896 113.476,0.512 C113.476,0.61600052 113.709998,0.90199766 114.178,1.37 C114.646002,1.83800234 114.776001,2.3319974 114.568,2.852 C114.672001,2.852 114.724,2.90399948 114.724,3.008 C115.452004,3.21600104 115.867999,3.52799792 115.972,3.944 C116.596003,4.15200104 117.011999,4.256 117.22,4.256 C117.740003,4.46400104 118.285997,4.54200026 118.858,4.49 C119.430003,4.43799974 119.923998,4.56799844 120.34,4.88 C120.860003,5.4000026 121.275998,5.73799922 121.588,5.894 C121.900002,6.05000078 122.315997,6.33599792 122.836,6.752 C123.252002,6.85600052 123.823996,6.908 124.552,6.908 C125.280004,6.908 125.747999,6.95999948 125.956,7.064 C126.476003,7.27200104 126.995997,7.55799818 127.516,7.922 C128.036003,8.28600182 128.192001,8.62399844 127.984,8.936 C127.359997,9.4560026 127.099999,9.87199844 127.204,10.184 C127.308001,10.4960016 127.541998,10.8339982 127.906,11.198 C128.270002,11.5620018 128.607998,11.9259982 128.92,12.29 C129.232002,12.6540018 129.336001,13.1479969 129.232,13.772 C129.023999,14.6040042 128.842001,15.2539977 128.686,15.722 C128.529999,16.1900023 128.555999,16.527999 128.764,16.736 C130.220007,16.944001 130.688003,17.8799917 130.168,19.544 C130.168,19.752001 130.116001,20.0119984 130.012,20.324 L129.7,21.26 C129.491999,22.0920042 129.388,22.5599995 129.388,22.664 C129.388,23.4960042 129.310001,24.0419987 129.154,24.302 C128.997999,24.5620013 128.712002,25.0039969 128.296,25.628 C128.191999,25.7320005 127.958002,26.0699971 127.594,26.642 C127.229998,27.2140029 126.996001,27.6559984 126.892,27.968 C126.787999,28.2800016 126.554002,28.6439979 126.19,29.06 C125.825998,29.4760021 125.436002,29.9439974 125.02,30.464 C124.915999,30.5680005 124.760001,30.9319969 124.552,31.556 C124.343999,32.1800031 123.980003,32.595999 123.46,32.804 C123.147998,32.9080005 122.706003,33.0119995 122.134,33.116 C121.561997,33.2200005 120.964003,33.375999 120.34,33.584 C119.715997,33.8960016 119.300001,34.2339982 119.092,34.598 C118.883999,34.9620018 118.468003,35.247999 117.844,35.456 C116.595994,35.664001 115.582004,36.0279974 114.802,36.548 C114.021996,37.0680026 113.060006,37.5879974 111.916,38.108 C111.395997,38.4200016 110.772004,38.7319984 110.044,39.044 C109.315996,39.3560016 108.848001,39.615999 108.64,39.824 C108.431999,39.9280005 108.250001,39.98 108.094,39.98 C107.937999,39.98 107.444004,40.2399974 106.612,40.76 C105.467994,41.3840031 104.272006,41.9039979 103.024,42.32 C101.775994,42.7360021 100.840003,43.0999984 100.216,43.412 C99.5919969,43.7240016 99.0720021,43.9579992 98.656,44.114 C98.2399979,44.2700008 97.7200031,44.451999 97.096,44.66 C95.4319917,45.3880036 94.3920021,45.4920026 93.976,44.972 C93.4559974,44.4519974 92.8840031,44.3479984 92.26,44.66 C91.6359969,44.9720016 91.0120031,45.231999 90.388,45.44 C89.9719979,45.7520016 89.5560021,45.9599995 89.14,46.064 C88.931999,46.064 88.724001,46.167999 88.516,46.376 C88.0999979,46.584001 87.788001,46.791999 87.58,47 C86.5399948,47.6240031 85.7340029,48.0139992 85.162,48.17 C84.5899971,48.3260008 83.7840052,48.6639974 82.744,49.184 C81.8079953,49.7040026 80.9240042,50.1719979 80.092,50.588 C79.2599958,51.0040021 78.3760047,51.4719974 77.44,51.992 C76.9199974,52.200001 76.4000026,52.4859982 75.88,52.85 C75.3599974,53.2140018 74.8400026,53.5519984 74.32,53.864 L74.008,54.176 C73.5919979,54.4880016 73.2280016,54.8519979 72.916,55.268 C72.3959974,55.5800016 72.032001,55.8139992 71.824,55.97 C71.615999,56.1260008 71.3040021,56.4119979 70.888,56.828 C70.2639969,57.6600042 69.6400031,58.4139966 69.016,59.09 C68.3919969,59.7660034 67.7680031,60.5199958 67.144,61.352 L65.272,63.692 C65.063999,63.900001 64.9080005,64.107999 64.804,64.316 C64.6999995,64.524001 64.5960005,64.7839984 64.492,65.096 L63.712,65.876 L63.088,67.124 C62.7759984,67.4360016 62.516001,67.7999979 62.308,68.216 C61.8919979,68.6320021 61.580001,69.0219982 61.372,69.386 C61.163999,69.7500018 60.8520021,70.1399979 60.436,70.556 L59.968,71.024 C59.8639995,71.1280005 59.7600005,71.3359984 59.656,71.648 C59.5519995,71.856001 59.396001,72.0119995 59.188,72.116 C58.979999,72.2200005 58.8240005,72.3239995 58.72,72.428 C58.1999974,72.219999 57.9919995,71.9860013 58.096,71.726 C58.2000005,71.4659987 58.252,71.232001 58.252,71.024 C58.252,70.815999 58.0960016,70.815999 57.784,71.024 C57.4719984,71.232001 57.212001,71.439999 57.004,71.648 C56.8999995,71.856001 56.6400021,72.1679979 56.224,72.584 C56.224,72.792001 56.2499997,72.999999 56.302,73.208 C56.3540003,73.416001 56.3280005,73.6759984 56.224,73.988 C55.7039974,74.4040021 55.3920005,74.7939982 55.288,75.158 C55.1839995,75.5220018 54.9240021,75.9119979 54.508,76.328 C54.4039995,76.4320005 54.352,76.5359995 54.352,76.64 C54.352,76.7440005 54.248001,76.796 54.04,76.796 C53.4159969,76.796 53.0780003,76.9779982 53.026,77.342 C52.9739997,77.7060018 52.7400021,78.0439984 52.324,78.356 C51.5959964,79.1880042 51.1800005,80.1239948 51.076,81.164 C50.867999,81.372001 50.7380003,81.6319984 50.686,81.944 C50.6339997,82.2560016 50.5560005,82.515999 50.452,82.724 C50.243999,83.2440026 50.0880005,83.6859982 49.984,84.05 C49.8799995,84.4140018 49.724001,84.8039979 49.516,85.22 C49.307999,85.7400026 49.1520005,86.1819982 49.048,86.546 C48.9439995,86.9100018 48.788001,87.2999979 48.58,87.716 C48.371999,88.2360026 48.1900008,88.6779982 48.034,89.042 C47.8779992,89.4060018 47.696001,89.7959979 47.488,90.212 C47.279999,90.420001 47.0980008,90.3680016 46.942,90.056 C46.7859992,89.7439984 46.811999,89.2760031 47.02,88.652 C47.02,88.2359979 47.2279979,87.6120042 47.644,86.78 C47.852001,86.3639979 48.0079995,85.9740018 48.112,85.61 C48.2160005,85.2459982 48.371999,84.8040026 48.58,84.284 C48.9960021,83.3479953 49.2559995,82.5160036 49.36,81.788 L49.36,81.476 L49.516,81.32 L49.516,81.008 L49.828,80.384 L49.828,80.228 L49.984,79.916 C50.192001,79.707999 50.296,79.500001 50.296,79.292 C50.296,78.7719974 50.4259987,78.3040021 50.686,77.888 C50.9460013,77.4719979 51.179999,77.0040026 51.388,76.484 C51.596001,76.1719984 51.7779992,75.9380008 51.934,75.782 C52.0900008,75.6259992 52.064001,75.444001 51.856,75.236 C51.4399979,75.027999 51.1800005,75.0539987 51.076,75.314 C50.9719995,75.5740013 50.816001,75.807999 50.608,76.016 C50.2959984,76.5360026 50.036001,77.0039979 49.828,77.42 C49.619999,77.8360021 49.412001,78.3039974 49.204,78.824 C48.995999,79.032001 48.8660003,79.2659987 48.814,79.526 C48.7619997,79.7860013 48.632001,80.019999 48.424,80.228 C48.424,80.3320005 48.320001,80.5919979 48.112,81.008 C47.903999,81.3200016 47.696001,81.6839979 47.488,82.1 C47.1759984,81.7879984 47.123999,81.4240021 47.332,81.008 C47.332,80.799999 47.3839995,80.696 47.488,80.696 L47.488,80.54 L47.8,80.228 C48.008001,79.3959958 48.0600005,78.98 47.956,78.98 C48.4760026,78.4599974 48.6840005,77.9920021 48.58,77.576 C48.58,77.4719995 48.6059997,77.2640016 48.658,76.952 C48.7100003,76.6399984 48.7879995,76.380001 48.892,76.172 C49.100001,75.8599984 49.1780003,75.6260008 49.126,75.47 C49.0739997,75.3139992 49.151999,75.0800016 49.36,74.768 C49.568001,74.2479974 49.6200005,73.7540023 49.516,73.286 C49.4119995,72.8179977 49.7759958,72.480001 50.608,72.272 C50.7120005,72.272 50.8419992,72.1420013 50.998,71.882 C51.1540008,71.6219987 51.232,71.388001 51.232,71.18 C51.3360005,70.971999 51.388,70.8939997 51.388,70.946 C51.388,70.9980003 51.4399995,70.920001 51.544,70.712 L51.544,70.556 C51.0239974,71.1800031 50.4520031,71.7779971 49.828,72.35 C49.2039969,72.9220029 48.6320026,73.5199969 48.112,74.144 C48.0079995,74.352001 47.9040005,74.5339992 47.8,74.69 C47.6959995,74.8460008 47.5920005,75.027999 47.488,75.236 C47.279999,75.444001 47.2019997,75.7039984 47.254,76.016 C47.3060003,76.3280016 47.228001,76.587999 47.02,76.796 C46.811999,77.004001 46.708,77.2639984 46.708,77.576 C46.708,77.8880016 46.6560005,78.0959995 46.552,78.2 C46.4479995,78.408001 46.396,78.6419987 46.396,78.902 C46.396,79.1620013 46.292001,79.395999 46.084,79.604 L45.928,79.916 L45.772,80.072 L45.616,80.384 C45.407999,80.592001 45.200001,81.0079969 44.992,81.632 C43.9519948,83.2960083 43.2760016,84.231999 42.964,84.44 C42.755999,84.231999 42.6000005,84.0500008 42.496,83.894 C42.3919995,83.7379992 42.1840016,83.7119995 41.872,83.816 C41.7679995,83.9200005 41.6380008,84.2579971 41.482,84.83 C41.3259992,85.4020029 41.144001,85.8959979 40.936,86.312 C40.8319995,86.520001 40.78,86.7539987 40.78,87.014 C40.78,87.2740013 40.7280005,87.507999 40.624,87.716 C40.624,88.3400031 40.5720005,88.8079984 40.468,89.12 C40.259999,89.5360021 40.0780008,89.9259982 39.922,90.29 C39.7659992,90.6540018 39.584001,90.9919984 39.376,91.304 C39.0639984,91.7200021 38.7000021,92.4479948 38.284,93.488 C38.075999,94.0080026 37.8940008,94.4239984 37.738,94.736 L37.192,95.828 L37.036,95.828 C36.9319995,96.3480026 36.88,96.7899982 36.88,97.154 C36.88,97.5180018 36.8280005,97.9599974 36.724,98.48 C36.2039974,99.1040031 35.9180003,99.1040031 35.866,98.48 C35.8139997,97.8559969 35.8399995,97.1800036 35.944,96.452 C36.0480005,95.7239964 36.1,95.1780018 36.1,94.814 C36.1,94.4499982 36.0480005,93.8520042 35.944,93.02 C36.0480005,92.3959969 35.996001,92.084 35.788,92.084 C35.788,92.3960016 35.7620003,92.6819987 35.71,92.942 C35.6579997,93.2020013 35.632,93.4879984 35.632,93.8 C35.5279995,94.3200026 35.476,94.8399974 35.476,95.36 C35.476,95.8800026 35.4240005,96.3999974 35.32,96.92 L35.32,98.402 C35.32,98.8700023 35.2680005,99.3639974 35.164,99.884 C34.8519984,100.404003 34.592001,100.560001 34.384,100.352 C34.384,102.43201 34.5919979,104.355991 35.008,106.124 C35.216001,106.852004 35.4499987,107.579996 35.71,108.308 C35.9700013,109.036004 36.2559984,109.763996 36.568,110.492 C36.776001,111.220004 37.0359984,111.895997 37.348,112.52 C37.6600016,113.144003 37.919999,113.767997 38.128,114.392 C38.7520031,115.640006 39.3759969,116.757995 40,117.746 C40.6240031,118.734005 41.3519958,119.591996 42.184,120.32 C42.8080031,121.152004 43.5879953,121.775998 44.524,122.192 L46.396,123.128 C46.604001,123.232001 46.7339997,123.284 46.786,123.284 C46.8380003,123.284 46.967999,123.335999 47.176,123.44 C47.2800005,123.44 47.5399979,123.543999 47.956,123.752 L48.736,123.908 C48.944001,124.012001 49.2559979,124.064 49.672,124.064 L50.296,124.22 C50.7120021,124.324001 51.1019982,124.402 51.466,124.454 C51.8300018,124.506 52.2719974,124.532 52.792,124.532 C53.1040016,124.636001 53.5459971,124.688 54.118,124.688 L55.756,124.688 C56.2760026,124.792001 56.7439979,124.844 57.16,124.844 L58.096,124.844 C59.0320047,125.052001 59.9679953,125.104001 60.904,125 C61.8400047,124.895999 62.8799943,124.740001 64.024,124.532 C65.0640052,124.427999 66.0519953,124.090003 66.988,123.518 C67.9240047,122.945997 68.9639943,122.556001 70.108,122.348 C70.8360036,122.243999 71.3559984,122.192 71.668,122.192 C71.9800016,122.192 72.4999964,122.036002 73.228,121.724 C73.8520031,121.515999 74.3199984,121.334001 74.632,121.178 C74.9440016,121.021999 75.4639964,120.840001 76.192,120.632 C78.584012,119.799996 80.7939899,118.864005 82.822,117.824 C84.8500101,116.783995 87.0079886,115.692006 89.296,114.548 C90.4400057,114.027997 91.5839943,113.456003 92.728,112.832 L96.16,110.96 C97.4080062,110.231996 98.4479958,109.686002 99.28,109.322 C100.112004,108.957998 101.099994,108.464003 102.244,107.84 C103.388006,107.007996 104.271997,106.462001 104.896,106.202 C105.520003,105.941999 106.455994,105.396004 107.704,104.564 C108.120002,104.459999 108.535998,104.252002 108.952,103.94 C108.952,103.627998 109.003999,103.368001 109.108,103.16 C109.003999,102.743998 108.952,102.276003 108.952,101.756 C109.160001,101.235997 109.315999,100.768002 109.42,100.352 C109.524001,99.9359979 109.627999,99.4680026 109.732,98.948 C110.044002,98.5319979 110.148001,98.1160021 110.044,97.7 C109.939999,97.2839979 109.991999,96.8160026 110.2,96.296 C110.408001,95.7759974 110.512,95.3080021 110.512,94.892 C110.512,94.4759979 110.563999,94.0080026 110.668,93.488 C110.876001,92.8639969 110.98,92.3960016 110.98,92.084 L110.98,91.46 C110.98,91.251999 110.954,91.0960005 110.902,90.992 C110.85,90.8879995 110.824,90.7840005 110.824,90.68 C110.824,90.5759995 110.772001,90.3680016 110.668,90.056 C110.563999,89.7439984 110.356002,89.7439984 110.044,90.056 C109.835999,90.264001 109.758,90.4979987 109.81,90.758 C109.862,91.0180013 109.836001,91.251999 109.732,91.46 C109.523999,91.7720016 109.446,92.0059992 109.498,92.162 C109.55,92.3180008 109.524001,92.499999 109.42,92.708 C109.315999,93.0200016 109.264,93.4879969 109.264,94.112 C109.055999,95.0480047 108.822001,95.9839953 108.562,96.92 C108.301999,97.8560047 108.068001,98.7919953 107.86,99.728 C107.755999,99.936001 107.626001,100.169999 107.47,100.43 C107.313999,100.690001 107.184001,100.923999 107.08,101.132 C107.184001,100.923999 107.21,100.664002 107.158,100.352 C107.106,100.039998 107.131999,99.7280016 107.236,99.416 C107.340001,98.4799953 107.521999,97.5960042 107.782,96.764 C108.042001,95.9319958 108.223999,95.0480047 108.328,94.112 C108.328,93.7999984 108.354,93.540001 108.406,93.332 C108.458,93.123999 108.535999,92.916001 108.64,92.708 C108.744001,92.1879974 108.796,91.6940023 108.796,91.226 C108.796,90.7579977 108.899999,90.3160021 109.108,89.9 C109.212001,89.5879984 109.212001,89.3540008 109.108,89.198 C109.003999,89.0419992 109.003999,88.8080016 109.108,88.496 C109.212001,88.287999 109.238,88.0540013 109.186,87.794 C109.134,87.5339987 109.211999,87.300001 109.42,87.092 C109.524001,86.883999 109.55,86.676001 109.498,86.468 C109.446,86.259999 109.42,86.052001 109.42,85.844 C109.628001,85.4279979 109.732,85.0380018 109.732,84.674 C109.732,84.3099982 109.783999,83.9200021 109.888,83.504 C109.471998,83.6080005 109.212001,83.9199974 109.108,84.44 C108.899999,84.5440005 108.718001,84.5440005 108.562,84.44 C108.405999,84.3359995 108.224001,84.387999 108.016,84.596 L107.548,84.596 C107.339999,84.7000005 107.21,84.752 107.158,84.752 C107.106,84.752 106.820003,84.855999 106.3,85.064 C106.091999,85.1680005 105.936001,85.2719995 105.832,85.376 C105.727999,85.4800005 105.572001,85.5839995 105.364,85.688 C105.051998,85.688 104.740002,85.7399995 104.428,85.844 C104.219999,85.9480005 104.012001,86 103.804,86 C103.595999,86 103.388001,86.0519995 103.18,86.156 C102.971999,86.364001 102.842,86.5199995 102.79,86.624 C102.738,86.7280005 102.556002,86.676001 102.244,86.468 C101.723997,86.259999 101.282002,86.259999 100.918,86.468 C100.553998,86.676001 100.164002,86.8319995 99.748,86.936 C99.3319979,86.936 98.9420018,87.0139992 98.578,87.17 C98.2139982,87.3260008 97.8240021,87.4559995 97.408,87.56 C97.199999,87.6640005 97.0180008,87.7419997 96.862,87.794 C96.7059992,87.8460003 96.524001,87.9239995 96.316,88.028 C96.107999,88.028 95.9260008,88.1059992 95.77,88.262 C95.6139992,88.4180008 95.3800016,88.496 95.068,88.496 C94.3399964,88.3919995 93.6120036,88.443999 92.884,88.652 C92.1559964,88.860001 91.4280036,89.0159995 90.7,89.12 C90.491999,89.2240005 90.4139997,89.1980008 90.466,89.042 C90.5180003,88.8859992 90.5959995,88.7560005 90.7,88.652 C91.2200026,88.443999 91.6619982,88.2880005 92.026,88.184 C92.3900018,88.0799995 92.675999,87.924001 92.884,87.716 C93.092001,87.507999 93.299999,87.4559995 93.508,87.56 C93.716001,87.6640005 93.923999,87.6640005 94.132,87.56 C94.340001,87.351999 94.6519979,87.1700008 95.068,87.014 C95.4840021,86.8579992 95.8999979,86.676001 96.316,86.468 L96.628,86.312 C96.836001,86.103999 97.043999,86 97.252,86 C97.460001,85.8959995 97.667999,85.844 97.876,85.844 C98.084001,85.844 98.291999,85.740001 98.5,85.532 C98.708001,85.532 98.8639995,85.4800005 98.968,85.376 C99.0720005,85.2719995 99.227999,85.22 99.436,85.22 C99.644001,85.1159995 99.8259992,85.0120005 99.982,84.908 C100.138001,84.8039995 100.319999,84.7000005 100.528,84.596 C100.736001,84.387999 100.866,84.284 100.918,84.284 C100.97,84.284 101.099999,84.2320005 101.308,84.128 C101.516001,84.0239995 101.697999,83.8940008 101.854,83.738 C102.010001,83.5819992 102.243998,83.504 102.556,83.504 C103.284004,82.9839974 104.011996,82.6980003 104.74,82.646 C105.468004,82.5939997 106.091997,82.2560031 106.612,81.632 C106.716001,81.632 106.871999,81.528001 107.08,81.32 C107.184001,81.2159995 107.236,81.1120005 107.236,81.008 C107.027999,80.9039995 106.820001,80.9299992 106.612,81.086 C106.403999,81.2420008 106.196001,81.2680005 105.988,81.164 C104.843994,80.955999 104.064002,80.9039995 103.648,81.008 C103.439999,81.008 103.258001,81.0599995 103.102,81.164 C102.945999,81.2680005 102.764001,81.3719995 102.556,81.476 C102.347999,81.476 102.218,81.5539992 102.166,81.71 C102.114,81.8660008 101.984001,81.8920005 101.776,81.788 C101.255997,81.6839995 100.892001,81.7879984 100.684,82.1 C100.475999,82.4120016 100.268001,82.464001 100.06,82.256 C99.851999,82.1519995 99.6960005,82.0480005 99.592,81.944 C99.383999,81.8399995 99.176001,81.7620003 98.968,81.71 C98.759999,81.6579997 98.552001,81.5800005 98.344,81.476 C98.2399995,81.476 98.1360005,81.5279995 98.032,81.632 C97.823999,81.840001 97.6680005,81.944 97.564,81.944 C97.355999,82.0480005 97.2000005,82.1779992 97.096,82.334 C96.9919995,82.4900008 96.7840016,82.3600021 96.472,81.944 L96.472,81.476 C96.472,81.267999 96.6279984,81.060001 96.94,80.852 C97.148001,80.852 97.3039995,80.8000005 97.408,80.696 L97.876,80.228 C97.9800005,80.1239995 98.135999,80.072 98.344,80.072 L98.656,80.228 C98.9680016,80.436001 99.1759995,80.436001 99.28,80.228 C99.3840005,80.019999 99.539999,79.8640005 99.748,79.76 L100.684,79.292 C100.892001,79.292 101.047999,79.2660003 101.152,79.214 C101.256001,79.1619997 101.359999,79.136 101.464,79.136 C101.568001,79.136 101.62,79.0840005 101.62,78.98 C102.036002,78.771999 102.425998,78.5900008 102.79,78.434 C103.154002,78.2779992 103.439999,78.096001 103.648,77.888 C103.752001,77.7839995 103.907999,77.6800005 104.116,77.576 L104.74,77.264 C104.74,77.1599995 104.791999,77.0560005 104.896,76.952 C105.000001,76.8479995 104.948001,76.796 104.74,76.796 C104.635999,76.796 104.558,76.7700003 104.506,76.718 C104.454,76.6659997 104.324001,76.6919995 104.116,76.796 C103.699998,77.004001 103.284002,77.1599995 102.868,77.264 C102.451998,77.3680005 102.140001,77.523999 101.932,77.732 C101.723999,77.940001 101.542001,78.0180003 101.386,77.966 C101.229999,77.9139997 101.048001,77.9399995 100.84,78.044 C100.423998,78.252001 100.164001,78.356 100.06,78.356 C99.851999,78.564001 99.4880026,78.7459992 98.968,78.902 C98.4479974,79.0580008 98.084001,79.239999 97.876,79.448 C97.7719995,79.448 97.616001,79.4220003 97.408,79.37 C97.199999,79.3179997 96.992001,79.3439995 96.784,79.448 C95.3279927,80.0720031 93.7680083,80.5919979 92.104,81.008 C91.895999,81.216001 91.7660003,81.3719995 91.714,81.476 C91.6619997,81.5800005 91.4800016,81.632 91.168,81.632 C90.6479974,81.5279995 90.284001,81.6059987 90.076,81.866 C89.867999,82.1260013 89.5040026,82.2040005 88.984,82.1 C88.8799995,82.1 88.5420029,82.203999 87.97,82.412 C87.3979971,82.620001 87.112,82.4640026 87.112,81.944 C87.320001,81.5279979 87.6319979,81.32 88.048,81.32 C88.256001,81.111999 88.6199974,80.9820003 89.14,80.93 C89.6600026,80.8779997 90.0759984,80.748001 90.388,80.54 C90.596001,80.331999 90.803999,80.2539997 91.012,80.306 C91.220001,80.3580003 91.324,80.1240026 91.324,79.604 C91.115999,79.0839974 91.0899992,78.7980003 91.246,78.746 C91.4020008,78.6939997 91.583999,78.6160005 91.792,78.512 C92.000001,78.4079995 92.1299997,78.2780008 92.182,78.122 C92.2340003,77.9659992 92.1040016,77.888 91.792,77.888 C91.3759979,78.096001 90.9600021,78.1480005 90.544,78.044 C90.1279979,78.252001 89.7120021,78.3819997 89.296,78.434 C88.8799979,78.4860003 88.5160016,78.615999 88.204,78.824 C87.8919984,79.1360016 87.5800016,79.1360016 87.268,78.824 C87.268,78.4079979 87.3459992,78.1740003 87.502,78.122 C87.6580008,78.0699997 87.839999,77.9920005 88.048,77.888 C88.256001,77.7839995 88.4379992,77.732 88.594,77.732 C88.7500008,77.732 88.931999,77.6800005 89.14,77.576 C89.348001,77.367999 89.5299992,77.2380003 89.686,77.186 C89.8420008,77.1339997 90.023999,77.0560005 90.232,76.952 C90.440001,76.8479995 90.7519979,76.7700003 91.168,76.718 C91.5840021,76.6659997 91.9999979,76.536001 92.416,76.328 C92.624001,76.328 92.9879974,76.1720016 93.508,75.86 C93.716001,75.651999 93.8719995,75.548 93.976,75.548 C94.0800005,75.548 94.235999,75.4960005 94.444,75.392 C94.8600021,75.392 95.2759979,75.288001 95.692,75.08 C95.900001,74.871999 96.004,74.6900008 96.004,74.534 C96.004,74.3779992 96.0559995,74.0920021 96.16,73.676 C96.16,73.5719995 95.9520021,73.416001 95.536,73.208 C95.1199979,73.3120005 94.9639995,73.2080016 95.068,72.896 C95.1720005,72.5839984 95.2759995,72.3760005 95.38,72.272 C95.588001,72.063999 95.9259977,71.96 96.394,71.96 C96.8620023,71.96 97.3039979,71.8040016 97.72,71.492 C97.928001,71.283999 98.1099992,71.18 98.266,71.18 C98.4220008,71.18 98.603999,71.1280005 98.812,71.024 C98.9160005,70.9199995 99.2539971,70.8160005 99.826,70.712 C100.398003,70.6079995 100.476002,70.1920036 100.06,69.464 C99.9559995,69.464 99.8520005,69.4120005 99.748,69.308 L99.124,69.308 C98.915999,69.516001 98.7860003,69.7759984 98.734,70.088 C98.6819997,70.4000016 98.552001,70.5040005 98.344,70.4 C98.135999,70.4 98.032,70.1920021 98.032,69.776 C97.823999,69.6719995 97.6940003,69.7499987 97.642,70.01 C97.5899997,70.2700013 97.5120005,70.503999 97.408,70.712 C97.199999,70.920001 97.0440005,71.024 96.94,71.024 C96.94,71.232001 96.8100013,71.2840005 96.55,71.18 C96.2899987,71.0759995 96.1080005,70.9720005 96.004,70.868 C95.795999,70.868 95.6660003,70.971999 95.614,71.18 C95.5619997,71.388001 95.432001,71.5439995 95.224,71.648 C94.8079979,71.7520005 94.4700013,71.8299997 94.21,71.882 L93.04,72.116 C92.831999,72.324001 92.7020003,72.4799995 92.65,72.584 C92.5979997,72.6880005 92.468001,72.843999 92.26,73.052 C91.9479984,73.260001 91.6100018,73.3380003 91.246,73.286 C90.8819982,73.2339997 90.4920021,73.311999 90.076,73.52 C89.2439958,73.728001 88.4380039,74.0139982 87.658,74.378 C86.8779961,74.7420018 86.0200047,74.8720005 85.084,74.768 C84.875999,74.768 84.6940008,74.8199995 84.538,74.924 C84.3819992,75.0280005 84.200001,75.08 83.992,75.08 C83.783999,75.288001 83.6280005,75.392 83.524,75.392 C83.2119984,75.392 83.056,75.288001 83.056,75.08 C83.056,74.5599974 83.3159974,74.3 83.836,74.3 C83.836,74.1959995 83.9139992,74.144 84.07,74.144 C84.2260008,74.144 84.407999,74.040001 84.616,73.832 C84.824001,74.040001 85.0059992,74.040001 85.162,73.832 C85.3180008,73.623999 85.292001,73.416001 85.084,73.208 C85.292001,72.999999 85.4479995,73.0519984 85.552,73.364 L85.552,73.208 C85.552,73.1039995 85.5260003,73.052 85.474,73.052 C85.4219997,73.052 85.396,72.948001 85.396,72.74 C85.604001,72.531999 85.9159979,72.4020003 86.332,72.35 C86.7480021,72.2979997 87.059999,72.0120026 87.268,71.492 L87.268,70.868 C87.059999,70.659999 86.852001,70.6339992 86.644,70.79 C86.435999,70.9460008 86.1240021,71.127999 85.708,71.336 C85.499999,71.336 85.3700003,71.2580008 85.318,71.102 C85.2659997,70.9459992 85.2919995,70.8160005 85.396,70.712 L85.708,70.088 C85.8120005,69.9839995 85.967999,69.8800005 86.176,69.776 C86.384001,69.6719995 86.488,69.5680005 86.488,69.464 C86.488,68.9439974 86.384001,68.7099997 86.176,68.762 C85.967999,68.8140003 85.7080016,68.7880005 85.396,68.684 C85.187999,68.684 85.0060008,68.7359995 84.85,68.84 C84.6939992,68.9440005 84.512001,68.996 84.304,68.996 C83.9919984,68.8919995 83.9139992,68.7620008 84.07,68.606 C84.2260008,68.4499992 84.3559995,68.4239995 84.46,68.528 C84.668001,68.6320005 84.8499992,68.6060008 85.006,68.45 C85.1620008,68.2939992 85.2919995,68.112001 85.396,67.904 C85.396,67.3839974 85.4739992,67.1499997 85.63,67.202 C85.7860008,67.2540003 85.967999,67.383999 86.176,67.592 C86.4880016,67.592 86.9039974,67.4620013 87.424,67.202 C87.9440026,66.9419987 88.204,66.7600005 88.204,66.656 C88.412001,66.447999 88.619999,66.344 88.828,66.344 C89.036001,66.344 89.1919995,66.240001 89.296,66.032 C89.4000005,66.032 89.452,65.9800005 89.452,65.876 C89.452,65.7719995 89.5039995,65.6680005 89.608,65.564 C89.816001,65.564 89.8940003,65.5899997 89.842,65.642 C89.7899997,65.6940003 89.867999,65.72 90.076,65.72 C90.284001,65.511999 90.3620003,65.2520016 90.31,64.94 C90.2579997,64.6279984 90.335999,64.472 90.544,64.472 C90.8560016,64.472 91.2199979,64.2900018 91.636,63.926 C92.0520021,63.5619982 92.3119995,63.38 92.416,63.38 C92.9360026,63.4840005 93.092001,63.1200042 92.884,62.288 C92.884,61.7679974 93.0919979,61.404001 93.508,61.196 C93.716001,61.3000005 93.8459997,61.248001 93.898,61.04 C93.9500003,60.831999 94.079999,60.728 94.288,60.728 C94.3920005,60.8320005 94.4959995,60.8320005 94.6,60.728 L94.756,60.572 L95.068,59.948 C95.3800016,59.739999 95.7439979,59.5580008 96.16,59.402 C96.5760021,59.2459992 96.887999,59.064001 97.096,58.856 C97.304001,58.647999 97.4859992,58.6219992 97.642,58.778 C97.7980008,58.9340008 97.979999,58.908001 98.188,58.7 C98.396001,58.2839979 98.6559984,57.972001 98.968,57.764 C99.176001,57.555999 99.3059997,57.4779997 99.358,57.53 C99.4100003,57.5820003 99.539999,57.5560005 99.748,57.452 C99.748,57.3479995 99.851999,57.2180008 100.06,57.062 C100.268001,56.9059992 100.475999,56.7760005 100.684,56.672 C100.892001,56.5679995 101.073999,56.5419997 101.23,56.594 C101.386001,56.6460003 101.567999,56.672 101.776,56.672 C102.296003,56.463999 102.607999,56.3340003 102.712,56.282 C102.816001,56.2299997 102.868,56.4639974 102.868,56.984 C103.180002,56.984 103.336,56.9320005 103.336,56.828 C103.023998,56.0999964 103.127997,55.6840005 103.648,55.58 C104.168003,55.788001 104.583998,55.7360016 104.896,55.424 C105.208002,55.1119984 105.571998,54.852001 105.988,54.644 C106.300002,54.7480005 106.456,54.7740003 106.456,54.722 C106.456,54.6699997 106.559999,54.540001 106.768,54.332 C106.976001,54.332 107.287998,54.2020013 107.704,53.942 C108.120002,53.6819987 108.431999,53.552 108.64,53.552 C109.160003,53.552 109.523999,53.448001 109.732,53.24 C110.044002,53.24 110.407998,53.136001 110.824,52.928 C111.032001,52.8239995 111.239999,52.772 111.448,52.772 C111.656001,52.772 111.863999,52.7200005 112.072,52.616 C112.488002,52.3039984 112.877998,52.251999 113.242,52.46 C113.606002,52.668001 113.943998,52.4600031 114.256,51.836 C114.360001,51.7319995 114.438,51.7319995 114.49,51.836 C114.542,51.9400005 114.671999,51.888001 114.88,51.68 C115.088001,51.2639979 115.243999,51.1339992 115.348,51.29 C115.452001,51.4460008 115.607999,51.420001 115.816,51.212 C115.816,50.7959979 115.712001,50.588 115.504,50.588 C115.399999,50.588 115.296001,50.6139997 115.192,50.666 C115.087999,50.7180003 114.984001,50.744 114.88,50.744 C114.775999,50.8480005 114.672001,50.9 114.568,50.9 C114.463999,50.9 114.308001,50.9259997 114.1,50.978 C113.891999,51.0300003 113.736001,51.056 113.632,51.056 C113.215998,51.1600005 112.826002,51.108001 112.462,50.9 C112.097998,50.691999 112.175997,50.5360005 112.696,50.432 C113.112002,50.3279995 113.553998,50.2240005 114.022,50.12 C114.490002,50.0159995 114.827999,49.860001 115.036,49.652 C115.140001,49.5479995 115.243999,49.496 115.348,49.496 C115.556001,49.496 115.711999,49.4440005 115.816,49.34 C116.440003,49.131999 116.855999,49.028 117.064,49.028 C117.480002,48.9239995 117.843998,48.7940008 118.156,48.638 C118.468002,48.4819992 118.883997,48.4559995 119.404,48.56 C119.820002,48.351999 120.183998,48.3259992 120.496,48.482 C120.808002,48.6380008 121.223997,48.716 121.744,48.716 C121.952001,48.507999 122.107999,48.3780003 122.212,48.326 C122.316001,48.2739997 122.471999,48.144001 122.68,47.936 C122.888001,47.936 123.069999,48.0139992 123.226,48.17 C123.382001,48.3260008 123.563999,48.4559995 123.772,48.56 C124.604004,48.4559995 125.383996,48.1700023 126.112,47.702 C126.840004,47.2339977 127.567996,46.896001 128.296,46.688 C128.504001,46.688 128.659999,46.6100008 128.764,46.454 C128.868001,46.2979992 129.023999,46.2719995 129.232,46.376 C129.440001,46.376 129.595999,46.2980008 129.7,46.142 C129.804001,45.9859992 129.959999,45.804001 130.168,45.596 C130.272001,45.596 130.427999,45.5440005 130.636,45.44 L131.26,45.128 C131.676002,44.919999 132.013999,44.7380008 132.274,44.582 C132.534001,44.4259992 132.923997,44.2960005 133.444,44.192 C133.860002,44.192 134.223998,44.1400005 134.536,44.036 C135.056003,44.1400005 135.497998,44.1660003 135.862,44.114 C136.226002,44.0619997 136.615998,44.0879995 137.032,44.192 C137.240001,44.192 137.421999,44.2179997 137.578,44.27 L138.28,44.504 C138.592002,44.504 138.955998,44.607999 139.372,44.816 C140.100004,45.3360026 140.412001,45.8559974 140.308,46.376 C140.203999,46.8960026 140.255999,47.259999 140.464,47.468 L141.244,48.248 C141.452001,47.7279974 141.607999,47.468 141.712,47.468 C141.816001,47.3639995 141.868,47.3379997 141.868,47.39 C141.868,47.4420003 141.919999,47.364001 142.024,47.156 C142.440002,47.156 142.751999,47.6239953 142.96,48.56 L143.428,49.73 C143.532001,49.9900013 143.687999,50.016001 143.896,49.808 C144.104001,49.599999 144.234,49.7039979 144.286,50.12 C144.338,50.5360021 144.519998,50.6920005 144.832,50.588 C145.040001,50.1719979 145.247999,50.4839948 145.456,51.524 C145.456,52.1480031 145.533999,52.5119995 145.69,52.616 C145.846001,52.7200005 146.027999,53.0319974 146.236,53.552 C146.340001,53.760001 146.392,53.967999 146.392,54.176 C146.392,54.6960026 146.340001,55.0079995 146.236,55.112 C146.027999,55.4240016 146.053999,55.683999 146.314,55.892 C146.574001,56.100001 146.652001,56.4119979 146.548,56.828 C146.443999,56.9320005 146.184002,57.2179977 145.768,57.686 C145.351998,58.1540023 145.403997,58.6479974 145.924,59.168 C146.028001,59.168 146.287998,58.8560031 146.704,58.232 C146.912001,58.232 147.093999,58.335999 147.25,58.544 C147.406001,58.752001 147.587999,58.856 147.796,58.856 C148.004001,59.2720021 148.082,59.6359984 148.03,59.948 C147.978,60.2600016 148.003999,60.6759974 148.108,61.196 C148.108,61.3000005 148.030001,61.455999 147.874,61.664 C147.717999,61.872001 147.588001,62.0279995 147.484,62.132 C147.275999,62.340001 147.094001,62.3920005 146.938,62.288 C146.781999,62.1839995 146.652001,62.2879984 146.548,62.6 C146.548,63.0160021 146.807997,63.327999 147.328,63.536 C147.536001,63.6400005 147.717999,63.7179997 147.874,63.77 C148.030001,63.8220003 148.211999,64.0559979 148.42,64.472 C148.524001,65.2000036 148.420002,65.8239974 148.108,66.344 L148.108,67.28 C148.003999,67.5920016 148.003999,67.9039984 148.108,68.216 Z M83.056,69.62 C82.9519995,69.7240005 82.8220008,69.7240005 82.666,69.62 C82.5099992,69.5159995 82.535999,69.360001 82.744,69.152 C82.952001,68.943999 83.1079995,68.9179992 83.212,69.074 C83.3160005,69.2300008 83.3160005,69.411999 83.212,69.62 L83.056,69.62 Z M86.488,82.1 C86.488,82.308001 86.4620003,82.3340008 86.41,82.178 C86.3579997,82.0219992 86.3839995,81.9959995 86.488,82.1 Z M81.808,83.66 C82.016001,83.451999 82.223999,83.3999995 82.432,83.504 C82.640001,83.6080005 82.744,83.7119995 82.744,83.816 L82.588,83.972 C82.379999,84.0760005 82.172001,84.0500008 81.964,83.894 C81.755999,83.7379992 81.7039995,83.66 81.808,83.66 Z M85.396,83.036 C85.396,83.1400005 85.1360026,83.295999 84.616,83.504 C83.8879964,83.295999 83.8879964,82.9840021 84.616,82.568 C84.824001,82.4639995 85.031999,82.412 85.24,82.412 C85.448001,82.412 85.5000005,82.6199979 85.396,83.036 Z M89.452,79.76 L89.296,79.916 C88.9839984,79.8119995 88.8799995,79.6300013 88.984,79.37 C89.0880005,79.1099987 89.243999,79.2399974 89.452,79.76 Z M88.36,90.212 C87.6319964,90.212 87.371999,90.0040021 87.58,89.588 L87.892,89.276 L88.516,88.964 C88.6200005,88.8599995 88.7239995,88.808 88.828,88.808 C89.1400016,88.808 89.399999,88.8599995 89.608,88.964 C89.7120005,89.0680005 89.6860008,89.1979992 89.53,89.354 C89.3739992,89.5100008 89.2440005,89.691999 89.14,89.9 L88.906,90.134 C88.8539997,90.1860003 88.6720016,90.212 88.36,90.212 Z M84.304,73.364 C84.4080005,73.2599995 84.4859997,73.1560005 84.538,73.052 C84.5900003,72.9479995 84.719999,72.999999 84.928,73.208 C84.6159984,73.416001 84.4080005,73.4680005 84.304,73.364 Z M94.6,83.192 C94.1839979,82.6719974 94.1839979,82.308001 94.6,82.1 C94.808001,82.2040005 94.912,82.3859987 94.912,82.646 C94.912,82.9060013 94.808001,83.0879995 94.6,83.192 Z M87.892,79.916 C87.892,79.8119995 87.995999,79.76 88.204,79.76 L87.892,79.916 Z M88.204,79.76 C88.3080005,79.76 88.4119995,79.8119995 88.516,79.916 L88.204,79.76 Z M55.6,78.98 C55.6,79.2920016 55.5480005,79.4220003 55.444,79.37 C55.3399995,79.3179997 55.391999,79.188001 55.6,78.98 Z M44.368,90.056 C44.368,89.7439984 44.4199995,89.5360005 44.524,89.432 L44.836,89.12 L44.836,89.588 C44.9400005,89.796001 44.9140008,90.003999 44.758,90.212 C44.6019992,90.420001 44.4720005,90.3680016 44.368,90.056 Z M47.02,83.192 L47.02,83.738 C47.02,83.8940008 46.916001,84.2319974 46.708,84.752 C46.499999,85.2720026 46.2400016,85.635999 45.928,85.844 C45.6159984,86.052001 45.563999,86.4159974 45.772,86.936 C45.772,87.4560026 45.668001,87.8719984 45.46,88.184 C45.251999,88.4960016 45.0960005,88.3920026 44.992,87.872 C45.0960005,87.3519974 45.2259992,86.9100018 45.382,86.546 C45.5380008,86.1819982 45.6679995,85.7400026 45.772,85.22 C45.8760005,84.6999974 45.9799995,84.2320021 46.084,83.816 C46.1880005,83.3999979 46.4999974,83.192 47.02,83.192 Z M57.16,74.924 C57.368001,74.924 57.5239995,74.8980003 57.628,74.846 C57.7320005,74.7939997 57.7320005,74.9759979 57.628,75.392 C57.628,75.600001 57.4980013,75.807999 57.238,76.016 C56.9779987,76.224001 56.951999,76.4839984 57.16,76.796 C57.0559995,76.796 57.004,76.8479995 57.004,76.952 C56.8999995,77.0560005 56.848,77.1339997 56.848,77.186 C56.848,77.2380003 56.744001,77.3159995 56.536,77.42 C56.327999,77.628001 56.1720005,77.835999 56.068,78.044 L56.068,78.044 C56.1720005,77.835999 56.1980003,77.5760016 56.146,77.264 C56.0939997,76.9519984 56.171999,76.7440005 56.38,76.64 C56.588001,76.431999 56.5360016,76.0680026 56.224,75.548 C56.015999,74.9239969 56.3279958,74.715999 57.16,74.924 Z M88.984,127.496 C89.5040026,126.975997 89.8159995,126.845999 89.92,127.106 C90.0240005,127.366001 89.7120036,127.496 88.984,127.496 Z M89.14,129.68 C89.8680036,129.159997 90.4399979,128.951999 90.856,129.056 C91.2720021,129.576003 91.1680031,130.043998 90.544,130.46 C89.9199969,130.876002 89.2960031,131.187999 88.672,131.396 C87.2159927,131.396 87.2159927,130.876005 88.672,129.836 C88.880001,129.731999 88.9580003,129.706 88.906,129.758 C88.8539997,129.81 88.931999,129.784001 89.14,129.68 Z M37.348,105.032 C37.348,105.240001 37.244001,105.266001 37.036,105.11 C36.827999,104.953999 36.6460008,104.746001 36.49,104.486 C36.3339992,104.225999 36.256,103.992001 36.256,103.784 C36.256,103.575999 36.5159974,103.472 37.036,103.472 C37.036,103.576001 37.0879995,103.783998 37.192,104.096 C37.2960005,104.408002 37.348,104.719998 37.348,105.032 Z M79.624,52.148 L78.532,53.24 C78.0119974,53.7600026 77.1800057,54.123999 76.036,54.332 C75.7239984,54.4360005 75.6979987,54.3580013 75.958,54.098 C76.2180013,53.8379987 76.5819977,53.5520016 77.05,53.24 C77.5180023,52.9279984 78.0119974,52.668001 78.532,52.46 C79.0520026,52.251999 79.415999,52.148 79.624,52.148 Z M63.712,151.52 C64.8560057,151.415999 65.1940023,151.519998 64.726,151.832 C64.2579977,152.144002 63.5560047,152.196001 62.62,151.988 C62.828001,151.883999 63.0099992,151.806 63.166,151.754 C63.3220008,151.702 63.503999,151.624001 63.712,151.52 Z M76.816,148.088 C77.2320021,147.983999 77.1020034,148.165998 76.426,148.634 C75.7499966,149.102002 74.9960042,149.439999 74.164,149.648 C73.3319958,149.856001 72.5780034,150.011999 71.902,150.116 C71.2259966,150.220001 70.4720042,150.375999 69.64,150.584 C68.5999948,150.792001 68.2879979,150.844001 68.704,150.74 L70.576,150.272 C71.4080042,149.959998 72.2659956,149.648002 73.15,149.336 C74.0340044,149.023998 74.5279995,148.764001 74.632,148.556 C74.9440016,148.451999 75.2559984,148.374 75.568,148.322 C75.8800016,148.27 76.2959974,148.192001 76.816,148.088 Z M44.992,155.576 C45.3040016,155.680001 45.6679979,155.732 46.084,155.732 C46.5000021,155.732 46.9679974,155.835999 47.488,156.044 C47.1759984,156.148001 46.7860023,156.2 46.318,156.2 L44.836,156.2 C44.627999,156.095999 44.4460008,156.044 44.29,156.044 C44.1339992,156.044 43.952001,155.992001 43.744,155.888 C43.4319984,155.783999 43.379999,155.628001 43.588,155.42 L43.9,155.42 C44.0040005,155.524001 44.1079995,155.576 44.212,155.576 L44.992,155.576 Z M87.736,140.288 C88.4640036,140.288 88.3600047,140.469998 87.424,140.834 C86.4879953,141.198002 85.8120021,141.38 85.396,141.38 C85.604001,141.171999 85.811999,141.016001 86.02,140.912 C86.228001,140.807999 86.7999953,140.600002 87.736,140.288 Z M83.056,132.644 C83.4720021,132.435999 83.783999,132.332 83.992,132.332 C84.200001,133.060004 83.9920031,133.553999 83.368,133.814 C82.7439969,134.074001 82.4839995,133.788004 82.588,132.956 L82.9,132.8 C83.0040005,132.8 83.056,132.748001 83.056,132.644 Z M10.048,130.772 L12.544,135.14 C11.7119958,133.891994 10.8800042,132.436008 10.048,130.772 Z M57.004,152.144 C57.6280031,152.144 57.9140003,152.247999 57.862,152.456 C57.8099997,152.664001 57.6280016,152.819999 57.316,152.924 C57.0039984,153.028001 56.7180013,153.054 56.458,153.002 C56.1979987,152.95 56.1199995,152.716002 56.224,152.3 C56.3280005,152.3 56.5879979,152.248001 57.004,152.144 Z M17.068,141.38 C16.5479974,140.859997 16.0540023,140.288003 15.586,139.664 C15.1179977,139.039997 14.6240026,138.416003 14.104,137.792 C13.6879979,136.959996 13.1680031,136.076005 12.544,135.14 L13.48,136.388 C13.7920016,136.804002 14.1039984,137.167998 14.416,137.48 C14.9360026,138.104003 15.4299977,138.727997 15.898,139.352 C16.3660023,139.976003 16.8599974,140.547997 17.38,141.068 C17.9000026,141.692003 18.4199974,142.289997 18.94,142.862 C19.4600026,143.434003 20.0839964,143.979997 20.812,144.5 C21.2280021,145.020003 21.7999964,145.539997 22.528,146.06 C23.2560036,146.580003 23.9839964,147.125997 24.712,147.698 C25.4400036,148.270003 26.0899971,148.763998 26.662,149.18 C27.2340029,149.596002 27.623999,149.855999 27.832,149.96 C27.623999,149.751999 27.2080031,149.518001 26.584,149.258 C25.9599969,148.997999 25.2840036,148.608003 24.556,148.088 C24.1399979,147.775998 23.7500018,147.490001 23.386,147.23 C23.0219982,146.969999 22.6840016,146.684002 22.372,146.372 C21.9559979,146.163999 21.5920016,145.904002 21.28,145.592 L17.068,141.38 Z"/>
  </g>
</svg>
