<svg xmlns="http://www.w3.org/2000/svg" viewBox="0 0 208.04 108.89"><title>gremlynx</title><g id="Layer_2" data-name="Layer 2"><g id="Layer_1-2" data-name="Layer 1"><path d="M111.28,105.39c31,0,49.78-19.1,49.78-43,0-3.34,16.11-11.91,24.71-22.23,10.72-12.88,19.87-29.38,18.67-33.93C203,1,183.38,3.61,165.69,11.57c-8.36,3.77-23.51,18.3-26.26,16.64A67,67,0,0,0,105,19.08h-1.94a67,67,0,0,0-34.44,9.13c-2.75,1.66-17.89-12.87-26.26-16.64C24.66,3.61,5,1,3.61,6.22,2.4,10.77,11.55,27.27,22.28,40.15,30.87,50.47,47,59,47,62.38c0,23.91,18.38,43,49.35,43Z" fill="#fff" stroke="#000" stroke-linejoin="round" stroke-width="7"/><ellipse cx="81.7" cy="56.51" rx="10.33" ry="8.72"/><path d="M59.72,37.9c.28,4.27-6.44,10.57-11.37,11.44-6.3-3.25-29.68-25-27.64-32,1.73-1.4,9.07-.14,16.76,3.66C47.09,25.72,57.42,33.78,59.72,37.9Z"/><ellipse cx="126.34" cy="56.51" rx="10.33" ry="8.72"/><path d="M148.32,37.9c-.27,4.27,6.45,10.57,11.37,11.44,6.3-3.25,29.69-25,27.65-32-1.73-1.4-9.07-.14-16.77,3.66C161,25.72,150.62,33.78,148.32,37.9Z"/><path d="M105.89,83.36h-5.68c-2.41,0-6.21-2.8-6.21-6.22h0c0-3.41,2.79-8.39,6.21-8.39h5.68c3.42,0,6.22,5,6.22,8.39h0C112.11,80.56,108.31,83.36,105.89,83.36Z"/></g></g></svg>