<svg xmlns="http://www.w3.org/2000/svg" width="785" height="295" viewBox="0 0 785 295">
  <g fill="none" fill-rule="evenodd" transform="translate(181 79)">
    <path fill="#151516" d="M197.028169,10.0731707 L197.028169,43.3414634 C197.028169,56.9512195 188.661972,63 178.014085,63 C168.887324,63 162.802817,58.4634146 162.042254,51.6585366 L162.802817,50.902439 L171.929577,50.902439 L172.690141,51.6585366 C173.450704,53.1707317 174.971831,53.9268293 178.014085,53.9268293 C183.338028,53.9268293 186.380282,50.902439 186.380282,44.097561 L185.619718,44.097561 C185.619718,44.097561 182.577465,47.8780488 175.732394,47.8780488 C166.605634,47.8780488 159,40.3170732 159,28.2195122 C159,16.1219512 166.605634,8.56097561 175.732394,8.56097561 C182.577465,8.56097561 185.619718,12.3414634 185.619718,12.3414634 L186.380282,12.3414634 L187.140845,10.0731707 L187.901408,9.31707317 L196.267606,9.31707317 L197.028169,10.0731707 Z M169.647887,28.2195122 C169.647887,34.2682927 171.929577,38.804878 178.014085,38.804878 C184.098592,38.804878 186.380282,34.2682927 186.380282,28.2195122 C186.380282,22.1707317 184.098592,17.6341463 178.014085,17.6341463 C171.929577,17.6341463 169.647887,22.1707317 169.647887,28.2195122 Z M221.112676,19.1463415 L221.873239,18.3902439 L230.239437,18.3902439 L231,17.6341463 L231,10.0731707 L230.239437,9.31707317 L221.873239,9.31707317 L221.112676,8.56097561 L221.112676,1.75609756 L220.352113,1 L211.225352,1 L210.464789,1.75609756 L210.464789,8.56097561 L209.704225,9.31707317 L204.380282,9.31707317 L203.619718,10.0731707 L203.619718,17.6341463 L204.380282,18.3902439 L209.704225,18.3902439 L210.464789,19.1463415 L210.464789,35.7804878 C210.464789,44.097561 216.549296,47.1219512 223.394366,47.1219512 L230.239437,47.1219512 L231,46.3658537 L231,38.804878 L230.239437,38.0487805 L223.394366,38.0487805 C221.873239,38.0487805 221.112676,37.2926829 221.112676,35.7804878 L221.112676,19.1463415 Z"/>
    <path fill="#161515" d="M159,103.120879 C159,90.989011 166.533186,83.4065934 175.573009,83.4065934 C182.352876,83.4065934 185.36615,87.1978022 185.36615,87.1978022 L186.119469,87.1978022 L186.119469,69.7582418 L186.872788,69 L195.912611,69 L196.665929,69.7582418 L196.665929,121.318681 L195.912611,122.076923 L187.626106,122.076923 L186.872788,121.318681 L186.119469,119.043956 L185.36615,119.043956 C185.36615,119.043956 182.352876,122.835165 175.573009,122.835165 C166.533186,122.835165 159,115.252747 159,103.120879 Z M169.54646,103.120879 C169.54646,109.186813 171.806416,113.736264 177.832965,113.736264 C183.859513,113.736264 186.119469,109.186813 186.119469,103.120879 C186.119469,97.0549451 183.859513,92.5054945 177.832965,92.5054945 C171.806416,92.5054945 169.54646,97.0549451 169.54646,103.120879 Z M240.107301,103.120879 L240.107301,106.153846 L239.353982,106.912088 L216.001106,106.912088 L215.247788,107.67033 C215.247788,109.186813 216.754425,113.736264 222.780973,113.736264 C225.040929,113.736264 227.300885,112.978022 228.054204,111.461538 L228.807522,110.703297 L237.847345,110.703297 L238.600664,111.461538 C237.847345,116.010989 234.080752,122.835165 222.780973,122.835165 C209.974558,122.835165 203.948009,113.736264 203.948009,103.120879 C203.948009,92.5054945 209.974558,83.4065934 222.027655,83.4065934 C234.080752,83.4065934 240.107301,92.5054945 240.107301,103.120879 Z M228.054204,99.3296703 L228.807522,98.5714286 C228.807522,97.8131868 228.054204,92.5054945 222.027655,92.5054945 C216.001106,92.5054945 215.247788,97.8131868 215.247788,98.5714286 L216.001106,99.3296703 L228.054204,99.3296703 Z M278.275442,110.703297 C278.275442,101.604396 269.988938,100.087912 265.469027,99.3296703 C260.949115,98.5714286 256.429204,98.5714286 256.429204,95.5384615 C256.429204,93.2637363 257.935841,92.5054945 261.702434,92.5054945 C265.469027,92.5054945 266.975664,93.2637363 266.975664,94.7802198 L267.728982,95.5384615 L276.768805,95.5384615 L277.522124,94.7802198 C277.522124,87.1978022 270.742257,83.4065934 261.702434,83.4065934 C250.402655,83.4065934 245.882743,88.7142857 245.882743,94.7802198 C245.882743,103.879121 255.675885,106.153846 260.195796,106.912088 C264.715708,107.67033 267.728982,107.67033 267.728982,110.703297 C267.728982,112.978022 265.469027,113.736264 261.702434,113.736264 C257.935841,113.736264 255.675885,112.978022 255.675885,109.945055 L254.922566,109.186813 L245.882743,109.186813 L245.129425,109.945055 C245.129425,117.527473 251.155973,122.835165 261.702434,122.835165 C273.755531,122.835165 278.275442,116.769231 278.275442,110.703297 Z M296.103982,77.3406593 L296.103982,69.7582418 L295.350664,69 L286.310841,69 L285.557522,69.7582418 L285.557522,77.3406593 L286.310841,78.0989011 L295.350664,78.0989011 L296.103982,77.3406593 Z M296.103982,121.318681 L296.103982,84.9230769 L295.350664,84.1648352 L286.310841,84.1648352 L285.557522,84.9230769 L285.557522,121.318681 L286.310841,122.076923 L295.350664,122.076923 L296.103982,121.318681 Z M341.051991,84.9230769 L341.051991,118.285714 C341.051991,131.934066 332.765487,138 322.219027,138 C313.179204,138 307.152655,133.450549 306.399336,126.626374 L307.152655,125.868132 L316.192478,125.868132 L316.945796,126.626374 C317.699115,128.142857 319.205752,128.901099 322.219027,128.901099 C327.492257,128.901099 330.505531,125.868132 330.505531,119.043956 L329.752212,119.043956 C329.752212,119.043956 326.738938,122.835165 319.959071,122.835165 C310.919248,122.835165 303.386062,115.252747 303.386062,103.120879 C303.386062,90.989011 310.919248,83.4065934 319.959071,83.4065934 C326.738938,83.4065934 329.752212,87.1978022 329.752212,87.1978022 L330.505531,87.1978022 L331.25885,84.9230769 L332.012168,84.1648352 L340.298673,84.1648352 L341.051991,84.9230769 Z M313.932522,103.120879 C313.932522,109.186813 316.192478,113.736264 322.219027,113.736264 C328.245575,113.736264 330.505531,109.186813 330.505531,103.120879 C330.505531,97.0549451 328.245575,92.5054945 322.219027,92.5054945 C316.192478,92.5054945 313.932522,97.0549451 313.932522,103.120879 Z M386,121.318681 L386,98.5714286 C386,89.4725275 380.72677,83.4065934 371.686947,83.4065934 C366.413717,83.4065934 363.400442,85.6813187 361.893805,87.1978022 L361.140487,87.1978022 L360.387168,84.9230769 L359.63385,84.1648352 L351.347345,84.1648352 L350.594027,84.9230769 L350.594027,121.318681 L351.347345,122.076923 L360.387168,122.076923 L361.140487,121.318681 L361.140487,102.362637 C361.140487,95.5384615 364.153761,92.5054945 369.426991,92.5054945 C373.946903,92.5054945 375.45354,95.5384615 375.45354,99.3296703 L375.45354,121.318681 L376.206858,122.076923 L385.246681,122.076923 L386,121.318681 Z"/>
    <path fill="#EEB211" d="M23.2513357,0.143925673 L23.2513357,0 L1.25347272,0 L1.25347272,0.143925673 L0.785714286,0.143925673 L0.785714286,22.1417886 L1.25347272,22.1417886 L1.25347272,117 L23.2513357,117 L23.2513357,22.1417886 L73.2142857,22.1417886 L73.2142857,0.143925673 L23.2513357,0.143925673 Z"/>
    <path fill="#00254C" d="M68.2513357,0.143925673 L68.2513357,0 L46.2534727,0 L46.2534727,0.143925673 L45.7857143,0.143925673 L45.7857143,22.1417886 L46.2534727,22.1417886 L46.2534727,117 L68.2513357,117 L68.2513357,22.1417886 L118.214286,22.1417886 L118.214286,0.143925673 L68.2513357,0.143925673 Z" transform="rotate(180 82 58.5)"/>
  </g>
</svg>
