<svg xmlns="http://www.w3.org/2000/svg" width="422" height="174" viewBox="0 0 422 174">
  <g fill="none" fill-rule="evenodd" transform="translate(0 1)">
    <path fill="#000" fill-rule="nonzero" d="M206,0.8 C219,0.8 256,7.9 256,44.3 C256,73.6 242,82.3 231,84.3 C223,85.8 254,84.3 254,121 C254,173 209,171 209,171 L134,171 L134,0.8 L206,0.8 Z M176,42.3 L176,68 L201,68 C201,68 211,66.8 211,54.5 C211,42.2 201,42.3 201,42.3 L176,42.3 Z M176,105 L176,131 L201,131 C201,131 211,130 211,117 C211,105 201,105 201,105 L176,105 Z M0,0.8 L0,171 L47,171 L47,108 L77,108 L77,171 L124,171 L124,0.8 L77,0.8 L77,65 L47,65 L47,0.8 L0,0.8 Z"/>
    <circle cx="335" cy="86" r="65" stroke="#000" stroke-width="44"/>
    <circle cx="335" cy="86" r="35" fill="#000" fill-rule="nonzero"/>
  </g>
</svg>
