<svg xmlns="http://www.w3.org/2000/svg" viewBox="0 0 236.63 236.88"><title>island</title><g id="Layer_2" data-name="Layer 2"><g id="Layer_1-2" data-name="Layer 1"><path d="M36.21,100.36H231.63s-25.37,80.87-28.32,81S169.21,136,169.21,136s-42.05,95.85-44.58,95.85-44.58-92.14-44.58-92.14-18.5,46.07-21.55,46.07-17.83-51.27-17.83-51.27-13.38,26.75-16.35,26.75S5,100.36,5,100.36Z" fill="#fff" stroke="#000" stroke-linejoin="round" stroke-width="10"/><polygon points="79.8 99.98 82.37 75.55 98.53 51.3 104.41 23.37 130.5 5 158.76 10.3 176.53 19.47 179.74 50.56 185.62 82.16 195.17 99.98 79.8 99.98" fill="#fff" stroke="#000" stroke-linejoin="round" stroke-width="10"/><path d="M159.78,30.67s13,.47,19,2.08S193,44.3,196.59,51.14c2.64,5,6.58,48.84,6.58,48.84H178.6s-.38-34-3.93-38.84-7.56-8-10.84-9.4-16.9-5.07-16.9-5.07L154,37.85Z" fill="#fff" stroke="#000" stroke-linejoin="round" stroke-width="10"/><polygon points="67.13 63.49 32.51 72.02 23.19 99.98 86.89 100.36 90.41 63.49 67.13 63.49" fill="#fff" stroke="#000" stroke-linejoin="round" stroke-width="10"/><polygon points="71.6 50.54 83.61 57.05 85.91 41.59 70.36 28.69 79.05 20.72 91.22 29.7 95.45 19.23 108.87 19.23 103.15 36.85 99.03 55.61 113.04 52.03 120.5 38.61 129.74 46.55 121.09 67.23 96.35 71.41 98.43 100.36 76.24 100.36 81.14 70.81 67.13 63.49 57.77 41.88 71.6 50.54" fill="#fff" stroke="#000" stroke-linejoin="round" stroke-width="10"/></g></g></svg>