<svg xmlns="http://www.w3.org/2000/svg" width="340" height="340" viewBox="0 0 340 340">
  <g fill="none" transform="rotate(45 153.757 219.34)">
    <path fill="#A25555" d="M138.272727,63.6723747 C173.442605,63.7132769 191.027545,93.1138703 191.027545,151.874157 L191.027545,240.55 L260,240.55 C260,182.780235 260,146.128861 260,130.595878 C260,102.312121 260,0.0411579769 138.272721,0 C16.5454545,0.0411613093 16.5454545,102.312122 16.5454545,130.595878 C16.5454545,146.128861 16.5454545,182.780235 16.5454545,240.55 L85.5179099,240.55 L85.5179099,151.874157 C85.5179099,93.1138703 103.102849,63.7132769 138.272727,63.6723747 Z"/>
    <path fill="#D14646" d="M121.727273,63.6723747 C156.897151,63.7132769 174.48209,93.1138703 174.48209,151.874157 L174.48209,240.55 L243.454545,240.55 C243.454545,182.780235 243.454545,146.128861 243.454545,130.595878 C243.454545,102.312121 243.454545,0.0411579769 121.727267,0 C6.57659286e-14,0.0411613093 5.63669541e-14,102.312122 0,130.595878 C0,146.128861 0,182.780235 0,240.55 L68.9724554,240.55 L68.9724554,151.874157 C68.9724554,93.1138703 86.5573949,63.7132769 121.727273,63.6723747 Z"/>
    <rect width="68.545" height="37.733" x="16.545" y="245.267" fill="#B3AFAF"/>
    <rect width="68.545" height="37.733" x="191.455" y="245.267" fill="#B3AFAF"/>
    <path fill="#D8D8D8" d="M0,231.116667 L68.5454545,231.116667 L68.5454545,283 L0,283 L0,231.116667 Z M0,231.116667 L0,245.266667 L68.5454545,245.266667 L68.5454545,231.116667 L0,231.116667 Z M174.909091,231.116667 L243.454545,231.116667 L243.454545,283 L174.909091,283 L174.909091,231.116667 Z M174.909091,231.116667 L174.909091,245.266667 L243.454545,245.266667 L243.454545,231.116667 L174.909091,231.116667 Z"/>
  </g>
</svg>
