<svg id="Layer_1" data-name="Layer 1" xmlns="http://www.w3.org/2000/svg" xmlns:xlink="http://www.w3.org/1999/xlink" viewBox="0 0 16 16"><defs><clipPath id="clip-path"><path d="M12.88,7.07H8.12v2h2.74a2.56,2.56,0,0,1-2.74,2,3,3,0,1,1,0-6A2.93,2.93,0,0,1,10,5.65l1.49-1.49a5.12,5.12,0,1,0-3.37,9A4.83,4.83,0,0,0,13,8,4.23,4.23,0,0,0,12.88,7.07Z" fill="none"/></clipPath><clipPath id="clip-path-4"><path d="M12.88,7.07H8.12v2h2.74a2.56,2.56,0,0,1-2.74,2,3,3,0,1,1,0-6A2.93,2.93,0,0,1,10,5.65l1.49-1.49a5.12,5.12,0,1,0-3.37,9A4.83,4.83,0,0,0,13,8,4.23,4.23,0,0,0,12.88,7.07Z" fill="none" stroke="#000" stroke-miterlimit="10" stroke-width="0.5" stroke-dasharray="1 1"/></clipPath></defs><title>material</title><rect x="7.6" y="-0.08" width="0.8" height="16.17" transform="translate(-3.31 8) rotate(-45)" stroke="#000" stroke-linejoin="round"/><rect x="-0.08" y="7.6" width="16.17" height="0.8" transform="translate(-3.31 8) rotate(-45)" stroke="#000" stroke-linejoin="round"/><g clip-path="url(#clip-path)"><path d="M2.53,11V5l4,3Z" fill="none"/></g><g clip-path="url(#clip-path)"><path d="M2.53,5l4,3L8.12,6.58l5.58-.91V2.42H2.53Z" fill="none"/></g><g clip-path="url(#clip-path)"><path d="M2.53,11l7-5.35,1.84.24L13.7,2.42V13.58H2.53Z" fill="none"/></g><g clip-path="url(#clip-path-4)"><polyline points="13.7 13.08 13.7 13.58 13.3 13.28" fill="none" stroke="#000" stroke-miterlimit="10" stroke-width="0.5"/><polyline points="12.49 12.64 6.49 8 6.37 7.91" fill="none" stroke="#000" stroke-miterlimit="10" stroke-width="0.5" stroke-dasharray="1.03 1.03"/><polyline points="5.96 7.6 5.56 7.3 6.04 7.17" fill="none" stroke="#000" stroke-miterlimit="10" stroke-width="0.5"/><line x1="7.06" y1="6.87" x2="12.7" y2="5.26" fill="none" stroke="#000" stroke-miterlimit="10" stroke-width="0.5" stroke-dasharray="1.07 1.07"/><polyline points="13.22 5.11 13.7 4.98 13.7 5.48" fill="none" stroke="#000" stroke-miterlimit="10" stroke-width="0.5"/><line x1="13.7" y1="6.56" x2="13.7" y2="12.54" fill="none" stroke="#000" stroke-miterlimit="10" stroke-width="0.5" stroke-dasharray="1.09 1.09"/></g><path d="M12.88,7.07H8.12v2h2.74a2.56,2.56,0,0,1-2.74,2,3,3,0,1,1,0-6A2.93,2.93,0,0,1,10,5.65l1.49-1.49a5.12,5.12,0,1,0-3.37,9A4.83,4.83,0,0,0,13,8,4.23,4.23,0,0,0,12.88,7.07Z" fill="none" stroke="#000" stroke-miterlimit="10" stroke-width="0.5" stroke-dasharray="1 1"/></svg>