<svg xmlns="http://www.w3.org/2000/svg" viewBox="0 0 203.66 183.65"><defs><style>.cls-1,.cls-3{fill:#fff;}.cls-1,.cls-2,.cls-3{stroke:#000;stroke-width:10px;}.cls-1,.cls-2{stroke-miterlimit:10;}.cls-2{fill:none;}.cls-3{stroke-linejoin:round;}</style></defs><title>Asset 1</title><g id="Layer_2" data-name="Layer 2"><g id="Layer_1-2" data-name="Layer 1"><rect class="cls-1" x="39.79" y="22.25" width="32.04" height="32.04"/><rect class="cls-1" x="85.81" y="55.83" width="32.04" height="32.04"/><rect class="cls-1" x="132.33" y="28.63" width="32.04" height="32.04"/><rect class="cls-2" x="25.65" y="5" width="152.36" height="96.14"/><polygon class="cls-3" points="198.66 178.65 131.08 178.65 141.71 111.86 187.19 111.86 198.66 178.65"/><path class="cls-1" d="M198.56,87.4a33.69,33.69,0,1,1-33.69-33.7A33.51,33.51,0,0,1,198.56,87.4Z"/><polygon class="cls-3" points="72.58 178.65 5 178.65 15.63 111.86 61.12 111.86 72.58 178.65"/><path class="cls-1" d="M72.48,87.4A33.69,33.69,0,1,1,38.79,53.7,33.51,33.51,0,0,1,72.48,87.4Z"/></g></g></svg>