<svg xmlns="http://www.w3.org/2000/svg" viewBox="0 0 270.58 134.95"><defs><style>.cls-1,.cls-2{fill:#fff;stroke:#000;stroke-width:10px;}.cls-1{stroke-linejoin:round;}.cls-2{stroke-miterlimit:10;}</style></defs><title>Asset 2</title><g id="Layer_2" data-name="Layer 2"><g id="Layer_1-2" data-name="Layer 1"><polygon class="cls-1" points="169.08 129.95 101.5 129.95 112.13 63.16 157.61 63.16 169.08 129.95"/><path class="cls-2" d="M169,38.7a33.51,33.51,0,1,1,0-.37Q169,38.51,169,38.7Z"/><polygon class="cls-1" points="72.58 129.95 5 129.95 15.63 63.16 61.12 63.16 72.58 129.95"/><path class="cls-2" d="M72.48,38.7a33.51,33.51,0,1,1,0-.37Q72.48,38.51,72.48,38.7Z"/><polygon class="cls-1" points="265.58 129.95 198 129.95 208.63 63.16 254.12 63.16 265.58 129.95"/><path class="cls-2" d="M265.48,38.7a33.51,33.51,0,1,1,0-.37Q265.48,38.51,265.48,38.7Z"/></g></g></svg>