<svg xmlns="http://www.w3.org/2000/svg" width="16" height="16" viewBox="0 0 16 16">
  <path fill="#FFF" fill-rule="evenodd" stroke="#000" stroke-width=".75" d="M9.91534259,12.1596617 C10.5040964,11.1488977 11.0548278,10.1883161 11.5675368,9.27791694 C11.7676587,8.94837669 12.1990473,8.48876701 11.6496871,7.95531795 C11.3391426,7.65376774 10.8334709,7.73962057 10.6154148,8.0913114 C10.1648758,8.89422086 9.46238112,9.96763356 9.46238112,9.27791694 C9.46238112,8.65093654 9.46238112,6.86851617 9.46238112,3.93065586 C9.38129133,3.31021862 9.12250716,3 8.6860286,3 C8.24955004,3 7.99076587,3.31021862 7.90967609,3.93065586 C7.87946525,6.99347258 7.86286347,8.38035777 7.85987074,8.0913114 C7.85687801,7.80226504 7.85687801,7.63017855 7.85987074,7.57505194 C7.78230734,6.93651616 7.51799272,6.61115748 7.06692686,6.59897591 C6.615861,6.58679434 6.35686595,6.91215302 6.28994172,7.57505194 C6.28665999,7.68534283 6.28665999,7.85742932 6.28994172,8.0913114 C6.29322345,8.32519349 6.29322345,8.27279173 6.28994172,7.93410613 C6.26185213,7.37376983 6.03125855,7.09448091 5.59816098,7.09623935 C5.16506342,7.09799779 4.93446984,7.38435733 4.90638024,7.95531795 C4.89375767,8.36824866 4.89375767,8.56762119 4.90638024,8.55343554 C4.92138302,8.56351002 4.91268706,8.3078553 4.90638024,7.76602402 C4.90466447,7.61861802 4.90466447,7.87600086 4.90638024,8.53817254 C4.84656155,7.97162186 4.61216485,7.68526232 4.20319012,7.67909393 C3.7942154,7.67292555 3.55981869,7.95221448 3.5,8.51696072 L3.5,8.69931238 L3.5,11.2173393 C3.5,11.2173393 3.75595568,13.3866105 7.14435372,13.3181577 C8.27617844,13.2952925 9.14353122,13.189748 9.91534259,12.1596617 Z" transform="matrix(-1 0 0 1 15.418 0)"/>
</svg>
