<svg id="Layer_1" data-name="Layer 1" xmlns="http://www.w3.org/2000/svg" viewBox="0 0 16 16"><title>poor-feedback</title><path d="M7.59,11a.57.57,0,0,1-.17-.41.58.58,0,0,1,.17-.41A.54.54,0,0,1,8,10a.61.61,0,0,1,.42.17.58.58,0,0,1,.17.41.57.57,0,0,1-.17.41A.61.61,0,0,1,8,11.2.54.54,0,0,1,7.59,11Zm1-5.83L8.33,9.14H7.67L7.44,5.2Z" stroke="#000" stroke-linejoin="round" stroke-width="0.25"/><path d="M13.76,11.6h-1A5.93,5.93,0,0,0,14,8,6,6,0,0,0,8.25,2,.25.25,0,0,0,8,2.25V3a.23.23,0,0,0,.23.23,4.8,4.8,0,0,1,3.37,8V9.44a.24.24,0,0,0-.24-.24h-.72a.24.24,0,0,0-.24.24V12.2a.6.6,0,0,0,.6.6h2.76a.24.24,0,0,0,.24-.24v-.72A.24.24,0,0,0,13.76,11.6Z"/><path d="M7.77,12.8a4.8,4.8,0,0,1-3.37-8V6.56a.24.24,0,0,0,.24.24h.72a.24.24,0,0,0,.24-.24V3.8A.6.6,0,0,0,5,3.2H2.24A.23.23,0,0,0,2,3.44v.72a.24.24,0,0,0,.24.24h1A5.93,5.93,0,0,0,2,8a6,6,0,0,0,5.75,6A.25.25,0,0,0,8,13.75V13A.23.23,0,0,0,7.77,12.8Z"/></svg>