<svg xmlns="http://www.w3.org/2000/svg" viewBox="0 0 13.46 13"><title>prior_work</title><g id="Layer_2" data-name="Layer 2"><g id="Layer_1-2" data-name="Layer 1"><path d="M0,5a1.29,1.29,0,0,1,0-.19.74.74,0,0,1,.48-.56A8.41,8.41,0,0,1,1.35,4l.13,0V3.46l4.39-.25a.41.41,0,0,1,0,.11L6,8a2.31,2.31,0,0,1,0,.37.72.72,0,0,1-.7.61l-2.62.11a1.16,1.16,0,0,1-1-1c0-.22,0-.45,0-.68l-.43.05a.65.65,0,0,1-.66-.33A3.27,3.27,0,0,1,.09,5.92c0-.21-.06-.43-.09-.64Zm1.52-.19a.68.68,0,0,0-.87.57,1.38,1.38,0,0,0,.13.8.6.6,0,0,0,.71.35.12.12,0,0,0,.09-.1C1.57,5.86,1.54,5.32,1.52,4.78Z"/><path d="M4.34,0a3.2,3.2,0,0,0-.16.39.47.47,0,0,0,.06.47L4.33,1A.72.72,0,0,1,4.1,2.13l0-.08a.49.49,0,0,0-.08-.52,2.35,2.35,0,0,1-.26-.46.74.74,0,0,1,.38-1L4.31,0Z"/><path d="M3.54.19a3.3,3.3,0,0,0-.2.63.93.93,0,0,0,.07.43,1,1,0,0,0,.17.25,1,1,0,0,1-.33,1.59,1.38,1.38,0,0,1,.06-.16.68.68,0,0,0-.1-.66,3.65,3.65,0,0,1-.4-.72A1,1,0,0,1,3.54.19Z"/><path d="M12.68,9.25a2.2,2.2,0,0,0-.84-.41,2.33,2.33,0,0,0-.53-.06H8.62a2.48,2.48,0,0,0-.54.06,2.15,2.15,0,0,0-.83.41,2.1,2.1,0,0,0,.83,3.68,3.33,3.33,0,0,0,.54.07h2.69a3.07,3.07,0,0,0,.53-.07,2.1,2.1,0,0,0,1.62-2A2.09,2.09,0,0,0,12.68,9.25Zm-.93,2.21a.79.79,0,0,1-.3.12h-3a.91.91,0,0,1-.31-.12.73.73,0,0,1-.3-.57.71.71,0,0,1,.3-.57.74.74,0,0,1,.31-.12,1.88,1.88,0,0,1,.34,0h2.29a2,2,0,0,1,.34,0,.66.66,0,0,1,.3.12.69.69,0,0,1,0,1.14Z" fill="#1c1e20"/></g></g></svg>