<svg id="Layer_1" data-name="Layer 1" xmlns="http://www.w3.org/2000/svg" viewBox="0 0 1397.24 886.27"><defs><style>.cls-1,.cls-3{fill:#fff;}.cls-1,.cls-2,.cls-4{stroke:#000;stroke-miterlimit:10;}.cls-1,.cls-2{stroke-width:10px;}.cls-2,.cls-4{fill:none;}.cls-4{stroke-width:8px;}</style></defs><title>Artboard 1 copy</title><polygon class="cls-1" points="823.66 476.02 809.42 494.34 819.55 514.69 840.49 513.57 832.64 494.33 848.74 476.02 823.66 476.02"/><polygon class="cls-1" points="948.54 743.12 756.58 743.12 773.92 563.44 931.2 563.44 948.54 743.12"/><path id="path2215" d="M818.52,703.5c.14-.49,1.89-5.88,3.88-12,3.76-11.5,8.93-27.55,9-28a83.28,83.28,0,0,0-7-5.36L806.9,645.47l-10.49-7.58,21.75-.19,21.75-.18,5-15.35c2.77-8.44,5.67-17.43,6.46-20a41.73,41.73,0,0,1,1.71-4.93c.16-.17.63.74,1,2s3.38,10.46,6.6,20.38l5.85,18h21.64c18.54,0,20.1.11,20.44.11.49,0-4.14,4-9.33,7.75-19.48,14-24.45,17.76-24.3,18.17s12.09,37.13,12.86,39.57l.34,1.05-1-.66c-.93-.6-12.09-8.7-16.55-12-7.47-5.53-17-12.3-17.41-12.34S836.53,691,825,699.48c-2.34,1.73-4.82,3.55-5.5,4l-1.25.88Z"/><path class="cls-2" d="M812.86,563.44s-2.45-64.63,39.7-64.63,39.7,64.63,39.7,64.63"/><polygon class="cls-1" points="871.9 476.02 886.14 494.34 876.01 514.69 855.07 513.57 862.92 494.33 846.83 476.02 871.9 476.02"/><polygon class="cls-1" points="741.5 389.55 841.29 389.55 866.48 416.44 866.48 473.71 832.62 473.71 832.62 436.08 818.73 421.67 741.5 421.67 741.5 389.55"/><rect class="cls-1" x="802.84" y="250.27" width="35.57" height="58.76"/><polygon class="cls-3" points="636.92 638.85 607.85 365.84 789.45 365.84 754.99 638.85 636.92 638.85"/><path d="M783.77,370.84l-33.19,263H641.41l-28-263H783.77m11.34-10H602.29l1.18,11.06,28,263,.95,8.94h127l1.11-8.75,33.18-263,1.42-11.25Z"/><rect class="cls-1" x="581.05" y="201.78" width="229.01" height="169.06"/><rect class="cls-2" x="613.41" y="309.03" width="170.36" height="43.46"/><rect class="cls-1" x="554.71" y="250.27" width="35.57" height="58.76"/><polygon class="cls-1" points="566.82 476.02 581.06 494.34 570.93 514.69 549.99 513.57 557.84 494.33 541.75 476.02 566.82 476.02"/><polygon class="cls-1" points="642.55 743.12 448.71 743.12 466.21 561.68 625.04 561.68 642.55 743.12"/><path id="path2215-2" data-name="path2215" d="M511.25,703.11c.15-.49,1.91-5.94,3.92-12.1,3.8-11.61,9-27.81,9.11-28.28a82.73,82.73,0,0,0-7.06-5.41l-17.7-12.81-10.59-7.65,22-.19,22-.19L537.93,621c2.8-8.53,5.73-17.6,6.52-20.17a42.22,42.22,0,0,1,1.73-5c.16-.18.63.75,1.05,2s3.4,10.56,6.66,20.57l5.91,18.21h21.84c18.73,0,20.31.11,20.65.11.49,0-4.18,4-9.42,7.82-19.68,14.18-24.69,17.93-24.54,18.35s12.21,37.5,13,40l.33,1.06-1-.67c-.93-.6-12.2-8.78-16.7-12.12-7.55-5.58-17.2-12.42-17.59-12.45s-16.9,11.7-28.53,20.32c-2.37,1.75-4.87,3.58-5.56,4.07L511,704Z"/><path class="cls-4" d="M505.54,561.68s-2.48-65.27,40.09-65.27,40.09,65.27,40.09,65.27"/><polygon class="cls-1" points="518.58 476.02 504.34 494.34 514.47 514.69 535.41 513.57 527.56 494.33 543.66 476.02 518.58 476.02"/><polygon class="cls-1" points="635.98 389.55 552.19 389.55 527 416.44 527 473.71 560.87 473.71 560.87 436.08 574.75 421.67 635.98 421.67 635.98 389.55"/><rect class="cls-1" x="622.81" y="137.33" width="21.38" height="64.44"/><rect class="cls-1" x="744.08" y="137.33" width="21.38" height="64.44"/><ellipse class="cls-1" cx="698.59" cy="665.99" rx="54.99" ry="14.78"/><ellipse class="cls-1" cx="698.59" cy="716.18" rx="40.14" ry="14.25"/><ellipse class="cls-1" cx="698.59" cy="762.48" rx="24.45" ry="10.88"/><rect x="738.43" y="230.05" width="30.31" height="56.26"/><rect x="643.3" y="230.05" width="30.31" height="56.26"/></svg>