<svg xmlns="http://www.w3.org/2000/svg" xmlns:xlink="http://www.w3.org/1999/xlink" width="224" height="204" viewBox="0 0 224 204">
  <defs>
    <path id="sherlock_dribbble-a" d="M92.0575129,71.6074722 L134.830208,71.6074722 L173.871344,78.0311954 C176.568294,78.4749443 179.332479,78.2618725 181.929562,77.4100435 L185.852778,76.1232502 C188.338873,75.3078244 189.693219,72.6314126 188.877793,70.1453171 C188.614229,69.3417559 188.14037,68.6233946 187.505415,68.0648175 L160.57656,44.3751969 C143.435379,14.831468 120.614868,0.0397623338 92.1150258,8.0057647e-05 C92.0958522,0 92.0766813,6.66966867e-06 92.0575129,2.0009006e-05 C92.0383432,6.66923153e-06 92.0191729,0 92,0 C63.5001575,0.0397623338 40.6796463,14.831468 23.5384662,44.3751969 L1.84735139,71.1873118 C1.49650173,71.6209927 1.2125589,72.1047582 1.00496473,72.6225219 C-0.143671252,75.4873517 1.2475788,78.7409087 4.11240868,79.8895447 L5.69448375,80.523868 C9.22184932,81.9381436 13.121381,82.1297134 16.7703836,81.0679867 L16.7703836,81.0679867 L49.284818,71.6074722 L92.0575129,71.6074722 Z"/>
  </defs>
  <g fill="none" fill-rule="evenodd" transform="translate(-12 -13)">
    <g transform="rotate(13 -114.033 208.665)">
      <path d="M84.4852659,5.61132812 C128.047981,5.61132812 163.294178,40.8636719 163.294178,84.3679687 C163.294178,127.872266 128.047981,163.190625 84.4852659,163.190625 C40.9225507,163.190625 5.6763538,127.938281 5.6763538,84.4339844 C5.6763538,40.9296875 40.9225507,5.61132812 84.4852659,5.61132812 Z"/>
      <path fill="#EA4C89" fill-rule="nonzero" d="M84.4852659,168.801953 C37.8863614,168.801953 0,130.975 0,84.4339844 C0,37.8269531 37.8863614,0 84.4852659,0 C131.08417,0 168.970532,37.8269531 168.970532,84.3679687 C168.970532,130.908984 131.08417,168.801953 84.4852659,168.801953 Z M155.703705,95.9207031 C153.261553,95.1285156 133.394314,89.253125 110.754903,92.8179688 C120.193492,118.696094 124.02173,139.821094 124.747775,144.178125 C140.984787,133.285547 152.535507,115.989453 155.703705,95.9207031 Z M112.669023,150.845703 C111.612957,144.508203 107.388693,122.458984 97.290064,96.1847656 C97.1580558,96.2507812 96.9600435,96.3167969 96.8280352,96.3167969 C56.1034969,110.510156 41.5165877,138.698828 40.1965054,141.339453 C52.4072665,150.845703 67.7862251,156.523047 84.4852659,156.523047 C94.4518871,156.589062 104.022484,154.542578 112.669023,150.845703 L112.669023,150.845703 Z M30.8899253,132.691406 C32.5400282,129.91875 52.3412624,97.175 89.5675827,85.0941406 C90.4916403,84.7640625 91.481702,84.5 92.4057596,84.2359375 C90.6236485,80.1429687 88.6435251,76.05 86.5313934,72.0230469 C50.4931472,82.7835937 15.5109668,82.3214844 12.3427693,82.2554687 C12.3427693,82.9816406 12.2767652,83.7078125 12.2767652,84.4339844 C12.3427693,102.984375 19.3392054,119.884375 30.8899253,132.691406 Z M13.8608639,69.7125 C17.0950655,69.7785156 46.7969168,69.9105469 80.5910232,60.9324219 C68.6442786,39.6753906 55.7074722,21.8511719 53.859357,19.2765625 C33.596094,28.7828125 18.547156,47.3992187 13.8608639,69.7125 Z M67.5882127,14.3914062 C69.5683361,17.0320312 82.7031548,34.85625 94.5178912,56.5753906 C120.193492,46.9371094 131.018166,32.4136719 132.338249,30.5652344 C119.599455,19.2765625 102.83441,12.4109375 84.4852659,12.4109375 C78.6769039,12.4109375 73.0005501,13.1371094 67.5882127,14.3914062 Z M140.324746,38.8832031 C138.806652,40.9296875 126.727899,56.4433594 100.062237,67.3359375 C101.71234,70.76875 103.362443,74.2675781 104.880537,77.7664062 C105.40857,79.0207031 105.936603,80.275 106.464636,81.4632812 C130.490133,78.4265625 154.317619,83.3117187 156.693767,83.7738281 C156.495754,66.8078125 150.423376,51.1621094 140.324746,38.8832031 Z"/>
    </g>
    <g transform="rotate(-8 189.075 13.221)">
      <g transform="translate(0 9)">
        <path fill="#8E8A8A" fill-rule="nonzero" d="M92.0575129,71.6074722 L134.830208,71.6074722 L173.871344,78.0311954 C176.568294,78.4749443 179.332479,78.2618725 181.929562,77.4100435 L185.852778,76.1232502 C188.338873,75.3078244 189.693219,72.6314126 188.877793,70.1453171 C188.614229,69.3417559 188.14037,68.6233946 187.505415,68.0648175 L160.57656,44.3751969 C143.435379,14.831468 120.614868,0.0397623338 92.1150258,8.0057647e-05 C92.0958522,0 92.0766813,6.66966867e-06 92.0575129,2.0009006e-05 C92.0383432,6.66923153e-06 92.0191729,0 92,0 C63.5001575,0.0397623338 40.6796463,14.831468 23.5384662,44.3751969 L1.84735139,71.1873118 C1.49650173,71.6209927 1.2125589,72.1047582 1.00496473,72.6225219 C-0.143671252,75.4873517 1.2475788,78.7409087 4.11240868,79.8895447 L5.69448375,80.523868 C9.22184932,81.9381436 13.121381,82.1297134 16.7703836,81.0679867 L16.7703836,81.0679867 L49.284818,71.6074722 L92.0575129,71.6074722 Z"/>
        <mask id="sherlock_dribbble-b" fill="#fff">
          <use xlink:href="#sherlock_dribbble-a"/>
        </mask>
        <path stroke="#605E5C" stroke-width="6" d="M49.3097544,76.3317194 L134.690246,76.3317194 L120.952405,26.683168 C116.946085,12.2043273 107.393318,0.586810562 100.576472,0.586810562 L83.4235284,0.586810562 C76.6066824,0.586810562 67.053915,12.2043273 63.0475947,26.683168 L49.3097544,76.3317194 Z" mask="url(#sherlock_dribbble-b)"/>
      </g>
      <path fill="#8E8A8A" fill-rule="nonzero" d="M90.5,0 L90.5,0 L90.5,0 C96.8512746,-1.16671022e-15 102,5.14872538 102,11.5 L102,15 L79,15 L79,11.5 L79,11.5 C79,5.14872538 84.1487254,1.16671022e-15 90.5,0 Z"/>
    </g>
    <g fill-rule="nonzero" transform="rotate(-4 1584.635 -2133.578)">
      <path fill="#413D3D" d="M33.7259662,53.247399 L6.58827112,80.3850941 L-3.55271368e-14,73.796823 L27.195616,46.6012069 C23.7605199,41.7779066 21.7401855,35.8771593 21.7401855,29.5045375 C21.7401855,13.2096314 34.9498169,0 51.244723,0 C67.5396292,0 80.7492606,13.2096314 80.7492606,29.5045375 C80.7492606,45.7994436 67.5396292,59.009075 51.244723,59.009075 C44.6849776,59.009075 38.6252253,56.8683497 33.7259662,53.247399 Z M51.244723,51.7623465 C63.5373715,51.7623465 73.502532,41.797186 73.502532,29.5045375 C73.502532,17.211889 63.5373715,7.24672851 51.244723,7.24672851 C38.9520746,7.24672851 28.986914,17.211889 28.986914,29.5045375 C28.986914,41.797186 38.9520746,51.7623465 51.244723,51.7623465 Z"/>
      <path fill="#36D1F8" d="M51.244723,51.7623465 C38.9520746,51.7623465 28.986914,41.797186 28.986914,29.5045375 C28.986914,17.211889 38.9520746,7.24672851 51.244723,7.24672851 C63.5373715,7.24672851 73.502532,17.211889 73.502532,29.5045375 C73.502532,41.797186 63.5373715,51.7623465 51.244723,51.7623465 Z M66.2634643,29.9587774 C67.8945778,28.1220971 68.4616614,24.3972558 67.1596188,21.0758303 C65.4760926,17.1268729 61.6023325,13.6644894 58.9241282,13.8830102 C56.2001009,14.2038902 57.1022758,18.7699447 60.1209336,24.0484112 C62.3481167,29.1398309 64.7793753,31.6790157 66.2634643,29.9587774 Z"/>
    </g>
  </g>
</svg>
