<svg xmlns="http://www.w3.org/2000/svg" width="220" height="220" viewBox="0 0 220 220">
  <g fill="none" fill-rule="evenodd" transform="translate(24 24)">
    <circle cx="86" cy="86" r="98" stroke="#CE2828" stroke-width="24"/>
    <path fill="#000" d="M77.5474286,50.6280635 L57.5954286,50.6280635 C52.0914286,50.6280635 46.8822857,50.3332063 43.7371429,49.9400635 L43.7371429,65.5674921 C47.1771429,65.0760635 52.1897143,64.8794921 57.5954286,64.8794921 L114.404571,64.8794921 C119.908571,64.8794921 124.921143,65.0760635 128.361143,65.5674921 L128.361143,49.9400635 C125.216,50.3332063 119.908571,50.6280635 114.404571,50.6280635 L93.2731429,50.6280635 L93.2731429,45.3206349 C93.2731429,42.5686349 93.4697143,40.5046349 93.8628571,38.3423492 L76.9577143,38.3423492 C77.3508571,40.7012063 77.5474286,42.5686349 77.5474286,45.3206349 L77.5474286,50.6280635 Z M54.8434286,112.646349 C49.1428571,112.646349 44.1302857,112.449778 40.4937143,111.958349 L40.4937143,127.585778 C44.3268571,127.094349 49.1428571,126.897778 54.8434286,126.897778 L117.451429,126.897778 C122.955429,126.897778 127.869714,127.094349 131.604571,127.585778 L131.604571,111.958349 C127.968,112.449778 122.955429,112.646349 117.451429,112.646349 L104.281143,112.646349 C108.998857,101.343492 111.849143,93.4806349 114.896,83.4554921 C117.648,74.4132063 117.648,74.4132063 118.630857,71.4646349 L101.430857,66.8452063 C101.136,70.5800635 100.546286,73.1354921 98.4822857,81.2932063 C95.4354286,93.0874921 91.7005714,104.292063 88.1622857,112.646349 L54.8434286,112.646349 Z M53.5657143,72.4474921 C58.1851429,83.9469206 61.3302857,94.7583492 64.5737143,110.385778 L80.2011429,104.980063 C75.8765714,88.0749206 72.7314286,78.0497778 68.5051429,67.0417778 L53.5657143,72.4474921 Z"/>
  </g>
</svg>
