<svg xmlns="http://www.w3.org/2000/svg" width="103" height="78" viewBox="0 0 103 78">
  <g>
    <path d="M28.5365854 77.0487805L17.8829268 77.0487805 17.8829268 23.9082091 0 23.9082091 0 15.9323186C4.53283764 16.0723658 8.98318763 14.6864185 12.6512195 11.9924209 15.9841258 9.58522038 18.2674961 5.97019645 19.0243902 1.90243902L28.5365854 1.90243902 28.5365854 77.0487805zM43.8272634 39C43.3118231 29.5422645 45.6052143 20.1436919 50.4173546 11.9930714 55.3512266 4.20477279 64.0499933-.357208995 73.2439024.0219150431 82.4378116-.357208995 91.1365782 4.20477279 96.0704502 11.9930714 100.882591 20.1436919 103.175982 29.5422645 102.660541 39 103.175982 48.4577355 100.882591 57.8563081 96.0704502 66.0069286 91.1365782 73.7952272 82.4378116 78.357209 73.2439024 77.978085 64.0499933 78.357209 55.3512266 73.7952272 50.4173546 66.0069286 45.6052143 57.8563081 43.3118231 48.4577355 43.8272634 39zM54.9062573 39C54.0486765 47.570838 56.3598207 56.1590433 61.40084 63.1338511 64.5112699 66.3140843 68.8034546 68.0495278 73.2439024 67.9223137 77.6843503 68.0495278 81.9765349 66.3140843 85.0869649 63.1338511 90.1279842 56.1590433 92.4391283 47.570838 91.5815475 39 92.4391283 30.429162 90.1279842 21.8409567 85.0869649 14.8661489 82.0823582 11.4788474 77.7646853 9.55852351 73.2439024 9.59884009 68.7825136 9.46051598 64.4741826 11.2373273 61.40084 14.4830719 56.2678146 21.5597681 53.9519923 30.301954 54.9062573 39z"/>
  </g>
</svg>
