<svg xmlns="http://www.w3.org/2000/svg" viewBox="0 0 118.37 95.47"><title>twelve</title><g id="Layer_2" data-name="Layer 2"><g id="Layer_1-2" data-name="Layer 1"><path d="M36.43,95.47H22.61V29.66H0V19.73q9.51-.15,16-5a20.34,20.34,0,0,0,8.07-12.6H36.43Z"/><path d="M68.25,35.71,54.14,34c-.09-.86-.14-2.11-.14-3.74A29.27,29.27,0,0,1,62.78,8.86Q71.57,0,86.25,0t23,8.28a27.32,27.32,0,0,1,8.5,20.38q0,17.7-17.57,28.8L81.79,69.26Q71.86,75.6,70.41,82.37h48v13.1H53a43.11,43.11,0,0,1,5.4-20.73q5.11-8.94,16.78-16.42L90.72,48.24Q103.53,40,103.53,28.8a16.09,16.09,0,0,0-4.6-11.66q-4.62-4.75-13-4.76-8.79,0-13.4,5.33T68,31.54C68,32.4,68.06,33.79,68.25,35.71Z"/></g></g></svg>