<svg id="Layer_1" data-name="Layer 1" xmlns="http://www.w3.org/2000/svg" viewBox="0 0 1397.24 634.03"><title>Artboard 1 copy 2</title><rect x="227.57" y="136.1" width="516.91" height="262.11" fill="#fff" stroke="#000" stroke-miterlimit="10" stroke-width="20"/><rect x="260.31" y="172.28" width="448.09" height="188.52" fill="#fff" stroke="#000" stroke-miterlimit="10" stroke-width="15"/><line x1="298.7" y1="172.28" x2="298.7" y2="210.61" fill="#fff" stroke="#000" stroke-miterlimit="10" stroke-width="15"/><line x1="635.55" y1="286.18" x2="635.55" y2="324.51" fill="#fff" stroke="#000" stroke-miterlimit="10" stroke-width="15"/><line x1="260.31" y1="210.61" x2="708.4" y2="210.61" fill="#fff" stroke="#000" stroke-miterlimit="10" stroke-width="15"/><line x1="260.31" y1="248.21" x2="708.4" y2="248.21" fill="#fff" stroke="#000" stroke-miterlimit="10" stroke-width="15"/><line x1="260.31" y1="285.82" x2="708.4" y2="285.82" fill="#fff" stroke="#000" stroke-miterlimit="10" stroke-width="15"/><line x1="260.31" y1="322.71" x2="708.4" y2="322.71" fill="#fff" stroke="#000" stroke-miterlimit="10" stroke-width="15"/><line x1="316.07" y1="210.61" x2="316.07" y2="244.23" fill="#fff" stroke="#000" stroke-miterlimit="10" stroke-width="15"/><line x1="328.58" y1="248.21" x2="328.58" y2="285.82" fill="#fff" stroke="#000" stroke-miterlimit="10" stroke-width="15"/><line x1="298.7" y1="322.71" x2="298.7" y2="360.79" fill="#fff" stroke="#000" stroke-miterlimit="10" stroke-width="15"/><line x1="335.52" y1="322.71" x2="335.52" y2="360.79" fill="#fff" stroke="#000" stroke-miterlimit="10" stroke-width="15"/><line x1="371.65" y1="322.71" x2="371.65" y2="360.79" fill="#fff" stroke="#000" stroke-miterlimit="10" stroke-width="15"/><line x1="569.53" y1="319.44" x2="569.53" y2="357.52" fill="#fff" stroke="#000" stroke-miterlimit="10" stroke-width="15"/><line x1="614.91" y1="322.71" x2="614.91" y2="360.79" fill="#fff" stroke="#000" stroke-miterlimit="10" stroke-width="15"/><line x1="339" y1="285.82" x2="339" y2="322.71" fill="#fff" stroke="#000" stroke-miterlimit="10" stroke-width="15"/><rect x="313.85" y="213.77" width="29.45" height="29.45" fill="#fff"/><path d="M338.3,218.77v19.44H318.85V218.77H338.3m10-10H308.85v39.44H348.3V208.77Z"/><rect x="344" y="213.77" width="29.45" height="29.45" fill="#fff"/><path d="M368.44,218.77v19.44H349V218.77h19.44m10-10H339v39.44h39.44V208.77Z"/><rect x="374.73" y="213.77" width="29.45" height="29.45" fill="#fff"/><path d="M399.17,218.77v19.44H379.73V218.77h19.44m10-10H369.73v39.44h39.44V208.77Z"/><rect x="405.02" y="214.47" width="29.45" height="29.45" fill="#fff"/><path d="M429.47,219.47v19.45H410V219.47h19.44m10-10H400v39.45h39.44V209.47Z"/><rect x="434.5" y="214.47" width="29.45" height="29.45" fill="#fff"/><path d="M459,219.47v19.45H439.5V219.47H459m10-10H429.5v39.45H469V209.47Z"/><rect x="464.04" y="214.47" width="29.45" height="29.45" fill="#fff"/><path d="M488.49,219.47v19.45H469V219.47h19.45m10-10H459v39.45h39.45V209.47Z"/><rect x="494.34" y="214.47" width="29.45" height="29.45" fill="#fff"/><path d="M518.79,219.47v19.45H499.34V219.47h19.45m10-10H489.34v39.45h39.45V209.47Z"/><rect x="524.64" y="214.47" width="29.45" height="29.45" fill="#fff"/><path d="M549.08,219.47v19.45H529.64V219.47h19.44m10-10H519.64v39.45h39.44V209.47Z"/><rect x="554.8" y="213.77" width="29.45" height="29.45" fill="#fff"/><path d="M579.25,218.77v19.44H559.8V218.77h19.45m10-10H549.8v39.44h39.45V208.77Z"/><rect x="585.1" y="213.77" width="29.45" height="29.45" fill="#fff"/><path d="M609.55,218.77v19.44H590.1V218.77h19.45m10-10H580.1v39.44h39.45V208.77Z"/><rect x="326.68" y="251.79" width="29.45" height="29.45" fill="#fff"/><path d="M351.13,256.79v19.44H331.68V256.79h19.45m10-10H321.68v39.44h39.45V246.79Z"/><rect x="356.83" y="251.79" width="29.45" height="29.45" fill="#fff"/><path d="M381.27,256.79v19.44H361.83V256.79h19.44m10-10H351.83v39.44h39.44V246.79Z"/><rect x="387.56" y="251.79" width="29.45" height="29.45" fill="#fff"/><path d="M412,256.79v19.44H392.55V256.79H412m10-10H382.55v39.44H422V246.79Z"/><rect x="417.85" y="252.49" width="29.45" height="29.45" fill="#fff"/><path d="M442.3,257.49v19.45H422.85V257.49H442.3m10-10H412.85v39.45H452.3V247.49Z"/><rect x="447.33" y="252.49" width="29.45" height="29.45" fill="#fff"/><path d="M471.78,257.49v19.45H452.33V257.49h19.45m10-10H442.33v39.45h39.45V247.49Z"/><rect x="476.87" y="252.49" width="29.45" height="29.45" fill="#fff"/><path d="M501.31,257.49v19.45H481.87V257.49h19.44m10-10H471.87v39.45h39.44V247.49Z"/><rect x="507.17" y="252.49" width="29.45" height="29.45" fill="#fff"/><path d="M531.61,257.49v19.45H512.17V257.49h19.44m10-10H502.17v39.45h39.44V247.49Z"/><rect x="537.46" y="252.49" width="29.45" height="29.45" fill="#fff"/><path d="M561.91,257.49v19.45H542.46V257.49h19.45m10-10H532.46v39.45h39.45V247.49Z"/><rect x="567.63" y="251.79" width="29.45" height="29.45" fill="#fff"/><path d="M592.08,256.79v19.44H572.63V256.79h19.45m10-10H562.63v39.44h39.45V246.79Z"/><rect x="597.93" y="251.79" width="29.45" height="29.45" fill="#fff"/><path d="M622.38,256.79v19.44H602.93V256.79h19.45m10-10H592.93v39.44h39.45V246.79Z"/><rect x="336.99" y="288.91" width="29.45" height="29.45" fill="#fff"/><path d="M361.44,293.91v19.44H342V293.91h19.45m10-10H332v39.44h39.45V283.91Z"/><rect x="367.14" y="288.91" width="29.45" height="29.45" fill="#fff"/><path d="M391.58,293.91v19.44H372.14V293.91h19.44m10-10H362.14v39.44h39.44V283.91Z"/><rect x="397.86" y="288.91" width="29.45" height="29.45" fill="#fff"/><path d="M422.31,293.91v19.44H402.87V293.91h19.44m10-10H392.87v39.44h39.44V283.91Z"/><rect x="428.16" y="289.61" width="29.45" height="29.45" fill="#fff"/><path d="M452.61,294.61v19.45H433.16V294.61h19.45m10-10H423.16v39.45h39.45V284.61Z"/><rect x="457.64" y="289.61" width="29.45" height="29.45" fill="#fff"/><path d="M482.09,294.61v19.45H462.64V294.61h19.45m10-10H452.64v39.45h39.45V284.61Z"/><rect x="487.18" y="289.61" width="29.45" height="29.45" fill="#fff"/><path d="M511.63,294.61v19.45H492.18V294.61h19.45m10-10H482.18v39.45h39.45V284.61Z"/><rect x="517.48" y="289.61" width="29.45" height="29.45" fill="#fff"/><path d="M541.92,294.61v19.45H522.48V294.61h19.44m10-10H512.48v39.45h39.44V284.61Z"/><rect x="547.77" y="289.61" width="29.45" height="29.45" fill="#fff"/><path d="M572.22,294.61v19.45H552.77V294.61h19.45m10-10H542.77v39.45h39.45V284.61Z"/><rect x="577.94" y="288.91" width="29.45" height="29.45" fill="#fff"/><path d="M602.39,293.91v19.44H582.94V293.91h19.45m10-10H572.94v39.44h39.45V283.91Z"/><rect x="608.24" y="288.91" width="29.45" height="29.45" fill="#fff"/><path d="M632.69,293.91v19.44H613.24V293.91h19.45m10-10H603.24v39.44h39.45V283.91Z"/><rect x="628.23" y="252.49" width="29.45" height="29.45" fill="#fff"/><path d="M652.68,257.49v19.45H633.23V257.49h19.45m10-10H623.23v39.45h39.45V247.49Z"/><rect x="616.22" y="214.47" width="29.45" height="29.45" fill="#fff"/><path d="M640.66,219.47v19.45H621.22V219.47h19.44m10-10H611.22v39.45h39.44V209.47Z"/><rect x="297.05" y="176.36" width="29.45" height="29.45" fill="#fff"/><path d="M321.49,181.36v19.45H302.05V181.36h19.44m10-10H292.05v39.45h39.44V171.36Z"/><rect x="327.19" y="176.36" width="29.45" height="29.45" fill="#fff"/><path d="M351.64,181.36v19.45H332.19V181.36h19.45m10-10H322.19v39.45h39.45V171.36Z"/><rect x="357.92" y="176.36" width="29.45" height="29.45" fill="#fff"/><path d="M382.37,181.36v19.45H362.92V181.36h19.45m10-10H352.92v39.45h39.45V171.36Z"/><rect x="388.22" y="177.07" width="29.45" height="29.45" fill="#fff"/><path d="M412.66,182.07v19.45H393.22V182.07h19.44m10-10H383.22v39.45h39.44V172.07Z"/><rect x="417.7" y="177.07" width="29.45" height="29.45" fill="#fff"/><path d="M442.14,182.07v19.45H422.7V182.07h19.44m10-10H412.7v39.45h39.44V172.07Z"/><rect x="447.23" y="177.07" width="29.45" height="29.45" fill="#fff"/><path d="M471.68,182.07v19.45H452.23V182.07h19.45m10-10H442.23v39.45h39.45V172.07Z"/><rect x="477.53" y="177.07" width="29.45" height="29.45" fill="#fff"/><path d="M502,182.07v19.45H482.53V182.07H502m10-10H472.53v39.45H512V172.07Z"/><rect x="507.83" y="177.07" width="29.45" height="29.45" fill="#fff"/><path d="M532.28,182.07v19.45H512.83V182.07h19.45m10-10H502.83v39.45h39.45V172.07Z"/><rect x="538" y="176.36" width="29.45" height="29.45" fill="#fff"/><path d="M562.44,181.36v19.45H543V181.36h19.44m10-10H533v39.45h39.44V171.36Z"/><rect x="568.29" y="176.36" width="29.45" height="29.45" fill="#fff"/><path d="M592.74,181.36v19.45H573.29V181.36h19.45m10-10H563.29v39.45h39.45V171.36Z"/><rect x="599.41" y="177.07" width="29.45" height="29.45" fill="#fff"/><path d="M623.86,182.07v19.45H604.41V182.07h19.45m10-10H594.41v39.45h39.45V172.07Z"/><rect x="629.23" y="177.25" width="29.45" height="29.45" fill="#fff"/><path d="M653.68,182.25V201.7H634.23V182.25h19.45m10-10H624.23V211.7h39.45V172.25Z"/><path d="M885.29,396.33c-9.44-8.65-13.48-76.56-13.48-139.54s47-126,111-126,75.95,38.29,85.64,53.64S1079.16,214,1079.16,214l15.39,42.79L1073,268l4.1,24.7s-47.63,11.55-47.21,31.69,47.21,31.22,47.21,31.22,8.61,33.65-1.51,40.71S894.73,405,885.29,396.33Z" fill="#fff" stroke="#000" stroke-linejoin="round" stroke-width="20"/><rect x="1019.27" y="185.97" width="22.57" height="57.57" rx="11.29" ry="11.29"/><path d="M1127.76,294.77s11,11.32,11,25.44-11,23.89-11,23.89" fill="#fff" stroke="#000" stroke-linecap="round" stroke-miterlimit="10" stroke-width="15"/><path d="M1152.67,274.6s17,20.17,17,44.84-17,44.83-17,44.83" fill="#fff" stroke="#000" stroke-linecap="round" stroke-miterlimit="10" stroke-width="15"/><path d="M534.26,455.73l-26.18,40,26.29,40H515.52l-17.26-27.65-17.37,27.65H462.61l26.29-40.06-26.18-39.94h18.73l17.15,27.64,17.49-27.64Z" stroke="#000" stroke-miterlimit="10" stroke-width="5"/><path d="M1019,455.73l-26.18,40,26.29,40h-18.84L983,508.08l-17.38,27.65H947.3l26.29-40.06-26.18-39.94h18.73l17.16,27.64,17.49-27.64Z" stroke="#000" stroke-miterlimit="10" stroke-width="5"/></svg>