<svg id="Layer_1" data-name="Layer 1" xmlns="http://www.w3.org/2000/svg" viewBox="0 0 1397.24 886.27"><defs><style>.cls-1,.cls-3,.cls-6{fill:#fff;}.cls-1,.cls-2,.cls-3,.cls-4,.cls-5,.cls-7{stroke:#000;stroke-miterlimit:10;}.cls-1,.cls-2{stroke-width:20px;}.cls-3,.cls-4,.cls-7{stroke-width:10px;}.cls-4,.cls-5{fill:none;}.cls-5{stroke-width:15px;}</style></defs><title>Artboard 1</title><circle class="cls-1" cx="695.04" cy="476.91" r="214.42"/><rect class="cls-2" x="459.07" y="360.59" width="471.94" height="186.11" rx="12" ry="12"/><g id="Phone"><rect class="cls-3" x="204.97" y="558.22" width="147.76" height="234.87" rx="12" ry="12" transform="translate(-235.12 155.95) rotate(-22.26)"/><rect class="cls-3" x="205.39" y="593.43" width="147.76" height="166.5" transform="translate(-235.48 156.18) rotate(-22.26)"/><path class="cls-4" d="M164.35,565.34c-40.4,22.44-16.88,59.76-16.88,59.76"/><path class="cls-4" d="M387.67,784.94c40.4-22.43,19.29-59.35,19.29-59.35"/><path class="cls-4" d="M150.93,547.69c-58.9,32.71-24.62,87.12-24.62,87.12"/><path class="cls-4" d="M398.52,807.32c60.93-33.51,28.29-90.73,28.29-90.73"/></g><g id="Text"><path class="cls-4" d="M1205.28,339.45l-15.06,35.41L1138.35,311,928.4,221.76c-6.84-2.92-10.48-9.91-8.08-15.56l49.73-117c2.39-5.64,10-7.88,16.81-5L1272,205.48c6.84,2.91,10.48,9.91,8.08,15.55l-49.73,117C1228,343.65,1212.12,342.36,1205.28,339.45Z"/><path d="M1015,185.78l16.79-21.53,5.77,2.46-23.27,29-5.77-2.45,2.6-28.32-18.6,21.52-5.72-2.43,4.67-36.95,5.86,2.49-3.64,26.9,18-20.81,5.82,2.47Z"/><path d="M1038.67,190.41l-5.65,13.3-5.4-2.29,14.32-33.67,5.39,2.29-5.61,13.21c2.26-1.27,4.81-1.3,7.67-.09a8.3,8.3,0,0,1,5.07,5.12,10.47,10.47,0,0,1-.61,7.37L1047.76,210l-5.39-2.29,5.69-13.4a6.08,6.08,0,0,0,.43-4.12,4.65,4.65,0,0,0-3-2.88,4.58,4.58,0,0,0-4,0A6.38,6.38,0,0,0,1038.67,190.41Z"/><path d="M1073.16,211.44l3.95,3.38a11,11,0,0,1-5.84,3.59,11.5,11.5,0,0,1-7.44-.78,12.26,12.26,0,0,1-6.8-6.79,14.15,14.15,0,0,1,7.3-17.43,11.43,11.43,0,0,1,9.17-.06q5.2,2.22,6.78,6.65t-.72,9.83a6.41,6.41,0,0,1-.87,1.66l-16.56-7a6.36,6.36,0,0,0,.09,5,6.62,6.62,0,0,0,3.59,3.5Q1070.18,214.84,1073.16,211.44Zm-9.2-10.89,11.11,4.73a5.7,5.7,0,0,0,0-4.22,6,6,0,0,0-3.46-3.18,5.67,5.67,0,0,0-4.54-.14A5.79,5.79,0,0,0,1064,200.55Z"/><path d="M1102.74,206.45l-2.33,5.48a14,14,0,0,0-1.71-.89q-6.09-2.58-8.92,4.06l-4.58,10.79-5.4-2.29,9.63-22.65,5.25,2.23-1.54,3.63a6.67,6.67,0,0,1,3.78-1.77,8.35,8.35,0,0,1,4.44.65A7.07,7.07,0,0,1,1102.74,206.45Z"/><path d="M1116.18,229.73l4,3.38a11,11,0,0,1-5.84,3.59,11.5,11.5,0,0,1-7.44-.78,12.26,12.26,0,0,1-6.8-6.79,14.15,14.15,0,0,1,7.3-17.43,11.37,11.37,0,0,1,9.16-.06q5.22,2.22,6.79,6.65t-.72,9.82a6.22,6.22,0,0,1-.87,1.66l-16.56-7a6.36,6.36,0,0,0,.09,5,6.59,6.59,0,0,0,3.59,3.5Q1113.2,233.13,1116.18,229.73ZM1107,218.84l11.12,4.73a5.72,5.72,0,0,0,0-4.23,5.94,5.94,0,0,0-3.46-3.17,5.74,5.74,0,0,0-4.55-.15A5.92,5.92,0,0,0,1107,218.84Z"/><path d="M1157.29,229.63l-2.33,5.49a14,14,0,0,0-1.71-.89q-6.09-2.58-8.92,4.06l-4.58,10.79-5.4-2.29,9.63-22.65,5.26,2.23-1.55,3.63a6.67,6.67,0,0,1,3.78-1.77,8.35,8.35,0,0,1,4.44.65A7.6,7.6,0,0,1,1157.29,229.63Z"/><path d="M1179.37,263a5.82,5.82,0,0,1-3.57,1.23,9.79,9.79,0,0,1-4.2-.8,8.69,8.69,0,0,1-5.16-5.21,10.16,10.16,0,0,1,.44-7.45l6.07-14.27,5.4,2.29-5.66,13.3a6.43,6.43,0,0,0-.46,4.2,4.43,4.43,0,0,0,2.83,2.9,4.8,4.8,0,0,0,4.1.1,5.82,5.82,0,0,0,2.8-3.15l5.69-13.4L1193,245l-7.86,18.51a40.74,40.74,0,0,0-1.53,4.23l-5.16-2.19A15.25,15.25,0,0,1,1179.37,263Z"/><path d="M1204.78,265.19l-4.66-2c.28-.84.5-1.44.66-1.81a9.1,9.1,0,0,1,6.76-5.42l2.79-.63a5.21,5.21,0,0,0,3.9-3.11,5,5,0,0,0,.11-3.88,5.31,5.31,0,0,0-3.13-3,5.38,5.38,0,0,0-4.54-.06,5.94,5.94,0,0,0-3,3.13,7.07,7.07,0,0,0-.61,2.21l-5.1-2.6a8.46,8.46,0,0,1,.63-2.26,10.41,10.41,0,0,1,5.67-5.58c2.69-1.18,5.69-1.07,9,.33s5.49,3.41,6.6,6a9.56,9.56,0,0,1,.05,7.77q-2.07,4.88-8.13,6.2l-2.59.55a5.57,5.57,0,0,0-4.2,3.43A2.84,2.84,0,0,0,1204.78,265.19Zm-8.57,7.1a3.65,3.65,0,0,1,0-2.81,3.61,3.61,0,0,1,2-2,3.6,3.6,0,0,1,4.79,2,3.62,3.62,0,0,1,0,2.85,3.54,3.54,0,0,1-2,2,3.59,3.59,0,0,1-2.82,0A3.54,3.54,0,0,1,1196.21,272.29Z"/></g><path class="cls-5" d="M786.06,581.61c0,42.26-40.75,76.51-91,76.51s-91-34.25-91-76.51Z"/><g id="Facebook"><rect id="Blue" class="cls-4" x="224.33" y="91.24" width="172.59" height="172.59" rx="9.53" ry="9.53" transform="translate(31.54 401.41) rotate(-68.49)"/><path id="f" class="cls-3" d="M309.48,269.84,334,207.66l20.87,8.23,12.68-23-24-9.46,6.1-15.47c2.76-7,6.6-11,16.66-7.06l12.83,5,8.55-21.67A183.65,183.65,0,0,0,369.35,136c-18.5-7.29-35.61-1-43.79,19.75l-7,17.87-20.93-8.25L288,189.55,309,197.8,284.46,260Z"/><circle cx="354.15" cy="283.49" r="25.79"/><path class="cls-6" d="M335.14,287.17l2.12-2.54a7.78,7.78,0,0,0,8.38,2.37,7,7,0,0,0,3.5-3.76,4.49,4.49,0,0,1-2.42.92,6.86,6.86,0,0,1-3.16-.5,7.27,7.27,0,0,1-4-3.59,6.5,6.5,0,0,1-.15-5.5,6.68,6.68,0,0,1,4-4,8,8,0,0,1,5.93.1,7.71,7.71,0,0,1,4.55,4.43q1.29,3.18-.39,7.57-2.07,5.34-5.71,7.29t-8.52.08A8.64,8.64,0,0,1,335.14,287.17Zm15.22-8.5a3.57,3.57,0,0,0-.12-3,4.15,4.15,0,0,0-5.2-2,3.6,3.6,0,0,0-2.09,2.16,3.65,3.65,0,0,0,.06,3,4.25,4.25,0,0,0,5.25,2A3.67,3.67,0,0,0,350.36,278.67Z"/><path class="cls-6" d="M352.52,293.87l2.12-2.55a7.76,7.76,0,0,0,8.38,2.37,7,7,0,0,0,3.5-3.75,4.48,4.48,0,0,1-2.43.91,6.82,6.82,0,0,1-3.15-.49,7.29,7.29,0,0,1-4-3.6,6.48,6.48,0,0,1-.15-5.49,6.72,6.72,0,0,1,4-4,8,8,0,0,1,5.93.11,7.68,7.68,0,0,1,4.55,4.43c.86,2.11.73,4.64-.4,7.56q-2.06,5.34-5.71,7.3t-8.51.08A8.65,8.65,0,0,1,352.52,293.87Zm15.22-8.51a3.59,3.59,0,0,0-.12-3,4.16,4.16,0,0,0-5.21-2,3.6,3.6,0,0,0-2.08,2.17,3.65,3.65,0,0,0,.06,3,4.08,4.08,0,0,0,2.25,2,4,4,0,0,0,3,0A3.62,3.62,0,0,0,367.74,285.36Z"/></g><path class="cls-4" d="M1177.44,755.5c1.22,10.3-7.21,33.88-4,36.27s20.08-2,22.33-4.81c5.76-13.83,8.71-31.31,4.42-38.22C1194.84,751.18,1180.77,751.91,1177.44,755.5Z"/><path class="cls-3" d="M1059.62,816.39c5.14,3.52,20.9,0,23.53-3.64,4.22-7.15,1.37-38,9.52-48.54,5.06-5.54,20.92-8.58,26.86-5.76,5.25,5.17-3.3,45,.3,46.56,5.1,2.48,22.59-1.12,26.89-6.4,3.5-3.76,1.76-37.59,7.15-41.85s15.61.82,33-3,29.71-14.17,33.25-10.08-4.95,36.55-1.58,38.73,20.72-1.19,24.43-6.53c7.5-12.91,6-75.19-.79-85.64,23.33-50.13,32.34-73.14,25-98.08-2.78-13.16-22.89-10.38-27.66,6.87-.74,36.15-5.9,39.48-24,77.11-8.16,3.73-23.35-1.27-51.17-.24-25.82,1.44-37.88,6.47-37.88,6.47s-19.27,2.58-43.86,25S1055,749.2,1059.62,816.39Z"/><path class="cls-7" d="M1133.32,681.06c-3.86,5.48,8.22,40.23,11.23,40.15s13.52-37.82,10.59-41.32C1148.1,680.15,1138.52,680.53,1133.32,681.06Z"/><path class="cls-7" d="M1175.08,675.73c-3.37,4.78,5.41,39.36,8,39.29s15.18-35.11,12.62-38.16C1189.6,677.09,1179.6,675.27,1175.08,675.73Z"/><g id="Cat_Head" data-name="Cat Head"><circle class="cls-3" cx="1076.96" cy="679.86" r="57.38"/><path class="cls-4" d="M1085.06,623.05s25.11-29.58,36.48-25.37,3,50.11,3,50.11"/><path class="cls-4" d="M1046,631.56s-38.2-15.29-45.65-6,20.27,43.55,20.27,43.55"/></g><circle cx="1096.6" cy="668.3" r="9.49"/><circle cx="1046.89" cy="679.37" r="9.49"/><path class="cls-4" d="M1017.81,788c3.34,1.17,16.51,26.14,14.32,29.66S946.25,834,942,831.55s1.51-30.14,4.18-32.51,14.45,1.85,36.34-1.32C1005.47,794.4,1014.47,786.82,1017.81,788Z"/><path class="cls-4" d="M946.17,799s2.63-12.18,33.51-16.17c28.5-3.68,38.13,5.12,38.13,5.12"/></svg>