<svg xmlns="http://www.w3.org/2000/svg" width="16" height="16" viewBox="0 0 16 16">
  <g fill="none" fill-rule="evenodd" stroke="#000" stroke-width=".75">
    <path fill="#FFF" d="M10.650698,12.3330359 C11.2394518,11.3222718 11.7901832,10.3616903 12.3028921,9.45129112 C12.5030141,9.12175087 12.7722682,8.38591717 12.222908,7.85246812 C11.9123634,7.55091791 11.5688263,7.91299476 11.3507702,8.26468559 C10.9002312,9.06759504 10.1977365,10.1410077 10.1977365,9.45129112 C10.1977365,8.82431072 10.1977365,7.04189036 10.1977365,4.10403004 C10.1166467,3.4835928 9.85786254,3.17337418 9.42138398,3.17337418 C8.98490543,3.17337418 8.72612125,3.4835928 8.64503147,4.10403004 C8.61482063,7.16684677 8.59821885,8.55373195 8.59522612,8.26468559 C8.5922334,7.97563922 8.60883518,6.32318209 8.64503147,3.30731418 C8.55618587,2.6687784 8.28623014,2.34341973 7.83516428,2.33123816 C7.38409843,2.31905659 7.1141427,2.64441526 7.0252971,3.30731418 C7.02201537,6.37834637 7.02201537,8.0308035 7.0252971,8.26468559 C7.02857883,8.49856767 7.02857883,7.11847027 7.0252971,4.12439339 C6.99720751,3.56405709 6.76661393,3.28476816 6.33351636,3.2865266 C5.9004188,3.28828505 5.66982522,3.57464458 5.64173563,4.1456052 C5.62911305,7.2139272 5.62911305,8.74099537 5.64173563,8.72680972 C5.6567384,8.73688421 5.66108638,8.47100581 5.65477956,7.92917454 C5.65306378,7.78176854 5.64871581,7.51470593 5.64173563,7.12798672 C5.58191693,6.56143604 5.34752023,6.2750765 4.9385455,6.26890812 C4.52957078,6.26273973 4.29517407,6.54202866 4.23535538,7.1067749 L4.23535538,8.5983899 L4.23535538,11.3907135 C4.23535538,11.3907135 4.03774555,13.5648033 7.8797091,13.4915319 C9.01157089,13.4699458 9.8788866,13.3631221 10.650698,12.3330359 Z" transform="rotate(-30 8.39 7.912)"/>
    <path d="M14.715493,10.3234062 C14.2207656,10.3935349 13.7682829,10.6994039 13.3580448,11.2410134 C13.1161399,11.5635138 12.786777,12.1166245 12.3699559,12.9003453" transform="rotate(160 13.543 11.612)"/>
    <path d="M15.9092338,11.3987127 C15.3352647,11.4847947 14.8003299,11.7973686 14.3044294,12.3364344 C14.0002439,12.6647277 13.693179,13.1746441 13.3832345,13.8661835" transform="rotate(160 14.646 12.632)"/>
    <path d="M3.715493,3.32340624 C3.22311392,3.38708295 2.74352157,3.70792599 2.27671595,4.28593536 C1.90567014,4.72078018 1.6034168,5.25891682 1.36995593,5.90034527" transform="rotate(-20 2.543 4.612)"/>
    <path d="M2.91492729,2.27795203 C2.53439623,2.26072154 2.0035202,2.56989771 1.32229921,3.20548052 C0.800110631,3.80366479 0.416036947,4.41532948 0.170078162,5.0404746" transform="rotate(-20 1.543 3.659)"/>
  </g>
</svg>
